<svg xmlns="http://www.w3.org/2000/svg" width="900" height="520" viewBox="0 0 900 520">
  <rect width="100%" height="100%" fill="white"/>
  <text x="450.0" y="28" text-anchor="middle" font-family="Arial" font-size="18">Content KNN Diagnostics: Number of Neighbors</text>
  <line x1="80" y1="445" x2="865" y2="445" stroke="#334155"/>
  <line x1="80" y1="45" x2="80" y2="445" stroke="#334155"/>
  <polyline points="80.00,45.00 97.84,118.67 115.68,143.83 151.36,168.94 187.05,175.83 240.57,193.65 329.77,194.39 418.98,193.81 597.39,193.18 865.00,193.18" fill="none" stroke="#2563eb" stroke-width="2"/>
  <polyline points="80.00,198.97 97.84,207.62 115.68,206.91 151.36,231.84 187.05,238.72 240.57,289.63 329.77,260.38 418.98,262.14 597.39,250.49 865.00,250.02" fill="none" stroke="#dc2626" stroke-width="2"/>
  <circle cx="240.57" cy="289.63" r="5" fill="#dc2626"/>
  <text x="250.57" y="279.63" font-family="Arial" font-size="12">best test k=10</text>
  <text x="450.0" y="496" text-anchor="middle" font-family="Arial" font-size="14">k</text>
  <text x="24" y="260.0" text-anchor="middle" font-family="Arial" font-size="14" transform="rotate(-90 24 260.0)">MSE</text>
  <rect x="690" y="55" width="170" height="58" fill="white" stroke="#e5e7eb"/>
  <line x1="705" y1="78" x2="745" y2="78" stroke="#2563eb" stroke-width="3"/>
  <text x="755" y="83" font-family="Arial" font-size="13">train MSE</text>
  <line x1="705" y1="101" x2="745" y2="101" stroke="#dc2626" stroke-width="3"/>
  <text x="755" y="106" font-family="Arial" font-size="13">test MSE</text>
  <text x="70" y="49" text-anchor="end" font-family="Arial" font-size="12">0.0139</text>
  <text x="70" y="449" text-anchor="end" font-family="Arial" font-size="12">0</text>
</svg>
