<svg xmlns="http://www.w3.org/2000/svg" width="900" height="520" viewBox="0 0 900 520">
  <rect width="100%" height="100%" fill="white"/>
  <text x="450.0" y="26" text-anchor="middle" font-family="Arial" font-size="18">Train/Test Loss (log scale)</text>
  <line x1="75" y1="450" x2="870" y2="450" stroke="#334155"/>
  <line x1="75" y1="45" x2="75" y2="450" stroke="#334155"/>
  <polyline points="75.00,45.00 75.99,57.31 76.99,66.86 77.98,74.96 78.98,82.11 79.97,88.51 80.97,94.29 81.96,99.54 82.96,104.31 83.95,108.67 84.95,112.67 85.94,116.35 86.94,119.75 87.93,122.90 88.93,125.84 89.92,128.60 90.92,131.19 91.91,133.63 92.91,135.94 93.90,138.14 94.90,140.24 95.89,142.24 96.89,144.15 97.88,145.99 98.88,147.75 99.87,149.44 100.87,151.07 101.86,152.64 102.86,154.16 103.85,155.63 104.85,157.05 105.84,158.44 106.84,159.78 107.83,161.09 108.83,162.36 109.82,163.61 110.82,164.82 111.81,166.01 112.81,167.17 113.80,168.31 114.80,169.43 115.79,170.52 116.79,171.60 117.78,172.66 118.78,173.70 119.77,174.72 120.77,175.72 121.76,176.72 122.76,177.69 123.75,178.65 124.75,179.60 125.74,180.54 126.74,181.46 127.73,182.37 128.73,183.27 129.72,184.15 130.72,185.03 131.71,185.90 132.71,186.75 133.70,187.60 134.70,188.43 135.69,189.26 136.69,190.08 137.68,190.89 138.68,191.69 139.67,192.49 140.67,193.27 141.66,194.05 142.66,194.82 143.65,195.58 144.65,196.34 145.64,197.09 146.64,197.83 147.63,198.57 148.63,199.30 149.62,200.03 150.62,200.75 151.61,201.46 152.61,202.17 153.60,202.87 154.60,203.57 155.59,204.26 156.59,204.95 157.58,205.63 158.58,206.31 159.57,206.99 160.57,207.66 161.56,208.32 162.56,208.98 163.55,209.64 164.55,210.29 165.54,210.94 166.54,211.59 167.53,212.23 168.53,212.87 169.52,213.50 170.52,214.14 171.51,214.76 172.51,215.39 173.50,216.01 174.50,216.63 175.49,217.25 176.49,217.86 177.48,218.47 178.48,219.08 179.47,219.68 180.47,220.28 181.46,220.88 182.46,221.48 183.45,222.07 184.45,222.66 185.44,223.25 186.44,223.84 187.43,224.42 188.43,225.00 189.42,225.58 190.42,226.16 191.41,226.74 192.41,227.31 193.40,227.88 194.40,228.45 195.39,229.02 196.39,229.59 197.38,230.15 198.38,230.71 199.37,231.27 200.37,231.83 201.36,232.39 202.36,232.94 203.35,233.49 204.35,234.04 205.34,234.59 206.34,235.14 207.33,235.69 208.33,236.23 209.32,236.78 210.32,237.32 211.31,237.86 212.31,238.40 213.30,238.93 214.30,239.47 215.29,240.00 216.29,240.54 217.28,241.07 218.28,241.60 219.27,242.13 220.27,242.65 221.26,243.18 222.26,243.70 223.25,244.23 224.25,244.75 225.24,245.27 226.24,245.79 227.23,246.31 228.23,246.82 229.22,247.34 230.22,247.85 231.21,248.37 232.21,248.88 233.20,249.39 234.20,249.90 235.19,250.41 236.19,250.92 237.18,251.42 238.18,251.93 239.17,252.43 240.17,252.94 241.16,253.44 242.16,253.94 243.15,254.44 244.15,254.94 245.14,255.43 246.14,255.93 247.13,256.43 248.13,256.92 249.12,257.41 250.12,257.91 251.11,258.40 252.11,258.89 253.10,259.38 254.10,259.87 255.09,260.36 256.09,260.84 257.08,261.33 258.08,261.81 259.07,262.30 260.07,262.78 261.06,263.26 262.06,263.74 263.05,264.22 264.05,264.70 265.04,265.18 266.04,265.65 267.03,266.13 268.03,266.61 269.02,267.08 270.02,267.55 271.01,268.03 272.01,268.50 273.00,268.97 274.00,269.44 274.99,269.91 275.99,270.38 276.98,270.84 277.98,271.31 278.97,271.77 279.97,272.24 280.96,272.70 281.96,273.17 282.95,273.63 283.95,274.09 284.94,274.55 285.94,275.01 286.93,275.47 287.93,275.92 288.92,276.38 289.92,276.84 290.91,277.29 291.91,277.75 292.90,278.20 293.90,278.65 294.89,279.10 295.89,279.55 296.88,280.00 297.88,280.45 298.87,280.90 299.87,281.35 300.86,281.80 301.86,282.24 302.85,282.69 303.85,283.13 304.84,283.58 305.84,284.02 306.83,284.46 307.83,284.90 308.82,285.34 309.82,285.78 310.81,286.22 311.81,286.66 312.80,287.09 313.80,287.53 314.79,287.97 315.79,288.40 316.78,288.83 317.78,289.27 318.77,289.70 319.77,290.13 320.76,290.56 321.76,290.99 322.75,291.42 323.75,291.85 324.74,292.28 325.74,292.70 326.73,293.13 327.73,293.55 328.72,293.98 329.72,294.40 330.71,294.82 331.71,295.25 332.70,295.67 333.70,296.09 334.69,296.51 335.69,296.93 336.68,297.35 337.68,297.76 338.67,298.18 339.67,298.59 340.66,299.01 341.66,299.42 342.65,299.84 343.65,300.25 344.64,300.66 345.64,301.07 346.63,301.48 347.63,301.89 348.62,302.30 349.62,302.71 350.61,303.12 351.61,303.53 352.60,303.93 353.60,304.34 354.59,304.74 355.59,305.14 356.58,305.55 357.58,305.95 358.57,306.35 359.57,306.75 360.56,307.15 361.56,307.55 362.55,307.95 363.55,308.35 364.54,308.74 365.54,309.14 366.53,309.54 367.53,309.93 368.52,310.32 369.52,310.72 370.51,311.11 371.51,311.50 372.50,311.89 373.50,312.28 374.49,312.67 375.49,313.06 376.48,313.45 377.48,313.84 378.47,314.22 379.47,314.61 380.46,315.00 381.46,315.38 382.45,315.76 383.45,316.15 384.44,316.53 385.44,316.91 386.43,317.29 387.43,317.67 388.42,318.05 389.42,318.43 390.41,318.81 391.41,319.18 392.40,319.56 393.40,319.94 394.39,320.31 395.39,320.69 396.38,321.06 397.38,321.43 398.37,321.81 399.37,322.18 400.36,322.55 401.36,322.92 402.35,323.29 403.35,323.66 404.34,324.03 405.34,324.39 406.33,324.76 407.33,325.13 408.32,325.49 409.32,325.86 410.31,326.22 411.31,326.58 412.30,326.95 413.30,327.31 414.29,327.67 415.29,328.03 416.28,328.39 417.28,328.75 418.27,329.11 419.27,329.46 420.26,329.82 421.26,330.18 422.25,330.53 423.25,330.89 424.24,331.24 425.24,331.60 426.23,331.95 427.23,332.30 428.22,332.65 429.22,333.01 430.21,333.36 431.21,333.71 432.20,334.05 433.20,334.40 434.19,334.75 435.19,335.10 436.18,335.45 437.18,335.79 438.17,336.14 439.17,336.48 440.16,336.82 441.16,337.17 442.15,337.51 443.15,337.85 444.14,338.19 445.14,338.53 446.13,338.88 447.13,339.21 448.12,339.55 449.12,339.89 450.11,340.23 451.11,340.57 452.10,340.90 453.10,341.24 454.09,341.57 455.09,341.91 456.08,342.24 457.08,342.58 458.07,342.91 459.07,343.24 460.06,343.57 461.06,343.90 462.05,344.23 463.05,344.56 464.04,344.89 465.04,345.22 466.03,345.55 467.03,345.87 468.02,346.20 469.02,346.53 470.01,346.85 471.01,347.18 472.00,347.50 473.00,347.83 473.99,348.15 474.99,348.47 475.98,348.79 476.98,349.11 477.97,349.44 478.97,349.76 479.96,350.08 480.96,350.39 481.95,350.71 482.95,351.03 483.94,351.35 484.94,351.67 485.93,351.98 486.93,352.30 487.92,352.61 488.92,352.93 489.91,353.24 490.91,353.55 491.90,353.87 492.90,354.18 493.89,354.49 494.89,354.80 495.88,355.11 496.88,355.42 497.87,355.73 498.87,356.04 499.86,356.35 500.86,356.66 501.85,356.97 502.85,357.28 503.84,357.58 504.84,357.89 505.83,358.19 506.83,358.50 507.82,358.80 508.82,359.11 509.81,359.41 510.81,359.71 511.80,360.02 512.80,360.32 513.79,360.62 514.79,360.92 515.78,361.22 516.78,361.52 517.77,361.82 518.77,362.12 519.76,362.42 520.76,362.72 521.75,363.01 522.75,363.31 523.74,363.61 524.74,363.90 525.73,364.20 526.73,364.49 527.72,364.79 528.72,365.08 529.71,365.38 530.71,365.67 531.70,365.96 532.70,366.26 533.69,366.55 534.69,366.84 535.68,367.13 536.68,367.42 537.67,367.71 538.67,368.00 539.66,368.29 540.66,368.58 541.65,368.87 542.65,369.16 543.64,369.44 544.64,369.73 545.63,370.02 546.63,370.30 547.62,370.59 548.62,370.87 549.61,371.16 550.61,371.44 551.60,371.73 552.60,372.01 553.59,372.29 554.59,372.58 555.58,372.86 556.58,373.14 557.57,373.42 558.57,373.70 559.56,373.99 560.56,374.27 561.55,374.55 562.55,374.83 563.54,375.10 564.54,375.38 565.53,375.66 566.53,375.94 567.52,376.22 568.52,376.49 569.51,376.77 570.51,377.05 571.50,377.32 572.50,377.60 573.49,377.88 574.49,378.15 575.48,378.43 576.48,378.70 577.47,378.97 578.47,379.25 579.46,379.52 580.46,379.79 581.45,380.07 582.45,380.34 583.44,380.61 584.44,380.88 585.43,381.15 586.43,381.42 587.42,381.69 588.42,381.96 589.41,382.23 590.41,382.50 591.40,382.77 592.40,383.04 593.39,383.31 594.39,383.58 595.38,383.84 596.38,384.11 597.37,384.38 598.37,384.64 599.36,384.91 600.36,385.18 601.35,385.44 602.35,385.71 603.34,385.97 604.34,386.24 605.33,386.50 606.33,386.77 607.32,387.03 608.32,387.29 609.31,387.56 610.31,387.82 611.30,388.08 612.30,388.34 613.29,388.61 614.29,388.87 615.28,389.13 616.28,389.39 617.27,389.65 618.27,389.91 619.26,390.17 620.26,390.43 621.25,390.69 622.25,390.95 623.24,391.21 624.24,391.47 625.23,391.73 626.23,391.99 627.22,392.24 628.22,392.50 629.21,392.76 630.21,393.02 631.20,393.27 632.20,393.53 633.19,393.79 634.19,394.04 635.18,394.30 636.18,394.55 637.17,394.81 638.17,395.06 639.16,395.32 640.16,395.57 641.15,395.83 642.15,396.08 643.14,396.33 644.14,396.59 645.13,396.84 646.13,397.09 647.12,397.35 648.12,397.60 649.11,397.85 650.11,398.10 651.10,398.36 652.10,398.61 653.09,398.86 654.09,399.11 655.08,399.36 656.08,399.61 657.07,399.86 658.07,400.11 659.06,400.36 660.06,400.61 661.05,400.86 662.05,401.11 663.04,401.36 664.04,401.61 665.03,401.86 666.03,402.11 667.02,402.35 668.02,402.60 669.01,402.85 670.01,403.10 671.00,403.35 672.00,403.59 672.99,403.84 673.99,404.09 674.98,404.33 675.98,404.58 676.97,404.83 677.97,405.07 678.96,405.32 679.96,405.56 680.95,405.81 681.95,406.05 682.94,406.30 683.94,406.54 684.93,406.79 685.93,407.03 686.92,407.28 687.92,407.52 688.91,407.76 689.91,408.01 690.90,408.25 691.90,408.49 692.89,408.74 693.89,408.98 694.88,409.22 695.88,409.47 696.87,409.71 697.87,409.95 698.86,410.19 699.86,410.43 700.85,410.68 701.85,410.92 702.84,411.16 703.84,411.40 704.83,411.64 705.83,411.88 706.82,412.12 707.82,412.36 708.81,412.60 709.81,412.84 710.80,413.08 711.80,413.32 712.79,413.56 713.79,413.80 714.78,414.04 715.78,414.28 716.77,414.52 717.77,414.76 718.76,415.00 719.76,415.24 720.75,415.48 721.75,415.71 722.74,415.95 723.74,416.19 724.73,416.43 725.73,416.67 726.72,416.90 727.72,417.14 728.71,417.38 729.71,417.62 730.70,417.85 731.70,418.09 732.69,418.33 733.69,418.56 734.68,418.80 735.68,419.04 736.67,419.27 737.67,419.51 738.66,419.74 739.66,419.98 740.65,420.22 741.65,420.45 742.64,420.69 743.64,420.92 744.63,421.16 745.63,421.39 746.62,421.63 747.62,421.86 748.61,422.10 749.61,422.33 750.60,422.57 751.60,422.80 752.59,423.03 753.59,423.27 754.58,423.50 755.58,423.74 756.57,423.97 757.57,424.20 758.56,424.44 759.56,424.67 760.55,424.90 761.55,425.14 762.54,425.37 763.54,425.60 764.53,425.83 765.53,426.07 766.52,426.30 767.52,426.53 768.51,426.76 769.51,427.00 770.50,427.23 771.50,427.46 772.49,427.69 773.49,427.92 774.48,428.16 775.48,428.39 776.47,428.62 777.47,428.85 778.46,429.08 779.46,429.31 780.45,429.54 781.45,429.77 782.44,430.01 783.44,430.24 784.43,430.47 785.43,430.70 786.42,430.93 787.42,431.16 788.41,431.39 789.41,431.62 790.40,431.85 791.40,432.08 792.39,432.31 793.39,432.54 794.38,432.77 795.38,433.00 796.37,433.23 797.37,433.46 798.36,433.69 799.36,433.92 800.35,434.14 801.35,434.37 802.34,434.60 803.34,434.83 804.33,435.06 805.33,435.29 806.32,435.52 807.32,435.75 808.31,435.98 809.31,436.20 810.30,436.43 811.30,436.66 812.29,436.89 813.29,437.12 814.28,437.34 815.28,437.57 816.27,437.80 817.27,438.03 818.26,438.26 819.26,438.48 820.25,438.71 821.25,438.94 822.24,439.17 823.24,439.39 824.23,439.62 825.23,439.85 826.22,440.07 827.22,440.30 828.21,440.53 829.21,440.76 830.20,440.98 831.20,441.21 832.19,441.44 833.19,441.66 834.18,441.89 835.18,442.11 836.17,442.34 837.17,442.57 838.16,442.79 839.16,443.02 840.15,443.25 841.15,443.47 842.14,443.70 843.14,443.92 844.13,444.15 845.13,444.38 846.12,444.60 847.12,444.83 848.11,445.05 849.11,445.28 850.10,445.50 851.10,445.73 852.09,445.95 853.09,446.18 854.08,446.40 855.08,446.63 856.07,446.85 857.07,447.08 858.06,447.30 859.06,447.53 860.05,447.75 861.05,447.98 862.04,448.20 863.04,448.43 864.03,448.65 865.03,448.88 866.02,449.10 867.02,449.33 868.01,449.55 869.01,449.78 870.00,450.00" fill="none" stroke="#2563eb" stroke-width="2"/>
  <polyline points="75.00,104.29 75.99,108.88 76.99,111.17 77.98,112.55 78.98,113.66 79.97,115.47 80.97,119.11 81.96,123.32 82.96,127.42 83.95,131.16 84.95,134.44 85.94,137.28 86.94,139.72 87.93,141.79 88.93,143.53 89.92,144.97 90.92,146.14 91.91,147.09 92.91,147.85 93.90,148.58 94.90,149.17 95.89,149.65 96.89,150.05 97.88,150.36 98.88,150.61 99.87,150.81 100.87,150.95 101.86,151.06 102.86,151.13 103.85,151.17 104.85,151.19 105.84,151.19 106.84,151.18 107.83,151.15 108.83,151.10 109.82,151.05 110.82,151.00 111.81,150.93 112.81,150.87 113.80,150.79 114.80,150.72 115.79,150.64 116.79,150.57 117.78,150.49 118.78,150.41 119.77,150.33 120.77,150.25 121.76,150.17 122.76,150.09 123.75,150.02 124.75,149.94 125.74,149.87 126.74,149.79 127.73,149.72 128.73,149.65 129.72,149.58 130.72,149.51 131.71,149.45 132.71,149.38 133.70,149.32 134.70,149.26 135.69,149.20 136.69,149.14 137.68,149.08 138.68,149.03 139.67,148.97 140.67,148.92 141.66,148.87 142.66,148.82 143.65,148.77 144.65,148.73 145.64,148.68 146.64,148.64 147.63,148.59 148.63,148.55 149.62,148.51 150.62,148.47 151.61,148.43 152.61,148.39 153.60,148.36 154.60,148.32 155.59,148.29 156.59,148.25 157.58,148.22 158.58,148.19 159.57,148.16 160.57,148.13 161.56,148.10 162.56,148.07 163.55,148.04 164.55,148.01 165.54,147.99 166.54,147.96 167.53,147.94 168.53,147.92 169.52,147.89 170.52,147.87 171.51,147.85 172.51,147.83 173.50,147.81 174.50,147.78 175.49,147.77 176.49,147.75 177.48,147.73 178.48,147.71 179.47,147.69 180.47,147.67 181.46,147.66 182.46,147.64 183.45,147.63 184.45,147.61 185.44,147.60 186.44,147.58 187.43,147.57 188.43,147.55 189.42,147.54 190.42,147.53 191.41,147.51 192.41,147.50 193.40,147.49 194.40,147.48 195.39,147.47 196.39,147.46 197.38,147.44 198.38,147.43 199.37,147.42 200.37,147.41 201.36,147.40 202.36,147.39 203.35,147.39 204.35,147.38 205.34,147.37 206.34,147.36 207.33,147.35 208.33,147.34 209.32,147.33 210.32,147.33 211.31,147.32 212.31,147.31 213.30,147.30 214.30,147.30 215.29,147.29 216.29,147.28 217.28,147.28 218.28,147.27 219.27,147.26 220.27,147.26 221.26,147.25 222.26,147.25 223.25,147.24 224.25,147.23 225.24,147.23 226.24,147.22 227.23,147.22 228.23,147.21 229.22,147.21 230.22,147.20 231.21,147.20 232.21,147.19 233.20,147.19 234.20,147.18 235.19,147.18 236.19,147.18 237.18,147.17 238.18,147.17 239.17,147.16 240.17,147.16 241.16,147.16 242.16,147.15 243.15,147.15 244.15,147.14 245.14,147.14 246.14,147.14 247.13,147.13 248.13,147.13 249.12,147.13 250.12,147.12 251.11,147.12 252.11,147.12 253.10,147.11 254.10,147.11 255.09,147.11 256.09,147.10 257.08,147.10 258.08,147.10 259.07,147.10 260.07,147.09 261.06,147.09 262.06,147.09 263.05,147.09 264.05,147.08 265.04,147.08 266.04,147.08 267.03,147.07 268.03,147.07 269.02,147.07 270.02,147.07 271.01,147.07 272.01,147.06 273.00,147.06 274.00,147.06 274.99,147.06 275.99,147.05 276.98,147.05 277.98,147.05 278.97,147.05 279.97,147.05 280.96,147.04 281.96,147.04 282.95,147.04 283.95,147.04 284.94,147.04 285.94,147.03 286.93,147.03 287.93,147.03 288.92,147.03 289.92,147.03 290.91,147.02 291.91,147.02 292.90,147.02 293.90,147.02 294.89,147.02 295.89,147.02 296.88,147.01 297.88,147.01 298.87,147.01 299.87,147.01 300.86,147.01 301.86,147.01 302.85,147.00 303.85,147.00 304.84,147.00 305.84,147.00 306.83,147.00 307.83,147.00 308.82,147.00 309.82,146.99 310.81,146.99 311.81,146.99 312.80,146.99 313.80,146.99 314.79,146.99 315.79,146.99 316.78,146.98 317.78,146.98 318.77,146.98 319.77,146.98 320.76,146.98 321.76,146.98 322.75,146.98 323.75,146.98 324.74,146.97 325.74,146.97 326.73,146.97 327.73,146.97 328.72,146.97 329.72,146.97 330.71,146.97 331.71,146.96 332.70,146.96 333.70,146.96 334.69,146.96 335.69,146.96 336.68,146.96 337.68,146.96 338.67,146.96 339.67,146.96 340.66,146.95 341.66,146.95 342.65,146.95 343.65,146.95 344.64,146.95 345.64,146.95 346.63,146.95 347.63,146.95 348.62,146.95 349.62,146.94 350.61,146.94 351.61,146.94 352.60,146.94 353.60,146.94 354.59,146.94 355.59,146.94 356.58,146.94 357.58,146.94 358.57,146.93 359.57,146.93 360.56,146.93 361.56,146.93 362.55,146.93 363.55,146.93 364.54,146.93 365.54,146.93 366.53,146.93 367.53,146.93 368.52,146.93 369.52,146.92 370.51,146.92 371.51,146.92 372.50,146.92 373.50,146.92 374.49,146.92 375.49,146.92 376.48,146.92 377.48,146.92 378.47,146.92 379.47,146.91 380.46,146.91 381.46,146.91 382.45,146.91 383.45,146.91 384.44,146.91 385.44,146.91 386.43,146.91 387.43,146.91 388.42,146.91 389.42,146.91 390.41,146.91 391.41,146.90 392.40,146.90 393.40,146.90 394.39,146.90 395.39,146.90 396.38,146.90 397.38,146.90 398.37,146.90 399.37,146.90 400.36,146.90 401.36,146.90 402.35,146.90 403.35,146.90 404.34,146.89 405.34,146.89 406.33,146.89 407.33,146.89 408.32,146.89 409.32,146.89 410.31,146.89 411.31,146.89 412.30,146.89 413.30,146.89 414.29,146.89 415.29,146.89 416.28,146.89 417.28,146.88 418.27,146.88 419.27,146.88 420.26,146.88 421.26,146.88 422.25,146.88 423.25,146.88 424.24,146.88 425.24,146.88 426.23,146.88 427.23,146.88 428.22,146.88 429.22,146.88 430.21,146.88 431.21,146.88 432.20,146.87 433.20,146.87 434.19,146.87 435.19,146.87 436.18,146.87 437.18,146.87 438.17,146.87 439.17,146.87 440.16,146.87 441.16,146.87 442.15,146.87 443.15,146.87 444.14,146.87 445.14,146.87 446.13,146.87 447.13,146.87 448.12,146.86 449.12,146.86 450.11,146.86 451.11,146.86 452.10,146.86 453.10,146.86 454.09,146.86 455.09,146.86 456.08,146.86 457.08,146.86 458.07,146.86 459.07,146.86 460.06,146.86 461.06,146.86 462.05,146.86 463.05,146.86 464.04,146.86 465.04,146.86 466.03,146.85 467.03,146.85 468.02,146.85 469.02,146.85 470.01,146.85 471.01,146.85 472.00,146.85 473.00,146.85 473.99,146.85 474.99,146.85 475.98,146.85 476.98,146.85 477.97,146.85 478.97,146.85 479.96,146.85 480.96,146.85 481.95,146.85 482.95,146.85 483.94,146.85 484.94,146.85 485.93,146.85 486.93,146.84 487.92,146.84 488.92,146.84 489.91,146.84 490.91,146.84 491.90,146.84 492.90,146.84 493.89,146.84 494.89,146.84 495.88,146.84 496.88,146.84 497.87,146.84 498.87,146.84 499.86,146.84 500.86,146.84 501.85,146.84 502.85,146.84 503.84,146.84 504.84,146.84 505.83,146.84 506.83,146.84 507.82,146.84 508.82,146.84 509.81,146.84 510.81,146.83 511.80,146.83 512.80,146.83 513.79,146.83 514.79,146.83 515.78,146.83 516.78,146.83 517.77,146.83 518.77,146.83 519.76,146.83 520.76,146.83 521.75,146.83 522.75,146.83 523.74,146.83 524.74,146.83 525.73,146.83 526.73,146.83 527.72,146.83 528.72,146.83 529.71,146.83 530.71,146.83 531.70,146.83 532.70,146.83 533.69,146.83 534.69,146.83 535.68,146.83 536.68,146.83 537.67,146.83 538.67,146.83 539.66,146.83 540.66,146.82 541.65,146.82 542.65,146.82 543.64,146.82 544.64,146.82 545.63,146.82 546.63,146.82 547.62,146.82 548.62,146.82 549.61,146.82 550.61,146.82 551.60,146.82 552.60,146.82 553.59,146.82 554.59,146.82 555.58,146.82 556.58,146.82 557.57,146.82 558.57,146.82 559.56,146.82 560.56,146.82 561.55,146.82 562.55,146.82 563.54,146.82 564.54,146.82 565.53,146.82 566.53,146.82 567.52,146.82 568.52,146.82 569.51,146.82 570.51,146.82 571.50,146.82 572.50,146.82 573.49,146.82 574.49,146.82 575.48,146.82 576.48,146.82 577.47,146.82 578.47,146.82 579.46,146.81 580.46,146.81 581.45,146.81 582.45,146.81 583.44,146.81 584.44,146.81 585.43,146.81 586.43,146.81 587.42,146.81 588.42,146.81 589.41,146.81 590.41,146.81 591.40,146.81 592.40,146.81 593.39,146.81 594.39,146.81 595.38,146.81 596.38,146.81 597.37,146.81 598.37,146.81 599.36,146.81 600.36,146.81 601.35,146.81 602.35,146.81 603.34,146.81 604.34,146.81 605.33,146.81 606.33,146.81 607.32,146.81 608.32,146.81 609.31,146.81 610.31,146.81 611.30,146.81 612.30,146.81 613.29,146.81 614.29,146.81 615.28,146.81 616.28,146.81 617.27,146.81 618.27,146.81 619.26,146.81 620.26,146.81 621.25,146.81 622.25,146.81 623.24,146.81 624.24,146.81 625.23,146.81 626.23,146.81 627.22,146.81 628.22,146.81 629.21,146.81 630.21,146.81 631.20,146.81 632.20,146.81 633.19,146.81 634.19,146.81 635.18,146.81 636.18,146.81 637.17,146.80 638.17,146.80 639.16,146.80 640.16,146.80 641.15,146.80 642.15,146.80 643.14,146.80 644.14,146.80 645.13,146.80 646.13,146.80 647.12,146.80 648.12,146.80 649.11,146.80 650.11,146.80 651.10,146.80 652.10,146.80 653.09,146.80 654.09,146.80 655.08,146.80 656.08,146.80 657.07,146.80 658.07,146.80 659.06,146.80 660.06,146.80 661.05,146.80 662.05,146.80 663.04,146.80 664.04,146.80 665.03,146.80 666.03,146.80 667.02,146.80 668.02,146.80 669.01,146.80 670.01,146.80 671.00,146.80 672.00,146.80 672.99,146.80 673.99,146.80 674.98,146.80 675.98,146.80 676.97,146.80 677.97,146.80 678.96,146.80 679.96,146.80 680.95,146.80 681.95,146.80 682.94,146.80 683.94,146.80 684.93,146.80 685.93,146.80 686.92,146.80 687.92,146.80 688.91,146.80 689.91,146.80 690.90,146.80 691.90,146.80 692.89,146.80 693.89,146.80 694.88,146.80 695.88,146.80 696.87,146.80 697.87,146.80 698.86,146.80 699.86,146.80 700.85,146.80 701.85,146.80 702.84,146.80 703.84,146.80 704.83,146.80 705.83,146.80 706.82,146.80 707.82,146.80 708.81,146.80 709.81,146.80 710.80,146.80 711.80,146.80 712.79,146.80 713.79,146.80 714.78,146.80 715.78,146.80 716.77,146.80 717.77,146.80 718.76,146.80 719.76,146.80 720.75,146.80 721.75,146.80 722.74,146.80 723.74,146.80 724.73,146.80 725.73,146.80 726.72,146.80 727.72,146.80 728.71,146.80 729.71,146.80 730.70,146.80 731.70,146.80 732.69,146.80 733.69,146.80 734.68,146.80 735.68,146.80 736.67,146.80 737.67,146.80 738.66,146.80 739.66,146.80 740.65,146.80 741.65,146.80 742.64,146.80 743.64,146.80 744.63,146.80 745.63,146.80 746.62,146.80 747.62,146.80 748.61,146.80 749.61,146.80 750.60,146.80 751.60,146.80 752.59,146.80 753.59,146.80 754.58,146.80 755.58,146.80 756.57,146.80 757.57,146.80 758.56,146.80 759.56,146.80 760.55,146.80 761.55,146.80 762.54,146.80 763.54,146.80 764.53,146.80 765.53,146.80 766.52,146.80 767.52,146.80 768.51,146.80 769.51,146.80 770.50,146.80 771.50,146.80 772.49,146.80 773.49,146.80 774.48,146.80 775.48,146.80 776.47,146.80 777.47,146.80 778.46,146.80 779.46,146.80 780.45,146.80 781.45,146.80 782.44,146.80 783.44,146.80 784.43,146.80 785.43,146.80 786.42,146.80 787.42,146.80 788.41,146.80 789.41,146.80 790.40,146.80 791.40,146.80 792.39,146.80 793.39,146.80 794.38,146.80 795.38,146.80 796.37,146.80 797.37,146.80 798.36,146.80 799.36,146.80 800.35,146.80 801.35,146.80 802.34,146.80 803.34,146.80 804.33,146.80 805.33,146.80 806.32,146.80 807.32,146.80 808.31,146.80 809.31,146.80 810.30,146.80 811.30,146.80 812.29,146.80 813.29,146.80 814.28,146.80 815.28,146.80 816.27,146.80 817.27,146.80 818.26,146.80 819.26,146.80 820.25,146.80 821.25,146.80 822.24,146.80 823.24,146.80 824.23,146.80 825.23,146.80 826.22,146.80 827.22,146.79 828.21,146.79 829.21,146.79 830.20,146.79 831.20,146.79 832.19,146.79 833.19,146.79 834.18,146.79 835.18,146.79 836.17,146.79 837.17,146.79 838.16,146.79 839.16,146.79 840.15,146.79 841.15,146.79 842.14,146.79 843.14,146.79 844.13,146.79 845.13,146.79 846.12,146.79 847.12,146.79 848.11,146.79 849.11,146.79 850.10,146.79 851.10,146.79 852.09,146.79 853.09,146.79 854.08,146.79 855.08,146.79 856.07,146.79 857.07,146.79 858.06,146.79 859.06,146.79 860.05,146.79 861.05,146.79 862.04,146.79 863.04,146.79 864.03,146.79 865.03,146.79 866.02,146.79 867.02,146.79 868.01,146.79 869.01,146.79 870.00,146.79" fill="none" stroke="#dc2626" stroke-width="2"/>
  <circle cx="105.84" cy="151.19" r="5" fill="#dc2626"/>
  <text x="115.84" y="141.19" font-family="Arial" font-size="12">best test epoch 32</text>
  <text x="450.0" y="498" text-anchor="middle" font-family="Arial" font-size="14">Epoch</text>
  <text x="24" y="260.0" text-anchor="middle" font-family="Arial" font-size="14" transform="rotate(-90 24 260.0)">MSE Loss (log scale)</text>
  <rect x="685" y="54" width="175" height="58" fill="white" stroke="#e5e7eb"/>
  <line x1="700" y1="77" x2="740" y2="77" stroke="#2563eb" stroke-width="3"/>
  <text x="750" y="82" font-family="Arial" font-size="13">train loss</text>
  <line x1="700" y1="100" x2="740" y2="100" stroke="#dc2626" stroke-width="3"/>
  <text x="750" y="105" font-family="Arial" font-size="13">test loss</text>
  <text x="75" y="474" text-anchor="middle" font-family="Arial" font-size="12">1</text>
  <text x="870" y="474" text-anchor="middle" font-family="Arial" font-size="12">800</text>
  <text x="65" y="49" text-anchor="end" font-family="Arial" font-size="12">2.536</text>
  <text x="65" y="454" text-anchor="end" font-family="Arial" font-size="12">1.028e-06</text>
</svg>
