<svg xmlns="http://www.w3.org/2000/svg" width="900" height="520" viewBox="0 0 900 520">
  <rect width="100%" height="100%" fill="white"/>
  <text x="450.0" y="26" text-anchor="middle" font-family="Arial" font-size="18">Train/Test Loss after Warm-up (epoch 20+)</text>
  <line x1="75" y1="450" x2="870" y2="450" stroke="#334155"/>
  <line x1="75" y1="45" x2="75" y2="450" stroke="#334155"/>
  <polyline points="75.00,45.00 76.02,74.70 77.04,101.01 78.06,124.46 79.08,145.45 80.10,164.33 81.12,181.37 82.13,196.82 83.15,210.88 84.17,223.72 85.19,235.49 86.21,246.31 87.23,256.29 88.25,265.52 89.27,274.08 90.29,282.05 91.31,289.47 92.33,296.40 93.35,302.89 94.37,308.98 95.38,314.70 96.40,320.08 97.42,325.15 98.44,329.94 99.46,334.47 100.48,338.75 101.50,342.81 102.52,346.66 103.54,350.31 104.56,353.78 105.58,357.09 106.60,360.24 107.62,363.23 108.63,366.09 109.65,368.82 110.67,371.43 111.69,373.93 112.71,376.31 113.73,378.59 114.75,380.78 115.77,382.88 116.79,384.89 117.81,386.81 118.83,388.67 119.85,390.45 120.87,392.16 121.88,393.80 122.90,395.38 123.92,396.90 124.94,398.37 125.96,399.78 126.98,401.15 128.00,402.46 129.02,403.73 130.04,404.95 131.06,406.13 132.08,407.27 133.10,408.38 134.12,409.44 135.13,410.47 136.15,411.47 137.17,412.44 138.19,413.37 139.21,414.27 140.23,415.15 141.25,416.00 142.27,416.82 143.29,417.62 144.31,418.39 145.33,419.14 146.35,419.87 147.37,420.58 148.38,421.26 149.40,421.93 150.42,422.58 151.44,423.21 152.46,423.82 153.48,424.41 154.50,424.99 155.52,425.55 156.54,426.10 157.56,426.63 158.58,427.15 159.60,427.65 160.62,428.14 161.63,428.62 162.65,429.08 163.67,429.53 164.69,429.98 165.71,430.40 166.73,430.82 167.75,431.23 168.77,431.63 169.79,432.02 170.81,432.39 171.83,432.76 172.85,433.12 173.87,433.47 174.88,433.82 175.90,434.15 176.92,434.48 177.94,434.79 178.96,435.10 179.98,435.41 181.00,435.70 182.02,435.99 183.04,436.27 184.06,436.55 185.08,436.82 186.10,437.08 187.12,437.34 188.13,437.59 189.15,437.84 190.17,438.07 191.19,438.31 192.21,438.54 193.23,438.76 194.25,438.98 195.27,439.20 196.29,439.40 197.31,439.61 198.33,439.81 199.35,440.01 200.37,440.20 201.38,440.39 202.40,440.57 203.42,440.75 204.44,440.92 205.46,441.10 206.48,441.26 207.50,441.43 208.52,441.59 209.54,441.75 210.56,441.90 211.58,442.05 212.60,442.20 213.62,442.34 214.63,442.49 215.65,442.63 216.67,442.76 217.69,442.89 218.71,443.03 219.73,443.15 220.75,443.28 221.77,443.40 222.79,443.52 223.81,443.64 224.83,443.75 225.85,443.87 226.87,443.98 227.88,444.09 228.90,444.19 229.92,444.30 230.94,444.40 231.96,444.50 232.98,444.60 234.00,444.69 235.02,444.79 236.04,444.88 237.06,444.97 238.08,445.06 239.10,445.14 240.12,445.23 241.13,445.31 242.15,445.40 243.17,445.48 244.19,445.55 245.21,445.63 246.23,445.71 247.25,445.78 248.27,445.86 249.29,445.93 250.31,446.00 251.33,446.07 252.35,446.13 253.37,446.20 254.38,446.26 255.40,446.33 256.42,446.39 257.44,446.45 258.46,446.51 259.48,446.57 260.50,446.63 261.52,446.69 262.54,446.74 263.56,446.80 264.58,446.85 265.60,446.90 266.62,446.95 267.63,447.01 268.65,447.06 269.67,447.10 270.69,447.15 271.71,447.20 272.73,447.25 273.75,447.29 274.77,447.34 275.79,447.38 276.81,447.42 277.83,447.46 278.85,447.51 279.87,447.55 280.88,447.59 281.90,447.63 282.92,447.66 283.94,447.70 284.96,447.74 285.98,447.78 287.00,447.81 288.02,447.85 289.04,447.88 290.06,447.92 291.08,447.95 292.10,447.98 293.12,448.01 294.13,448.05 295.15,448.08 296.17,448.11 297.19,448.14 298.21,448.17 299.23,448.20 300.25,448.22 301.27,448.25 302.29,448.28 303.31,448.31 304.33,448.33 305.35,448.36 306.37,448.38 307.38,448.41 308.40,448.43 309.42,448.46 310.44,448.48 311.46,448.50 312.48,448.53 313.50,448.55 314.52,448.57 315.54,448.59 316.56,448.62 317.58,448.64 318.60,448.66 319.62,448.68 320.63,448.70 321.65,448.72 322.67,448.74 323.69,448.76 324.71,448.78 325.73,448.79 326.75,448.81 327.77,448.83 328.79,448.85 329.81,448.86 330.83,448.88 331.85,448.90 332.87,448.91 333.88,448.93 334.90,448.95 335.92,448.96 336.94,448.98 337.96,448.99 338.98,449.01 340.00,449.02 341.02,449.04 342.04,449.05 343.06,449.06 344.08,449.08 345.10,449.09 346.12,449.10 347.13,449.12 348.15,449.13 349.17,449.14 350.19,449.15 351.21,449.17 352.23,449.18 353.25,449.19 354.27,449.20 355.29,449.21 356.31,449.22 357.33,449.24 358.35,449.25 359.37,449.26 360.38,449.27 361.40,449.28 362.42,449.29 363.44,449.30 364.46,449.31 365.48,449.32 366.50,449.33 367.52,449.34 368.54,449.35 369.56,449.35 370.58,449.36 371.60,449.37 372.62,449.38 373.63,449.39 374.65,449.40 375.67,449.41 376.69,449.41 377.71,449.42 378.73,449.43 379.75,449.44 380.77,449.45 381.79,449.45 382.81,449.46 383.83,449.47 384.85,449.47 385.87,449.48 386.88,449.49 387.90,449.50 388.92,449.50 389.94,449.51 390.96,449.52 391.98,449.52 393.00,449.53 394.02,449.53 395.04,449.54 396.06,449.55 397.08,449.55 398.10,449.56 399.12,449.56 400.13,449.57 401.15,449.58 402.17,449.58 403.19,449.59 404.21,449.59 405.23,449.60 406.25,449.60 407.27,449.61 408.29,449.61 409.31,449.62 410.33,449.62 411.35,449.63 412.37,449.63 413.38,449.64 414.40,449.64 415.42,449.65 416.44,449.65 417.46,449.66 418.48,449.66 419.50,449.66 420.52,449.67 421.54,449.67 422.56,449.68 423.58,449.68 424.60,449.68 425.62,449.69 426.63,449.69 427.65,449.70 428.67,449.70 429.69,449.70 430.71,449.71 431.73,449.71 432.75,449.71 433.77,449.72 434.79,449.72 435.81,449.73 436.83,449.73 437.85,449.73 438.87,449.74 439.88,449.74 440.90,449.74 441.92,449.74 442.94,449.75 443.96,449.75 444.98,449.75 446.00,449.76 447.02,449.76 448.04,449.76 449.06,449.77 450.08,449.77 451.10,449.77 452.12,449.77 453.13,449.78 454.15,449.78 455.17,449.78 456.19,449.78 457.21,449.79 458.23,449.79 459.25,449.79 460.27,449.79 461.29,449.80 462.31,449.80 463.33,449.80 464.35,449.80 465.37,449.81 466.38,449.81 467.40,449.81 468.42,449.81 469.44,449.81 470.46,449.82 471.48,449.82 472.50,449.82 473.52,449.82 474.54,449.83 475.56,449.83 476.58,449.83 477.60,449.83 478.62,449.83 479.63,449.84 480.65,449.84 481.67,449.84 482.69,449.84 483.71,449.84 484.73,449.84 485.75,449.85 486.77,449.85 487.79,449.85 488.81,449.85 489.83,449.85 490.85,449.85 491.87,449.86 492.88,449.86 493.90,449.86 494.92,449.86 495.94,449.86 496.96,449.86 497.98,449.87 499.00,449.87 500.02,449.87 501.04,449.87 502.06,449.87 503.08,449.87 504.10,449.87 505.12,449.88 506.13,449.88 507.15,449.88 508.17,449.88 509.19,449.88 510.21,449.88 511.23,449.88 512.25,449.88 513.27,449.89 514.29,449.89 515.31,449.89 516.33,449.89 517.35,449.89 518.37,449.89 519.38,449.89 520.40,449.89 521.42,449.90 522.44,449.90 523.46,449.90 524.48,449.90 525.50,449.90 526.52,449.90 527.54,449.90 528.56,449.90 529.58,449.90 530.60,449.90 531.62,449.91 532.63,449.91 533.65,449.91 534.67,449.91 535.69,449.91 536.71,449.91 537.73,449.91 538.75,449.91 539.77,449.91 540.79,449.91 541.81,449.91 542.83,449.92 543.85,449.92 544.87,449.92 545.88,449.92 546.90,449.92 547.92,449.92 548.94,449.92 549.96,449.92 550.98,449.92 552.00,449.92 553.02,449.92 554.04,449.92 555.06,449.93 556.08,449.93 557.10,449.93 558.12,449.93 559.13,449.93 560.15,449.93 561.17,449.93 562.19,449.93 563.21,449.93 564.23,449.93 565.25,449.93 566.27,449.93 567.29,449.93 568.31,449.93 569.33,449.94 570.35,449.94 571.37,449.94 572.38,449.94 573.40,449.94 574.42,449.94 575.44,449.94 576.46,449.94 577.48,449.94 578.50,449.94 579.52,449.94 580.54,449.94 581.56,449.94 582.58,449.94 583.60,449.94 584.62,449.94 585.63,449.94 586.65,449.95 587.67,449.95 588.69,449.95 589.71,449.95 590.73,449.95 591.75,449.95 592.77,449.95 593.79,449.95 594.81,449.95 595.83,449.95 596.85,449.95 597.87,449.95 598.88,449.95 599.90,449.95 600.92,449.95 601.94,449.95 602.96,449.95 603.98,449.95 605.00,449.95 606.02,449.95 607.04,449.95 608.06,449.96 609.08,449.96 610.10,449.96 611.12,449.96 612.13,449.96 613.15,449.96 614.17,449.96 615.19,449.96 616.21,449.96 617.23,449.96 618.25,449.96 619.27,449.96 620.29,449.96 621.31,449.96 622.33,449.96 623.35,449.96 624.37,449.96 625.38,449.96 626.40,449.96 627.42,449.96 628.44,449.96 629.46,449.96 630.48,449.96 631.50,449.96 632.52,449.96 633.54,449.96 634.56,449.96 635.58,449.97 636.60,449.97 637.62,449.97 638.63,449.97 639.65,449.97 640.67,449.97 641.69,449.97 642.71,449.97 643.73,449.97 644.75,449.97 645.77,449.97 646.79,449.97 647.81,449.97 648.83,449.97 649.85,449.97 650.87,449.97 651.88,449.97 652.90,449.97 653.92,449.97 654.94,449.97 655.96,449.97 656.98,449.97 658.00,449.97 659.02,449.97 660.04,449.97 661.06,449.97 662.08,449.97 663.10,449.97 664.12,449.97 665.13,449.97 666.15,449.97 667.17,449.97 668.19,449.97 669.21,449.97 670.23,449.97 671.25,449.97 672.27,449.97 673.29,449.98 674.31,449.98 675.33,449.98 676.35,449.98 677.37,449.98 678.38,449.98 679.40,449.98 680.42,449.98 681.44,449.98 682.46,449.98 683.48,449.98 684.50,449.98 685.52,449.98 686.54,449.98 687.56,449.98 688.58,449.98 689.60,449.98 690.62,449.98 691.63,449.98 692.65,449.98 693.67,449.98 694.69,449.98 695.71,449.98 696.73,449.98 697.75,449.98 698.77,449.98 699.79,449.98 700.81,449.98 701.83,449.98 702.85,449.98 703.87,449.98 704.88,449.98 705.90,449.98 706.92,449.98 707.94,449.98 708.96,449.98 709.98,449.98 711.00,449.98 712.02,449.98 713.04,449.98 714.06,449.98 715.08,449.98 716.10,449.98 717.12,449.98 718.13,449.98 719.15,449.98 720.17,449.98 721.19,449.98 722.21,449.98 723.23,449.98 724.25,449.98 725.27,449.98 726.29,449.98 727.31,449.98 728.33,449.98 729.35,449.98 730.37,449.98 731.38,449.98 732.40,449.99 733.42,449.99 734.44,449.99 735.46,449.99 736.48,449.99 737.50,449.99 738.52,449.99 739.54,449.99 740.56,449.99 741.58,449.99 742.60,449.99 743.62,449.99 744.63,449.99 745.65,449.99 746.67,449.99 747.69,449.99 748.71,449.99 749.73,449.99 750.75,449.99 751.77,449.99 752.79,449.99 753.81,449.99 754.83,449.99 755.85,449.99 756.87,449.99 757.88,449.99 758.90,449.99 759.92,449.99 760.94,449.99 761.96,449.99 762.98,449.99 764.00,449.99 765.02,449.99 766.04,449.99 767.06,449.99 768.08,449.99 769.10,449.99 770.12,449.99 771.13,449.99 772.15,449.99 773.17,449.99 774.19,449.99 775.21,449.99 776.23,449.99 777.25,449.99 778.27,449.99 779.29,449.99 780.31,449.99 781.33,449.99 782.35,449.99 783.37,449.99 784.38,449.99 785.40,449.99 786.42,449.99 787.44,449.99 788.46,449.99 789.48,449.99 790.50,449.99 791.52,449.99 792.54,449.99 793.56,449.99 794.58,449.99 795.60,449.99 796.62,449.99 797.63,449.99 798.65,449.99 799.67,449.99 800.69,449.99 801.71,449.99 802.73,449.99 803.75,449.99 804.77,449.99 805.79,449.99 806.81,449.99 807.83,449.99 808.85,449.99 809.87,449.99 810.88,449.99 811.90,449.99 812.92,449.99 813.94,449.99 814.96,449.99 815.98,449.99 817.00,449.99 818.02,449.99 819.04,449.99 820.06,449.99 821.08,449.99 822.10,449.99 823.12,449.99 824.13,449.99 825.15,449.99 826.17,449.99 827.19,449.99 828.21,449.99 829.23,449.99 830.25,449.99 831.27,449.99 832.29,449.99 833.31,449.99 834.33,449.99 835.35,449.99 836.37,449.99 837.38,449.99 838.40,449.99 839.42,449.99 840.44,449.99 841.46,449.99 842.48,449.99 843.50,449.99 844.52,449.99 845.54,449.99 846.56,449.99 847.58,449.99 848.60,449.99 849.62,449.99 850.63,449.99 851.65,449.99 852.67,449.99 853.69,449.99 854.71,449.99 855.73,449.99 856.75,449.99 857.77,449.99 858.79,449.99 859.81,449.99 860.83,449.99 861.85,449.99 862.87,449.99 863.88,449.99 864.90,449.99 865.92,449.99 866.94,450.00 867.96,450.00 868.98,450.00 870.00,450.00" fill="none" stroke="#2563eb" stroke-width="2"/>
  <polyline points="75.00,172.80 76.02,178.72 77.04,183.46 78.06,187.25 79.08,190.24 80.10,192.58 81.12,194.38 82.13,195.72 83.15,196.69 84.17,197.35 85.19,197.75 86.21,197.93 87.23,197.94 88.25,197.79 89.27,197.52 90.29,197.14 91.31,196.68 92.33,196.16 93.35,195.57 94.37,194.94 95.38,194.28 96.40,193.59 97.42,192.88 98.44,192.15 99.46,191.41 100.48,190.67 101.50,189.92 102.52,189.17 103.54,188.43 104.56,187.69 105.58,186.95 106.60,186.23 107.62,185.51 108.63,184.81 109.65,184.11 110.67,183.43 111.69,182.76 112.71,182.10 113.73,181.46 114.75,180.83 115.77,180.21 116.79,179.61 117.81,179.02 118.83,178.44 119.85,177.88 120.87,177.33 121.88,176.79 122.90,176.27 123.92,175.76 124.94,175.26 125.96,174.78 126.98,174.31 128.00,173.85 129.02,173.40 130.04,172.96 131.06,172.54 132.08,172.12 133.10,171.72 134.12,171.33 135.13,170.95 136.15,170.58 137.17,170.21 138.19,169.86 139.21,169.52 140.23,169.19 141.25,168.86 142.27,168.55 143.29,168.24 144.31,167.94 145.33,167.65 146.35,167.37 147.37,167.09 148.38,166.83 149.40,166.57 150.42,166.31 151.44,166.07 152.46,165.83 153.48,165.59 154.50,165.37 155.52,165.14 156.54,164.93 157.56,164.72 158.58,164.52 159.60,164.32 160.62,164.12 161.63,163.94 162.65,163.75 163.67,163.58 164.69,163.40 165.71,163.23 166.73,163.07 167.75,162.91 168.77,162.75 169.79,162.60 170.81,162.45 171.83,162.31 172.85,162.17 173.87,162.03 174.88,161.90 175.90,161.77 176.92,161.64 177.94,161.52 178.96,161.40 179.98,161.28 181.00,161.17 182.02,161.06 183.04,160.95 184.06,160.85 185.08,160.74 186.10,160.64 187.12,160.54 188.13,160.45 189.15,160.36 190.17,160.26 191.19,160.18 192.21,160.09 193.23,160.01 194.25,159.92 195.27,159.84 196.29,159.76 197.31,159.69 198.33,159.61 199.35,159.54 200.37,159.47 201.38,159.40 202.40,159.33 203.42,159.26 204.44,159.20 205.46,159.13 206.48,159.07 207.50,159.01 208.52,158.95 209.54,158.89 210.56,158.84 211.58,158.78 212.60,158.73 213.62,158.67 214.63,158.62 215.65,158.57 216.67,158.52 217.69,158.47 218.71,158.42 219.73,158.38 220.75,158.33 221.77,158.29 222.79,158.24 223.81,158.20 224.83,158.16 225.85,158.11 226.87,158.07 227.88,158.03 228.90,157.99 229.92,157.96 230.94,157.92 231.96,157.88 232.98,157.84 234.00,157.81 235.02,157.77 236.04,157.74 237.06,157.71 238.08,157.67 239.10,157.64 240.12,157.61 241.13,157.58 242.15,157.55 243.17,157.52 244.19,157.49 245.21,157.46 246.23,157.43 247.25,157.40 248.27,157.37 249.29,157.34 250.31,157.32 251.33,157.29 252.35,157.26 253.37,157.24 254.38,157.21 255.40,157.19 256.42,157.16 257.44,157.14 258.46,157.11 259.48,157.09 260.50,157.07 261.52,157.04 262.54,157.02 263.56,157.00 264.58,156.98 265.60,156.95 266.62,156.93 267.63,156.91 268.65,156.89 269.67,156.87 270.69,156.85 271.71,156.83 272.73,156.81 273.75,156.79 274.77,156.77 275.79,156.75 276.81,156.73 277.83,156.71 278.85,156.69 279.87,156.67 280.88,156.66 281.90,156.64 282.92,156.62 283.94,156.60 284.96,156.58 285.98,156.57 287.00,156.55 288.02,156.53 289.04,156.52 290.06,156.50 291.08,156.48 292.10,156.47 293.12,156.45 294.13,156.43 295.15,156.42 296.17,156.40 297.19,156.39 298.21,156.37 299.23,156.36 300.25,156.34 301.27,156.33 302.29,156.31 303.31,156.30 304.33,156.28 305.35,156.27 306.37,156.25 307.38,156.24 308.40,156.23 309.42,156.21 310.44,156.20 311.46,156.18 312.48,156.17 313.50,156.16 314.52,156.14 315.54,156.13 316.56,156.12 317.58,156.10 318.60,156.09 319.62,156.08 320.63,156.06 321.65,156.05 322.67,156.04 323.69,156.03 324.71,156.01 325.73,156.00 326.75,155.99 327.77,155.98 328.79,155.96 329.81,155.95 330.83,155.94 331.85,155.93 332.87,155.92 333.88,155.90 334.90,155.89 335.92,155.88 336.94,155.87 337.96,155.86 338.98,155.85 340.00,155.84 341.02,155.82 342.04,155.81 343.06,155.80 344.08,155.79 345.10,155.78 346.12,155.77 347.13,155.76 348.15,155.75 349.17,155.74 350.19,155.73 351.21,155.72 352.23,155.70 353.25,155.69 354.27,155.68 355.29,155.67 356.31,155.66 357.33,155.65 358.35,155.64 359.37,155.63 360.38,155.62 361.40,155.61 362.42,155.60 363.44,155.59 364.46,155.58 365.48,155.57 366.50,155.56 367.52,155.56 368.54,155.55 369.56,155.54 370.58,155.53 371.60,155.52 372.62,155.51 373.63,155.50 374.65,155.49 375.67,155.48 376.69,155.47 377.71,155.46 378.73,155.45 379.75,155.44 380.77,155.44 381.79,155.43 382.81,155.42 383.83,155.41 384.85,155.40 385.87,155.39 386.88,155.38 387.90,155.38 388.92,155.37 389.94,155.36 390.96,155.35 391.98,155.34 393.00,155.33 394.02,155.33 395.04,155.32 396.06,155.31 397.08,155.30 398.10,155.29 399.12,155.29 400.13,155.28 401.15,155.27 402.17,155.26 403.19,155.25 404.21,155.25 405.23,155.24 406.25,155.23 407.27,155.22 408.29,155.22 409.31,155.21 410.33,155.20 411.35,155.19 412.37,155.19 413.38,155.18 414.40,155.17 415.42,155.16 416.44,155.16 417.46,155.15 418.48,155.14 419.50,155.14 420.52,155.13 421.54,155.12 422.56,155.12 423.58,155.11 424.60,155.10 425.62,155.10 426.63,155.09 427.65,155.08 428.67,155.08 429.69,155.07 430.71,155.06 431.73,155.06 432.75,155.05 433.77,155.04 434.79,155.04 435.81,155.03 436.83,155.02 437.85,155.02 438.87,155.01 439.88,155.01 440.90,155.00 441.92,154.99 442.94,154.99 443.96,154.98 444.98,154.97 446.00,154.97 447.02,154.96 448.04,154.96 449.06,154.95 450.08,154.95 451.10,154.94 452.12,154.93 453.13,154.93 454.15,154.92 455.17,154.92 456.19,154.91 457.21,154.91 458.23,154.90 459.25,154.90 460.27,154.89 461.29,154.88 462.31,154.88 463.33,154.87 464.35,154.87 465.37,154.86 466.38,154.86 467.40,154.85 468.42,154.85 469.44,154.84 470.46,154.84 471.48,154.83 472.50,154.83 473.52,154.82 474.54,154.82 475.56,154.81 476.58,154.81 477.60,154.80 478.62,154.80 479.63,154.79 480.65,154.79 481.67,154.78 482.69,154.78 483.71,154.78 484.73,154.77 485.75,154.77 486.77,154.76 487.79,154.76 488.81,154.75 489.83,154.75 490.85,154.74 491.87,154.74 492.88,154.74 493.90,154.73 494.92,154.73 495.94,154.72 496.96,154.72 497.98,154.71 499.00,154.71 500.02,154.71 501.04,154.70 502.06,154.70 503.08,154.69 504.10,154.69 505.12,154.69 506.13,154.68 507.15,154.68 508.17,154.67 509.19,154.67 510.21,154.67 511.23,154.66 512.25,154.66 513.27,154.65 514.29,154.65 515.31,154.65 516.33,154.64 517.35,154.64 518.37,154.64 519.38,154.63 520.40,154.63 521.42,154.63 522.44,154.62 523.46,154.62 524.48,154.62 525.50,154.61 526.52,154.61 527.54,154.61 528.56,154.60 529.58,154.60 530.60,154.60 531.62,154.59 532.63,154.59 533.65,154.59 534.67,154.58 535.69,154.58 536.71,154.58 537.73,154.57 538.75,154.57 539.77,154.57 540.79,154.56 541.81,154.56 542.83,154.56 543.85,154.56 544.87,154.55 545.88,154.55 546.90,154.55 547.92,154.54 548.94,154.54 549.96,154.54 550.98,154.54 552.00,154.53 553.02,154.53 554.04,154.53 555.06,154.52 556.08,154.52 557.10,154.52 558.12,154.52 559.13,154.51 560.15,154.51 561.17,154.51 562.19,154.51 563.21,154.50 564.23,154.50 565.25,154.50 566.27,154.50 567.29,154.49 568.31,154.49 569.33,154.49 570.35,154.49 571.37,154.48 572.38,154.48 573.40,154.48 574.42,154.48 575.44,154.47 576.46,154.47 577.48,154.47 578.50,154.47 579.52,154.47 580.54,154.46 581.56,154.46 582.58,154.46 583.60,154.46 584.62,154.45 585.63,154.45 586.65,154.45 587.67,154.45 588.69,154.45 589.71,154.44 590.73,154.44 591.75,154.44 592.77,154.44 593.79,154.44 594.81,154.43 595.83,154.43 596.85,154.43 597.87,154.43 598.88,154.43 599.90,154.43 600.92,154.42 601.94,154.42 602.96,154.42 603.98,154.42 605.00,154.42 606.02,154.41 607.04,154.41 608.06,154.41 609.08,154.41 610.10,154.41 611.12,154.41 612.13,154.40 613.15,154.40 614.17,154.40 615.19,154.40 616.21,154.40 617.23,154.40 618.25,154.39 619.27,154.39 620.29,154.39 621.31,154.39 622.33,154.39 623.35,154.39 624.37,154.39 625.38,154.38 626.40,154.38 627.42,154.38 628.44,154.38 629.46,154.38 630.48,154.38 631.50,154.38 632.52,154.37 633.54,154.37 634.56,154.37 635.58,154.37 636.60,154.37 637.62,154.37 638.63,154.37 639.65,154.36 640.67,154.36 641.69,154.36 642.71,154.36 643.73,154.36 644.75,154.36 645.77,154.36 646.79,154.36 647.81,154.35 648.83,154.35 649.85,154.35 650.87,154.35 651.88,154.35 652.90,154.35 653.92,154.35 654.94,154.35 655.96,154.35 656.98,154.34 658.00,154.34 659.02,154.34 660.04,154.34 661.06,154.34 662.08,154.34 663.10,154.34 664.12,154.34 665.13,154.34 666.15,154.34 667.17,154.33 668.19,154.33 669.21,154.33 670.23,154.33 671.25,154.33 672.27,154.33 673.29,154.33 674.31,154.33 675.33,154.33 676.35,154.33 677.37,154.33 678.38,154.32 679.40,154.32 680.42,154.32 681.44,154.32 682.46,154.32 683.48,154.32 684.50,154.32 685.52,154.32 686.54,154.32 687.56,154.32 688.58,154.32 689.60,154.32 690.62,154.31 691.63,154.31 692.65,154.31 693.67,154.31 694.69,154.31 695.71,154.31 696.73,154.31 697.75,154.31 698.77,154.31 699.79,154.31 700.81,154.31 701.83,154.31 702.85,154.31 703.87,154.31 704.88,154.30 705.90,154.30 706.92,154.30 707.94,154.30 708.96,154.30 709.98,154.30 711.00,154.30 712.02,154.30 713.04,154.30 714.06,154.30 715.08,154.30 716.10,154.30 717.12,154.30 718.13,154.30 719.15,154.30 720.17,154.30 721.19,154.30 722.21,154.30 723.23,154.29 724.25,154.29 725.27,154.29 726.29,154.29 727.31,154.29 728.33,154.29 729.35,154.29 730.37,154.29 731.38,154.29 732.40,154.29 733.42,154.29 734.44,154.29 735.46,154.29 736.48,154.29 737.50,154.29 738.52,154.29 739.54,154.29 740.56,154.29 741.58,154.29 742.60,154.29 743.62,154.29 744.63,154.29 745.65,154.28 746.67,154.28 747.69,154.28 748.71,154.28 749.73,154.28 750.75,154.28 751.77,154.28 752.79,154.28 753.81,154.28 754.83,154.28 755.85,154.28 756.87,154.28 757.88,154.28 758.90,154.28 759.92,154.28 760.94,154.28 761.96,154.28 762.98,154.28 764.00,154.28 765.02,154.28 766.04,154.28 767.06,154.28 768.08,154.28 769.10,154.28 770.12,154.28 771.13,154.28 772.15,154.28 773.17,154.28 774.19,154.28 775.21,154.28 776.23,154.28 777.25,154.28 778.27,154.28 779.29,154.28 780.31,154.27 781.33,154.27 782.35,154.27 783.37,154.27 784.38,154.27 785.40,154.27 786.42,154.27 787.44,154.27 788.46,154.27 789.48,154.27 790.50,154.27 791.52,154.27 792.54,154.27 793.56,154.27 794.58,154.27 795.60,154.27 796.62,154.27 797.63,154.27 798.65,154.27 799.67,154.27 800.69,154.27 801.71,154.27 802.73,154.27 803.75,154.27 804.77,154.27 805.79,154.27 806.81,154.27 807.83,154.27 808.85,154.27 809.87,154.27 810.88,154.27 811.90,154.27 812.92,154.27 813.94,154.27 814.96,154.27 815.98,154.27 817.00,154.27 818.02,154.27 819.04,154.27 820.06,154.27 821.08,154.27 822.10,154.27 823.12,154.27 824.13,154.27 825.15,154.27 826.17,154.27 827.19,154.27 828.21,154.27 829.23,154.27 830.25,154.27 831.27,154.27 832.29,154.27 833.31,154.27 834.33,154.27 835.35,154.27 836.37,154.27 837.38,154.27 838.40,154.27 839.42,154.27 840.44,154.27 841.46,154.27 842.48,154.27 843.50,154.27 844.52,154.27 845.54,154.27 846.56,154.27 847.58,154.27 848.60,154.27 849.62,154.27 850.63,154.27 851.65,154.27 852.67,154.27 853.69,154.27 854.71,154.27 855.73,154.27 856.75,154.27 857.77,154.27 858.79,154.27 859.81,154.27 860.83,154.27 861.85,154.27 862.87,154.27 863.88,154.27 864.90,154.27 865.92,154.27 866.94,154.27 867.96,154.27 868.98,154.27 870.00,154.27" fill="none" stroke="#dc2626" stroke-width="2"/>
  <circle cx="87.23" cy="197.94" r="5" fill="#dc2626"/>
  <text x="97.23" y="187.94" font-family="Arial" font-size="12">best test epoch 32</text>
  <text x="450.0" y="498" text-anchor="middle" font-family="Arial" font-size="14">Epoch</text>
  <text x="24" y="260.0" text-anchor="middle" font-family="Arial" font-size="14" transform="rotate(-90 24 260.0)">MSE Loss</text>
  <rect x="685" y="54" width="175" height="58" fill="white" stroke="#e5e7eb"/>
  <line x1="700" y1="77" x2="740" y2="77" stroke="#2563eb" stroke-width="3"/>
  <text x="750" y="82" font-family="Arial" font-size="13">train loss</text>
  <line x1="700" y1="100" x2="740" y2="100" stroke="#dc2626" stroke-width="3"/>
  <text x="750" y="105" font-family="Arial" font-size="13">test loss</text>
  <text x="75" y="474" text-anchor="middle" font-family="Arial" font-size="12">20</text>
  <text x="870" y="474" text-anchor="middle" font-family="Arial" font-size="12">800</text>
  <text x="65" y="49" text-anchor="end" font-family="Arial" font-size="12">0.08592</text>
  <text x="65" y="454" text-anchor="end" font-family="Arial" font-size="12">0</text>
</svg>
