<svg xmlns="http://www.w3.org/2000/svg" width="900" height="520" viewBox="0 0 900 520">
  <rect width="100%" height="100%" fill="white"/>
  <text x="450.0" y="24" text-anchor="middle" font-family="Arial" font-size="18">Overfitting Check: Train Loss vs Test Loss</text>
  <line x1="70" y1="455" x2="870" y2="455" stroke="#333"/>
  <line x1="70" y1="40" x2="70" y2="455" stroke="#333"/>
  <text x="450.0" y="500" text-anchor="middle" font-family="Arial" font-size="14">Epoch</text>
  <text x="22" y="260.0" text-anchor="middle" font-family="Arial" font-size="14" transform="rotate(-90 22 260.0)">MSE Loss</text>
  <polyline points="70.00,40.00 71.00,189.72 72.00,267.48 73.00,315.32 74.01,347.26 75.01,369.63 76.01,385.81 77.01,397.82 78.01,406.93 79.01,413.98 80.01,419.52 81.01,423.96 82.02,427.57 83.02,430.54 84.02,433.02 85.02,435.11 86.02,436.90 87.02,438.44 88.02,439.77 89.02,440.94 90.03,441.97 91.03,442.89 92.03,443.70 93.03,444.43 94.03,445.08 95.03,445.68 96.03,446.21 97.03,446.70 98.04,447.15 99.04,447.55 100.04,447.93 101.04,448.28 102.04,448.60 103.04,448.89 104.04,449.17 105.04,449.43 106.05,449.67 107.05,449.89 108.05,450.11 109.05,450.30 110.05,450.49 111.05,450.67 112.05,450.83 113.05,450.99 114.06,451.14 115.06,451.28 116.06,451.41 117.06,451.54 118.06,451.66 119.06,451.78 120.06,451.88 121.06,451.99 122.07,452.09 123.07,452.18 124.07,452.27 125.07,452.36 126.07,452.44 127.07,452.52 128.07,452.60 129.07,452.67 130.08,452.74 131.08,452.81 132.08,452.87 133.08,452.93 134.08,452.99 135.08,453.05 136.08,453.10 137.08,453.16 138.09,453.21 139.09,453.26 140.09,453.30 141.09,453.35 142.09,453.39 143.09,453.44 144.09,453.48 145.09,453.52 146.10,453.56 147.10,453.59 148.10,453.63 149.10,453.66 150.10,453.70 151.10,453.73 152.10,453.76 153.10,453.79 154.11,453.82 155.11,453.85 156.11,453.88 157.11,453.90 158.11,453.93 159.11,453.95 160.11,453.98 161.11,454.00 162.12,454.03 163.12,454.05 164.12,454.07 165.12,454.09 166.12,454.11 167.12,454.13 168.12,454.15 169.12,454.17 170.13,454.19 171.13,454.21 172.13,454.22 173.13,454.24 174.13,454.26 175.13,454.27 176.13,454.29 177.13,454.30 178.14,454.32 179.14,454.33 180.14,454.35 181.14,454.36 182.14,454.38 183.14,454.39 184.14,454.40 185.14,454.41 186.15,454.43 187.15,454.44 188.15,454.45 189.15,454.46 190.15,454.47 191.15,454.48 192.15,454.49 193.15,454.50 194.16,454.51 195.16,454.52 196.16,454.53 197.16,454.54 198.16,454.55 199.16,454.56 200.16,454.57 201.16,454.58 202.17,454.59 203.17,454.59 204.17,454.60 205.17,454.61 206.17,454.62 207.17,454.62 208.17,454.63 209.17,454.64 210.18,454.65 211.18,454.65 212.18,454.66 213.18,454.67 214.18,454.67 215.18,454.68 216.18,454.68 217.18,454.69 218.19,454.70 219.19,454.70 220.19,454.71 221.19,454.71 222.19,454.72 223.19,454.72 224.19,454.73 225.19,454.73 226.20,454.74 227.20,454.74 228.20,454.75 229.20,454.75 230.20,454.76 231.20,454.76 232.20,454.77 233.20,454.77 234.21,454.78 235.21,454.78 236.21,454.78 237.21,454.79 238.21,454.79 239.21,454.79 240.21,454.80 241.21,454.80 242.22,454.81 243.22,454.81 244.22,454.81 245.22,454.82 246.22,454.82 247.22,454.82 248.22,454.83 249.22,454.83 250.23,454.83 251.23,454.83 252.23,454.84 253.23,454.84 254.23,454.84 255.23,454.85 256.23,454.85 257.23,454.85 258.24,454.85 259.24,454.86 260.24,454.86 261.24,454.86 262.24,454.86 263.24,454.87 264.24,454.87 265.24,454.87 266.25,454.87 267.25,454.87 268.25,454.88 269.25,454.88 270.25,454.88 271.25,454.88 272.25,454.88 273.25,454.89 274.26,454.89 275.26,454.89 276.26,454.89 277.26,454.89 278.26,454.90 279.26,454.90 280.26,454.90 281.26,454.90 282.27,454.90 283.27,454.90 284.27,454.91 285.27,454.91 286.27,454.91 287.27,454.91 288.27,454.91 289.27,454.91 290.28,454.91 291.28,454.92 292.28,454.92 293.28,454.92 294.28,454.92 295.28,454.92 296.28,454.92 297.28,454.92 298.29,454.93 299.29,454.93 300.29,454.93 301.29,454.93 302.29,454.93 303.29,454.93 304.29,454.93 305.29,454.93 306.30,454.93 307.30,454.94 308.30,454.94 309.30,454.94 310.30,454.94 311.30,454.94 312.30,454.94 313.30,454.94 314.31,454.94 315.31,454.94 316.31,454.94 317.31,454.94 318.31,454.95 319.31,454.95 320.31,454.95 321.31,454.95 322.32,454.95 323.32,454.95 324.32,454.95 325.32,454.95 326.32,454.95 327.32,454.95 328.32,454.95 329.32,454.95 330.33,454.95 331.33,454.96 332.33,454.96 333.33,454.96 334.33,454.96 335.33,454.96 336.33,454.96 337.33,454.96 338.34,454.96 339.34,454.96 340.34,454.96 341.34,454.96 342.34,454.96 343.34,454.96 344.34,454.96 345.34,454.96 346.35,454.96 347.35,454.97 348.35,454.97 349.35,454.97 350.35,454.97 351.35,454.97 352.35,454.97 353.35,454.97 354.36,454.97 355.36,454.97 356.36,454.97 357.36,454.97 358.36,454.97 359.36,454.97 360.36,454.97 361.36,454.97 362.37,454.97 363.37,454.97 364.37,454.97 365.37,454.97 366.37,454.97 367.37,454.97 368.37,454.97 369.37,454.97 370.38,454.97 371.38,454.98 372.38,454.98 373.38,454.98 374.38,454.98 375.38,454.98 376.38,454.98 377.38,454.98 378.39,454.98 379.39,454.98 380.39,454.98 381.39,454.98 382.39,454.98 383.39,454.98 384.39,454.98 385.39,454.98 386.40,454.98 387.40,454.98 388.40,454.98 389.40,454.98 390.40,454.98 391.40,454.98 392.40,454.98 393.40,454.98 394.41,454.98 395.41,454.98 396.41,454.98 397.41,454.98 398.41,454.98 399.41,454.98 400.41,454.98 401.41,454.98 402.42,454.98 403.42,454.98 404.42,454.98 405.42,454.98 406.42,454.98 407.42,454.98 408.42,454.99 409.42,454.99 410.43,454.99 411.43,454.99 412.43,454.99 413.43,454.99 414.43,454.99 415.43,454.99 416.43,454.99 417.43,454.99 418.44,454.99 419.44,454.99 420.44,454.99 421.44,454.99 422.44,454.99 423.44,454.99 424.44,454.99 425.44,454.99 426.45,454.99 427.45,454.99 428.45,454.99 429.45,454.99 430.45,454.99 431.45,454.99 432.45,454.99 433.45,454.99 434.46,454.99 435.46,454.99 436.46,454.99 437.46,454.99 438.46,454.99 439.46,454.99 440.46,454.99 441.46,454.99 442.47,454.99 443.47,454.99 444.47,454.99 445.47,454.99 446.47,454.99 447.47,454.99 448.47,454.99 449.47,454.99 450.48,454.99 451.48,454.99 452.48,454.99 453.48,454.99 454.48,454.99 455.48,454.99 456.48,454.99 457.48,454.99 458.49,454.99 459.49,454.99 460.49,454.99 461.49,454.99 462.49,454.99 463.49,454.99 464.49,454.99 465.49,454.99 466.50,454.99 467.50,454.99 468.50,454.99 469.50,454.99 470.50,454.99 471.50,454.99 472.50,454.99 473.50,454.99 474.51,454.99 475.51,454.99 476.51,454.99 477.51,454.99 478.51,454.99 479.51,454.99 480.51,454.99 481.51,454.99 482.52,454.99 483.52,454.99 484.52,454.99 485.52,454.99 486.52,454.99 487.52,454.99 488.52,454.99 489.52,454.99 490.53,454.99 491.53,454.99 492.53,454.99 493.53,454.99 494.53,454.99 495.53,454.99 496.53,454.99 497.53,454.99 498.54,455.00 499.54,455.00 500.54,455.00 501.54,455.00 502.54,455.00 503.54,455.00 504.54,455.00 505.54,455.00 506.55,455.00 507.55,455.00 508.55,455.00 509.55,455.00 510.55,455.00 511.55,455.00 512.55,455.00 513.55,455.00 514.56,455.00 515.56,455.00 516.56,455.00 517.56,455.00 518.56,455.00 519.56,455.00 520.56,455.00 521.56,455.00 522.57,455.00 523.57,455.00 524.57,455.00 525.57,455.00 526.57,455.00 527.57,455.00 528.57,455.00 529.57,455.00 530.58,455.00 531.58,455.00 532.58,455.00 533.58,455.00 534.58,455.00 535.58,455.00 536.58,455.00 537.58,455.00 538.59,455.00 539.59,455.00 540.59,455.00 541.59,455.00 542.59,455.00 543.59,455.00 544.59,455.00 545.59,455.00 546.60,455.00 547.60,455.00 548.60,455.00 549.60,455.00 550.60,455.00 551.60,455.00 552.60,455.00 553.60,455.00 554.61,455.00 555.61,455.00 556.61,455.00 557.61,455.00 558.61,455.00 559.61,455.00 560.61,455.00 561.61,455.00 562.62,455.00 563.62,455.00 564.62,455.00 565.62,455.00 566.62,455.00 567.62,455.00 568.62,455.00 569.62,455.00 570.63,455.00 571.63,455.00 572.63,455.00 573.63,455.00 574.63,455.00 575.63,455.00 576.63,455.00 577.63,455.00 578.64,455.00 579.64,455.00 580.64,455.00 581.64,455.00 582.64,455.00 583.64,455.00 584.64,455.00 585.64,455.00 586.65,455.00 587.65,455.00 588.65,455.00 589.65,455.00 590.65,455.00 591.65,455.00 592.65,455.00 593.65,455.00 594.66,455.00 595.66,455.00 596.66,455.00 597.66,455.00 598.66,455.00 599.66,455.00 600.66,455.00 601.66,455.00 602.67,455.00 603.67,455.00 604.67,455.00 605.67,455.00 606.67,455.00 607.67,455.00 608.67,455.00 609.67,455.00 610.68,455.00 611.68,455.00 612.68,455.00 613.68,455.00 614.68,455.00 615.68,455.00 616.68,455.00 617.68,455.00 618.69,455.00 619.69,455.00 620.69,455.00 621.69,455.00 622.69,455.00 623.69,455.00 624.69,455.00 625.69,455.00 626.70,455.00 627.70,455.00 628.70,455.00 629.70,455.00 630.70,455.00 631.70,455.00 632.70,455.00 633.70,455.00 634.71,455.00 635.71,455.00 636.71,455.00 637.71,455.00 638.71,455.00 639.71,455.00 640.71,455.00 641.71,455.00 642.72,455.00 643.72,455.00 644.72,455.00 645.72,455.00 646.72,455.00 647.72,455.00 648.72,455.00 649.72,455.00 650.73,455.00 651.73,455.00 652.73,455.00 653.73,455.00 654.73,455.00 655.73,455.00 656.73,455.00 657.73,455.00 658.74,455.00 659.74,455.00 660.74,455.00 661.74,455.00 662.74,455.00 663.74,455.00 664.74,455.00 665.74,455.00 666.75,455.00 667.75,455.00 668.75,455.00 669.75,455.00 670.75,455.00 671.75,455.00 672.75,455.00 673.75,455.00 674.76,455.00 675.76,455.00 676.76,455.00 677.76,455.00 678.76,455.00 679.76,455.00 680.76,455.00 681.76,455.00 682.77,455.00 683.77,455.00 684.77,455.00 685.77,455.00 686.77,455.00 687.77,455.00 688.77,455.00 689.77,455.00 690.78,455.00 691.78,455.00 692.78,455.00 693.78,455.00 694.78,455.00 695.78,455.00 696.78,455.00 697.78,455.00 698.79,455.00 699.79,455.00 700.79,455.00 701.79,455.00 702.79,455.00 703.79,455.00 704.79,455.00 705.79,455.00 706.80,455.00 707.80,455.00 708.80,455.00 709.80,455.00 710.80,455.00 711.80,455.00 712.80,455.00 713.80,455.00 714.81,455.00 715.81,455.00 716.81,455.00 717.81,455.00 718.81,455.00 719.81,455.00 720.81,455.00 721.81,455.00 722.82,455.00 723.82,455.00 724.82,455.00 725.82,455.00 726.82,455.00 727.82,455.00 728.82,455.00 729.82,455.00 730.83,455.00 731.83,455.00 732.83,455.00 733.83,455.00 734.83,455.00 735.83,455.00 736.83,455.00 737.83,455.00 738.84,455.00 739.84,455.00 740.84,455.00 741.84,455.00 742.84,455.00 743.84,455.00 744.84,455.00 745.84,455.00 746.85,455.00 747.85,455.00 748.85,455.00 749.85,455.00 750.85,455.00 751.85,455.00 752.85,455.00 753.85,455.00 754.86,455.00 755.86,455.00 756.86,455.00 757.86,455.00 758.86,455.00 759.86,455.00 760.86,455.00 761.86,455.00 762.87,455.00 763.87,455.00 764.87,455.00 765.87,455.00 766.87,455.00 767.87,455.00 768.87,455.00 769.87,455.00 770.88,455.00 771.88,455.00 772.88,455.00 773.88,455.00 774.88,455.00 775.88,455.00 776.88,455.00 777.88,455.00 778.89,455.00 779.89,455.00 780.89,455.00 781.89,455.00 782.89,455.00 783.89,455.00 784.89,455.00 785.89,455.00 786.90,455.00 787.90,455.00 788.90,455.00 789.90,455.00 790.90,455.00 791.90,455.00 792.90,455.00 793.90,455.00 794.91,455.00 795.91,455.00 796.91,455.00 797.91,455.00 798.91,455.00 799.91,455.00 800.91,455.00 801.91,455.00 802.92,455.00 803.92,455.00 804.92,455.00 805.92,455.00 806.92,455.00 807.92,455.00 808.92,455.00 809.92,455.00 810.93,455.00 811.93,455.00 812.93,455.00 813.93,455.00 814.93,455.00 815.93,455.00 816.93,455.00 817.93,455.00 818.94,455.00 819.94,455.00 820.94,455.00 821.94,455.00 822.94,455.00 823.94,455.00 824.94,455.00 825.94,455.00 826.95,455.00 827.95,455.00 828.95,455.00 829.95,455.00 830.95,455.00 831.95,455.00 832.95,455.00 833.95,455.00 834.96,455.00 835.96,455.00 836.96,455.00 837.96,455.00 838.96,455.00 839.96,455.00 840.96,455.00 841.96,455.00 842.97,455.00 843.97,455.00 844.97,455.00 845.97,455.00 846.97,455.00 847.97,455.00 848.97,455.00 849.97,455.00 850.98,455.00 851.98,455.00 852.98,455.00 853.98,455.00 854.98,455.00 855.98,455.00 856.98,455.00 857.98,455.00 858.99,455.00 859.99,455.00 860.99,455.00 861.99,455.00 862.99,455.00 863.99,455.00 864.99,455.00 865.99,455.00 867.00,455.00 868.00,455.00 869.00,455.00 870.00,455.00" fill="none" stroke="#2563eb" stroke-width="2"/>
  <polyline points="70.00,406.90 71.00,414.29 72.00,417.53 73.00,419.37 74.01,420.77 75.01,422.96 76.01,426.93 77.01,430.91 78.01,434.24 79.01,436.88 80.01,438.92 81.01,440.49 82.02,441.73 83.02,442.69 84.02,443.44 85.02,444.03 86.02,444.49 87.02,444.84 88.02,445.12 89.02,445.38 90.03,445.58 91.03,445.75 92.03,445.88 93.03,445.98 94.03,446.06 95.03,446.13 96.03,446.17 97.03,446.21 98.04,446.23 99.04,446.24 100.04,446.25 101.04,446.25 102.04,446.25 103.04,446.24 104.04,446.22 105.04,446.21 106.05,446.19 107.05,446.17 108.05,446.15 109.05,446.12 110.05,446.10 111.05,446.08 112.05,446.05 113.05,446.02 114.06,446.00 115.06,445.97 116.06,445.95 117.06,445.92 118.06,445.90 119.06,445.87 120.06,445.84 121.06,445.82 122.07,445.80 123.07,445.77 124.07,445.75 125.07,445.72 126.07,445.70 127.07,445.68 128.07,445.66 129.07,445.64 130.08,445.61 131.08,445.59 132.08,445.57 133.08,445.55 134.08,445.54 135.08,445.52 136.08,445.50 137.08,445.48 138.09,445.46 139.09,445.45 140.09,445.43 141.09,445.41 142.09,445.40 143.09,445.38 144.09,445.37 145.09,445.35 146.10,445.34 147.10,445.33 148.10,445.31 149.10,445.30 150.10,445.29 151.10,445.28 152.10,445.26 153.10,445.25 154.11,445.24 155.11,445.23 156.11,445.22 157.11,445.21 158.11,445.20 159.11,445.19 160.11,445.18 161.11,445.17 162.12,445.16 163.12,445.15 164.12,445.14 165.12,445.14 166.12,445.13 167.12,445.12 168.12,445.11 169.12,445.11 170.13,445.10 171.13,445.09 172.13,445.08 173.13,445.08 174.13,445.07 175.13,445.06 176.13,445.06 177.13,445.05 178.14,445.05 179.14,445.04 180.14,445.04 181.14,445.03 182.14,445.02 183.14,445.02 184.14,445.01 185.14,445.01 186.15,445.00 187.15,445.00 188.15,445.00 189.15,444.99 190.15,444.99 191.15,444.98 192.15,444.98 193.15,444.97 194.16,444.97 195.16,444.97 196.16,444.96 197.16,444.96 198.16,444.96 199.16,444.95 200.16,444.95 201.16,444.95 202.17,444.94 203.17,444.94 204.17,444.94 205.17,444.93 206.17,444.93 207.17,444.93 208.17,444.93 209.17,444.92 210.18,444.92 211.18,444.92 212.18,444.92 213.18,444.91 214.18,444.91 215.18,444.91 216.18,444.91 217.18,444.90 218.19,444.90 219.19,444.90 220.19,444.90 221.19,444.90 222.19,444.89 223.19,444.89 224.19,444.89 225.19,444.89 226.20,444.89 227.20,444.88 228.20,444.88 229.20,444.88 230.20,444.88 231.20,444.88 232.20,444.88 233.20,444.87 234.21,444.87 235.21,444.87 236.21,444.87 237.21,444.87 238.21,444.87 239.21,444.87 240.21,444.86 241.21,444.86 242.22,444.86 243.22,444.86 244.22,444.86 245.22,444.86 246.22,444.86 247.22,444.86 248.22,444.85 249.22,444.85 250.23,444.85 251.23,444.85 252.23,444.85 253.23,444.85 254.23,444.85 255.23,444.85 256.23,444.85 257.23,444.84 258.24,444.84 259.24,444.84 260.24,444.84 261.24,444.84 262.24,444.84 263.24,444.84 264.24,444.84 265.24,444.84 266.25,444.84 267.25,444.84 268.25,444.83 269.25,444.83 270.25,444.83 271.25,444.83 272.25,444.83 273.25,444.83 274.26,444.83 275.26,444.83 276.26,444.83 277.26,444.83 278.26,444.83 279.26,444.83 280.26,444.83 281.26,444.82 282.27,444.82 283.27,444.82 284.27,444.82 285.27,444.82 286.27,444.82 287.27,444.82 288.27,444.82 289.27,444.82 290.28,444.82 291.28,444.82 292.28,444.82 293.28,444.82 294.28,444.82 295.28,444.82 296.28,444.81 297.28,444.81 298.29,444.81 299.29,444.81 300.29,444.81 301.29,444.81 302.29,444.81 303.29,444.81 304.29,444.81 305.29,444.81 306.30,444.81 307.30,444.81 308.30,444.81 309.30,444.81 310.30,444.81 311.30,444.81 312.30,444.81 313.30,444.81 314.31,444.81 315.31,444.80 316.31,444.80 317.31,444.80 318.31,444.80 319.31,444.80 320.31,444.80 321.31,444.80 322.32,444.80 323.32,444.80 324.32,444.80 325.32,444.80 326.32,444.80 327.32,444.80 328.32,444.80 329.32,444.80 330.33,444.80 331.33,444.80 332.33,444.80 333.33,444.80 334.33,444.80 335.33,444.80 336.33,444.79 337.33,444.79 338.34,444.79 339.34,444.79 340.34,444.79 341.34,444.79 342.34,444.79 343.34,444.79 344.34,444.79 345.34,444.79 346.35,444.79 347.35,444.79 348.35,444.79 349.35,444.79 350.35,444.79 351.35,444.79 352.35,444.79 353.35,444.79 354.36,444.79 355.36,444.79 356.36,444.79 357.36,444.79 358.36,444.79 359.36,444.79 360.36,444.79 361.36,444.78 362.37,444.78 363.37,444.78 364.37,444.78 365.37,444.78 366.37,444.78 367.37,444.78 368.37,444.78 369.37,444.78 370.38,444.78 371.38,444.78 372.38,444.78 373.38,444.78 374.38,444.78 375.38,444.78 376.38,444.78 377.38,444.78 378.39,444.78 379.39,444.78 380.39,444.78 381.39,444.78 382.39,444.78 383.39,444.78 384.39,444.78 385.39,444.78 386.40,444.78 387.40,444.78 388.40,444.78 389.40,444.78 390.40,444.78 391.40,444.78 392.40,444.77 393.40,444.77 394.41,444.77 395.41,444.77 396.41,444.77 397.41,444.77 398.41,444.77 399.41,444.77 400.41,444.77 401.41,444.77 402.42,444.77 403.42,444.77 404.42,444.77 405.42,444.77 406.42,444.77 407.42,444.77 408.42,444.77 409.42,444.77 410.43,444.77 411.43,444.77 412.43,444.77 413.43,444.77 414.43,444.77 415.43,444.77 416.43,444.77 417.43,444.77 418.44,444.77 419.44,444.77 420.44,444.77 421.44,444.77 422.44,444.77 423.44,444.77 424.44,444.77 425.44,444.77 426.45,444.77 427.45,444.77 428.45,444.77 429.45,444.76 430.45,444.76 431.45,444.76 432.45,444.76 433.45,444.76 434.46,444.76 435.46,444.76 436.46,444.76 437.46,444.76 438.46,444.76 439.46,444.76 440.46,444.76 441.46,444.76 442.47,444.76 443.47,444.76 444.47,444.76 445.47,444.76 446.47,444.76 447.47,444.76 448.47,444.76 449.47,444.76 450.48,444.76 451.48,444.76 452.48,444.76 453.48,444.76 454.48,444.76 455.48,444.76 456.48,444.76 457.48,444.76 458.49,444.76 459.49,444.76 460.49,444.76 461.49,444.76 462.49,444.76 463.49,444.76 464.49,444.76 465.49,444.76 466.50,444.76 467.50,444.76 468.50,444.76 469.50,444.76 470.50,444.76 471.50,444.76 472.50,444.76 473.50,444.76 474.51,444.76 475.51,444.76 476.51,444.76 477.51,444.75 478.51,444.75 479.51,444.75 480.51,444.75 481.51,444.75 482.52,444.75 483.52,444.75 484.52,444.75 485.52,444.75 486.52,444.75 487.52,444.75 488.52,444.75 489.52,444.75 490.53,444.75 491.53,444.75 492.53,444.75 493.53,444.75 494.53,444.75 495.53,444.75 496.53,444.75 497.53,444.75 498.54,444.75 499.54,444.75 500.54,444.75 501.54,444.75 502.54,444.75 503.54,444.75 504.54,444.75 505.54,444.75 506.55,444.75 507.55,444.75 508.55,444.75 509.55,444.75 510.55,444.75 511.55,444.75 512.55,444.75 513.55,444.75 514.56,444.75 515.56,444.75 516.56,444.75 517.56,444.75 518.56,444.75 519.56,444.75 520.56,444.75 521.56,444.75 522.57,444.75 523.57,444.75 524.57,444.75 525.57,444.75 526.57,444.75 527.57,444.75 528.57,444.75 529.57,444.75 530.58,444.75 531.58,444.75 532.58,444.75 533.58,444.75 534.58,444.75 535.58,444.75 536.58,444.75 537.58,444.75 538.59,444.75 539.59,444.75 540.59,444.75 541.59,444.75 542.59,444.75 543.59,444.75 544.59,444.75 545.59,444.75 546.60,444.75 547.60,444.75 548.60,444.75 549.60,444.75 550.60,444.74 551.60,444.74 552.60,444.74 553.60,444.74 554.61,444.74 555.61,444.74 556.61,444.74 557.61,444.74 558.61,444.74 559.61,444.74 560.61,444.74 561.61,444.74 562.62,444.74 563.62,444.74 564.62,444.74 565.62,444.74 566.62,444.74 567.62,444.74 568.62,444.74 569.62,444.74 570.63,444.74 571.63,444.74 572.63,444.74 573.63,444.74 574.63,444.74 575.63,444.74 576.63,444.74 577.63,444.74 578.64,444.74 579.64,444.74 580.64,444.74 581.64,444.74 582.64,444.74 583.64,444.74 584.64,444.74 585.64,444.74 586.65,444.74 587.65,444.74 588.65,444.74 589.65,444.74 590.65,444.74 591.65,444.74 592.65,444.74 593.65,444.74 594.66,444.74 595.66,444.74 596.66,444.74 597.66,444.74 598.66,444.74 599.66,444.74 600.66,444.74 601.66,444.74 602.67,444.74 603.67,444.74 604.67,444.74 605.67,444.74 606.67,444.74 607.67,444.74 608.67,444.74 609.67,444.74 610.68,444.74 611.68,444.74 612.68,444.74 613.68,444.74 614.68,444.74 615.68,444.74 616.68,444.74 617.68,444.74 618.69,444.74 619.69,444.74 620.69,444.74 621.69,444.74 622.69,444.74 623.69,444.74 624.69,444.74 625.69,444.74 626.70,444.74 627.70,444.74 628.70,444.74 629.70,444.74 630.70,444.74 631.70,444.74 632.70,444.74 633.70,444.74 634.71,444.74 635.71,444.74 636.71,444.74 637.71,444.74 638.71,444.74 639.71,444.74 640.71,444.74 641.71,444.74 642.72,444.74 643.72,444.74 644.72,444.74 645.72,444.74 646.72,444.74 647.72,444.74 648.72,444.74 649.72,444.74 650.73,444.74 651.73,444.74 652.73,444.74 653.73,444.74 654.73,444.74 655.73,444.74 656.73,444.74 657.73,444.74 658.74,444.74 659.74,444.74 660.74,444.74 661.74,444.74 662.74,444.74 663.74,444.74 664.74,444.74 665.74,444.74 666.75,444.74 667.75,444.74 668.75,444.74 669.75,444.74 670.75,444.74 671.75,444.74 672.75,444.74 673.75,444.74 674.76,444.74 675.76,444.74 676.76,444.74 677.76,444.74 678.76,444.74 679.76,444.74 680.76,444.74 681.76,444.74 682.77,444.74 683.77,444.74 684.77,444.74 685.77,444.74 686.77,444.74 687.77,444.74 688.77,444.74 689.77,444.74 690.78,444.74 691.78,444.74 692.78,444.74 693.78,444.74 694.78,444.74 695.78,444.74 696.78,444.74 697.78,444.74 698.79,444.74 699.79,444.74 700.79,444.74 701.79,444.74 702.79,444.74 703.79,444.74 704.79,444.74 705.79,444.74 706.80,444.74 707.80,444.74 708.80,444.74 709.80,444.74 710.80,444.74 711.80,444.74 712.80,444.74 713.80,444.74 714.81,444.74 715.81,444.74 716.81,444.74 717.81,444.74 718.81,444.74 719.81,444.74 720.81,444.74 721.81,444.74 722.82,444.74 723.82,444.74 724.82,444.74 725.82,444.74 726.82,444.74 727.82,444.74 728.82,444.74 729.82,444.74 730.83,444.74 731.83,444.74 732.83,444.74 733.83,444.74 734.83,444.74 735.83,444.74 736.83,444.74 737.83,444.74 738.84,444.74 739.84,444.74 740.84,444.74 741.84,444.74 742.84,444.74 743.84,444.74 744.84,444.74 745.84,444.74 746.85,444.74 747.85,444.74 748.85,444.74 749.85,444.74 750.85,444.74 751.85,444.74 752.85,444.74 753.85,444.74 754.86,444.74 755.86,444.74 756.86,444.74 757.86,444.74 758.86,444.74 759.86,444.74 760.86,444.74 761.86,444.74 762.87,444.74 763.87,444.74 764.87,444.74 765.87,444.74 766.87,444.74 767.87,444.74 768.87,444.74 769.87,444.74 770.88,444.74 771.88,444.74 772.88,444.74 773.88,444.74 774.88,444.74 775.88,444.74 776.88,444.74 777.88,444.74 778.89,444.74 779.89,444.74 780.89,444.74 781.89,444.74 782.89,444.74 783.89,444.74 784.89,444.74 785.89,444.74 786.90,444.74 787.90,444.74 788.90,444.74 789.90,444.74 790.90,444.74 791.90,444.74 792.90,444.74 793.90,444.74 794.91,444.74 795.91,444.74 796.91,444.74 797.91,444.74 798.91,444.74 799.91,444.74 800.91,444.74 801.91,444.74 802.92,444.74 803.92,444.74 804.92,444.74 805.92,444.74 806.92,444.74 807.92,444.74 808.92,444.74 809.92,444.74 810.93,444.74 811.93,444.74 812.93,444.74 813.93,444.74 814.93,444.74 815.93,444.74 816.93,444.74 817.93,444.74 818.94,444.74 819.94,444.74 820.94,444.74 821.94,444.74 822.94,444.74 823.94,444.74 824.94,444.74 825.94,444.74 826.95,444.74 827.95,444.74 828.95,444.74 829.95,444.74 830.95,444.74 831.95,444.74 832.95,444.74 833.95,444.74 834.96,444.74 835.96,444.74 836.96,444.74 837.96,444.74 838.96,444.74 839.96,444.74 840.96,444.74 841.96,444.74 842.97,444.74 843.97,444.74 844.97,444.74 845.97,444.74 846.97,444.74 847.97,444.74 848.97,444.74 849.97,444.74 850.98,444.74 851.98,444.74 852.98,444.74 853.98,444.74 854.98,444.74 855.98,444.74 856.98,444.74 857.98,444.74 858.99,444.74 859.99,444.74 860.99,444.74 861.99,444.74 862.99,444.74 863.99,444.74 864.99,444.74 865.99,444.74 867.00,444.74 868.00,444.74 869.00,444.74 870.00,444.74" fill="none" stroke="#dc2626" stroke-width="2"/>
  <rect x="680" y="52" width="180" height="58" fill="white" stroke="#ddd"/>
  <line x1="695" y1="75" x2="735" y2="75" stroke="#2563eb" stroke-width="3"/>
  <text x="745" y="80" font-family="Arial" font-size="13">train loss</text>
  <line x1="695" y1="98" x2="735" y2="98" stroke="#dc2626" stroke-width="3"/>
  <text x="745" y="103" font-family="Arial" font-size="13">test loss</text>
  <text x="70" y="479" text-anchor="middle" font-family="Arial" font-size="12">1</text>
  <text x="870" y="479" text-anchor="middle" font-family="Arial" font-size="12">800</text>
  <text x="60" y="44" text-anchor="end" font-family="Arial" font-size="12">2.5364</text>
  <text x="60" y="459" text-anchor="end" font-family="Arial" font-size="12">0</text>
</svg>
