<svg xmlns="http://www.w3.org/2000/svg" width="900" height="520" viewBox="0 0 900 520">
  <rect width="100%" height="100%" fill="white"/>
  <text x="450.0" y="26" text-anchor="middle" font-family="Arial" font-size="18">Raw Loss Points after Warm-up (sampled every 10 epochs)</text>
  <line x1="75" y1="450" x2="870" y2="450" stroke="#334155"/>
  <line x1="75" y1="45" x2="75" y2="450" stroke="#334155"/>
  <circle cx="75.00" cy="45.00" r="2.2" fill="#2563eb"/>
<circle cx="75.00" cy="172.80" r="2.2" fill="#dc2626"/>
<circle cx="85.19" cy="235.49" r="2.2" fill="#2563eb"/>
<circle cx="85.19" cy="197.75" r="2.2" fill="#dc2626"/>
<circle cx="87.23" cy="256.29" r="2.2" fill="#2563eb"/>
<circle cx="87.23" cy="197.94" r="2.2" fill="#dc2626"/>
<circle cx="95.38" cy="314.70" r="2.2" fill="#2563eb"/>
<circle cx="95.38" cy="194.28" r="2.2" fill="#dc2626"/>
<circle cx="105.58" cy="357.09" r="2.2" fill="#2563eb"/>
<circle cx="105.58" cy="186.95" r="2.2" fill="#dc2626"/>
<circle cx="115.77" cy="382.88" r="2.2" fill="#2563eb"/>
<circle cx="115.77" cy="180.21" r="2.2" fill="#dc2626"/>
<circle cx="125.96" cy="399.78" r="2.2" fill="#2563eb"/>
<circle cx="125.96" cy="174.78" r="2.2" fill="#dc2626"/>
<circle cx="136.15" cy="411.47" r="2.2" fill="#2563eb"/>
<circle cx="136.15" cy="170.58" r="2.2" fill="#dc2626"/>
<circle cx="146.35" cy="419.87" r="2.2" fill="#2563eb"/>
<circle cx="146.35" cy="167.37" r="2.2" fill="#dc2626"/>
<circle cx="156.54" cy="426.10" r="2.2" fill="#2563eb"/>
<circle cx="156.54" cy="164.93" r="2.2" fill="#dc2626"/>
<circle cx="166.73" cy="430.82" r="2.2" fill="#2563eb"/>
<circle cx="166.73" cy="163.07" r="2.2" fill="#dc2626"/>
<circle cx="176.92" cy="434.48" r="2.2" fill="#2563eb"/>
<circle cx="176.92" cy="161.64" r="2.2" fill="#dc2626"/>
<circle cx="187.12" cy="437.34" r="2.2" fill="#2563eb"/>
<circle cx="187.12" cy="160.54" r="2.2" fill="#dc2626"/>
<circle cx="197.31" cy="439.61" r="2.2" fill="#2563eb"/>
<circle cx="197.31" cy="159.69" r="2.2" fill="#dc2626"/>
<circle cx="207.50" cy="441.43" r="2.2" fill="#2563eb"/>
<circle cx="207.50" cy="159.01" r="2.2" fill="#dc2626"/>
<circle cx="217.69" cy="442.89" r="2.2" fill="#2563eb"/>
<circle cx="217.69" cy="158.47" r="2.2" fill="#dc2626"/>
<circle cx="227.88" cy="444.09" r="2.2" fill="#2563eb"/>
<circle cx="227.88" cy="158.03" r="2.2" fill="#dc2626"/>
<circle cx="238.08" cy="445.06" r="2.2" fill="#2563eb"/>
<circle cx="238.08" cy="157.67" r="2.2" fill="#dc2626"/>
<circle cx="248.27" cy="445.86" r="2.2" fill="#2563eb"/>
<circle cx="248.27" cy="157.37" r="2.2" fill="#dc2626"/>
<circle cx="258.46" cy="446.51" r="2.2" fill="#2563eb"/>
<circle cx="258.46" cy="157.11" r="2.2" fill="#dc2626"/>
<circle cx="268.65" cy="447.06" r="2.2" fill="#2563eb"/>
<circle cx="268.65" cy="156.89" r="2.2" fill="#dc2626"/>
<circle cx="278.85" cy="447.51" r="2.2" fill="#2563eb"/>
<circle cx="278.85" cy="156.69" r="2.2" fill="#dc2626"/>
<circle cx="289.04" cy="447.88" r="2.2" fill="#2563eb"/>
<circle cx="289.04" cy="156.52" r="2.2" fill="#dc2626"/>
<circle cx="299.23" cy="448.20" r="2.2" fill="#2563eb"/>
<circle cx="299.23" cy="156.36" r="2.2" fill="#dc2626"/>
<circle cx="309.42" cy="448.46" r="2.2" fill="#2563eb"/>
<circle cx="309.42" cy="156.21" r="2.2" fill="#dc2626"/>
<circle cx="319.62" cy="448.68" r="2.2" fill="#2563eb"/>
<circle cx="319.62" cy="156.08" r="2.2" fill="#dc2626"/>
<circle cx="329.81" cy="448.86" r="2.2" fill="#2563eb"/>
<circle cx="329.81" cy="155.95" r="2.2" fill="#dc2626"/>
<circle cx="340.00" cy="449.02" r="2.2" fill="#2563eb"/>
<circle cx="340.00" cy="155.84" r="2.2" fill="#dc2626"/>
<circle cx="350.19" cy="449.15" r="2.2" fill="#2563eb"/>
<circle cx="350.19" cy="155.73" r="2.2" fill="#dc2626"/>
<circle cx="360.38" cy="449.27" r="2.2" fill="#2563eb"/>
<circle cx="360.38" cy="155.62" r="2.2" fill="#dc2626"/>
<circle cx="370.58" cy="449.36" r="2.2" fill="#2563eb"/>
<circle cx="370.58" cy="155.53" r="2.2" fill="#dc2626"/>
<circle cx="380.77" cy="449.45" r="2.2" fill="#2563eb"/>
<circle cx="380.77" cy="155.44" r="2.2" fill="#dc2626"/>
<circle cx="390.96" cy="449.52" r="2.2" fill="#2563eb"/>
<circle cx="390.96" cy="155.35" r="2.2" fill="#dc2626"/>
<circle cx="401.15" cy="449.58" r="2.2" fill="#2563eb"/>
<circle cx="401.15" cy="155.27" r="2.2" fill="#dc2626"/>
<circle cx="411.35" cy="449.63" r="2.2" fill="#2563eb"/>
<circle cx="411.35" cy="155.19" r="2.2" fill="#dc2626"/>
<circle cx="421.54" cy="449.67" r="2.2" fill="#2563eb"/>
<circle cx="421.54" cy="155.12" r="2.2" fill="#dc2626"/>
<circle cx="431.73" cy="449.71" r="2.2" fill="#2563eb"/>
<circle cx="431.73" cy="155.06" r="2.2" fill="#dc2626"/>
<circle cx="441.92" cy="449.74" r="2.2" fill="#2563eb"/>
<circle cx="441.92" cy="154.99" r="2.2" fill="#dc2626"/>
<circle cx="452.12" cy="449.77" r="2.2" fill="#2563eb"/>
<circle cx="452.12" cy="154.93" r="2.2" fill="#dc2626"/>
<circle cx="462.31" cy="449.80" r="2.2" fill="#2563eb"/>
<circle cx="462.31" cy="154.88" r="2.2" fill="#dc2626"/>
<circle cx="472.50" cy="449.82" r="2.2" fill="#2563eb"/>
<circle cx="472.50" cy="154.83" r="2.2" fill="#dc2626"/>
<circle cx="482.69" cy="449.84" r="2.2" fill="#2563eb"/>
<circle cx="482.69" cy="154.78" r="2.2" fill="#dc2626"/>
<circle cx="492.88" cy="449.86" r="2.2" fill="#2563eb"/>
<circle cx="492.88" cy="154.74" r="2.2" fill="#dc2626"/>
<circle cx="503.08" cy="449.87" r="2.2" fill="#2563eb"/>
<circle cx="503.08" cy="154.69" r="2.2" fill="#dc2626"/>
<circle cx="513.27" cy="449.89" r="2.2" fill="#2563eb"/>
<circle cx="513.27" cy="154.65" r="2.2" fill="#dc2626"/>
<circle cx="523.46" cy="449.90" r="2.2" fill="#2563eb"/>
<circle cx="523.46" cy="154.62" r="2.2" fill="#dc2626"/>
<circle cx="533.65" cy="449.91" r="2.2" fill="#2563eb"/>
<circle cx="533.65" cy="154.59" r="2.2" fill="#dc2626"/>
<circle cx="543.85" cy="449.92" r="2.2" fill="#2563eb"/>
<circle cx="543.85" cy="154.56" r="2.2" fill="#dc2626"/>
<circle cx="554.04" cy="449.92" r="2.2" fill="#2563eb"/>
<circle cx="554.04" cy="154.53" r="2.2" fill="#dc2626"/>
<circle cx="564.23" cy="449.93" r="2.2" fill="#2563eb"/>
<circle cx="564.23" cy="154.50" r="2.2" fill="#dc2626"/>
<circle cx="574.42" cy="449.94" r="2.2" fill="#2563eb"/>
<circle cx="574.42" cy="154.48" r="2.2" fill="#dc2626"/>
<circle cx="584.62" cy="449.94" r="2.2" fill="#2563eb"/>
<circle cx="584.62" cy="154.45" r="2.2" fill="#dc2626"/>
<circle cx="594.81" cy="449.95" r="2.2" fill="#2563eb"/>
<circle cx="594.81" cy="154.43" r="2.2" fill="#dc2626"/>
<circle cx="605.00" cy="449.95" r="2.2" fill="#2563eb"/>
<circle cx="605.00" cy="154.42" r="2.2" fill="#dc2626"/>
<circle cx="615.19" cy="449.96" r="2.2" fill="#2563eb"/>
<circle cx="615.19" cy="154.40" r="2.2" fill="#dc2626"/>
<circle cx="625.38" cy="449.96" r="2.2" fill="#2563eb"/>
<circle cx="625.38" cy="154.38" r="2.2" fill="#dc2626"/>
<circle cx="635.58" cy="449.97" r="2.2" fill="#2563eb"/>
<circle cx="635.58" cy="154.37" r="2.2" fill="#dc2626"/>
<circle cx="645.77" cy="449.97" r="2.2" fill="#2563eb"/>
<circle cx="645.77" cy="154.36" r="2.2" fill="#dc2626"/>
<circle cx="655.96" cy="449.97" r="2.2" fill="#2563eb"/>
<circle cx="655.96" cy="154.35" r="2.2" fill="#dc2626"/>
<circle cx="666.15" cy="449.97" r="2.2" fill="#2563eb"/>
<circle cx="666.15" cy="154.34" r="2.2" fill="#dc2626"/>
<circle cx="676.35" cy="449.98" r="2.2" fill="#2563eb"/>
<circle cx="676.35" cy="154.33" r="2.2" fill="#dc2626"/>
<circle cx="686.54" cy="449.98" r="2.2" fill="#2563eb"/>
<circle cx="686.54" cy="154.32" r="2.2" fill="#dc2626"/>
<circle cx="696.73" cy="449.98" r="2.2" fill="#2563eb"/>
<circle cx="696.73" cy="154.31" r="2.2" fill="#dc2626"/>
<circle cx="706.92" cy="449.98" r="2.2" fill="#2563eb"/>
<circle cx="706.92" cy="154.30" r="2.2" fill="#dc2626"/>
<circle cx="717.12" cy="449.98" r="2.2" fill="#2563eb"/>
<circle cx="717.12" cy="154.30" r="2.2" fill="#dc2626"/>
<circle cx="727.31" cy="449.98" r="2.2" fill="#2563eb"/>
<circle cx="727.31" cy="154.29" r="2.2" fill="#dc2626"/>
<circle cx="737.50" cy="449.99" r="2.2" fill="#2563eb"/>
<circle cx="737.50" cy="154.29" r="2.2" fill="#dc2626"/>
<circle cx="747.69" cy="449.99" r="2.2" fill="#2563eb"/>
<circle cx="747.69" cy="154.28" r="2.2" fill="#dc2626"/>
<circle cx="757.88" cy="449.99" r="2.2" fill="#2563eb"/>
<circle cx="757.88" cy="154.28" r="2.2" fill="#dc2626"/>
<circle cx="768.08" cy="449.99" r="2.2" fill="#2563eb"/>
<circle cx="768.08" cy="154.28" r="2.2" fill="#dc2626"/>
<circle cx="778.27" cy="449.99" r="2.2" fill="#2563eb"/>
<circle cx="778.27" cy="154.28" r="2.2" fill="#dc2626"/>
<circle cx="788.46" cy="449.99" r="2.2" fill="#2563eb"/>
<circle cx="788.46" cy="154.27" r="2.2" fill="#dc2626"/>
<circle cx="798.65" cy="449.99" r="2.2" fill="#2563eb"/>
<circle cx="798.65" cy="154.27" r="2.2" fill="#dc2626"/>
<circle cx="808.85" cy="449.99" r="2.2" fill="#2563eb"/>
<circle cx="808.85" cy="154.27" r="2.2" fill="#dc2626"/>
<circle cx="819.04" cy="449.99" r="2.2" fill="#2563eb"/>
<circle cx="819.04" cy="154.27" r="2.2" fill="#dc2626"/>
<circle cx="829.23" cy="449.99" r="2.2" fill="#2563eb"/>
<circle cx="829.23" cy="154.27" r="2.2" fill="#dc2626"/>
<circle cx="839.42" cy="449.99" r="2.2" fill="#2563eb"/>
<circle cx="839.42" cy="154.27" r="2.2" fill="#dc2626"/>
<circle cx="849.62" cy="449.99" r="2.2" fill="#2563eb"/>
<circle cx="849.62" cy="154.27" r="2.2" fill="#dc2626"/>
<circle cx="859.81" cy="449.99" r="2.2" fill="#2563eb"/>
<circle cx="859.81" cy="154.27" r="2.2" fill="#dc2626"/>
<circle cx="870.00" cy="450.00" r="2.2" fill="#2563eb"/>
<circle cx="870.00" cy="154.27" r="2.2" fill="#dc2626"/>
  <text x="450.0" y="498" text-anchor="middle" font-family="Arial" font-size="14">Epoch</text>
  <text x="24" y="260.0" text-anchor="middle" font-family="Arial" font-size="14" transform="rotate(-90 24 260.0)">MSE Loss</text>
  <rect x="685" y="54" width="175" height="58" fill="white" stroke="#e5e7eb"/>
  <circle cx="705" cy="77" r="4" fill="#2563eb"/>
  <text x="720" y="82" font-family="Arial" font-size="13">train loss</text>
  <circle cx="705" cy="100" r="4" fill="#dc2626"/>
  <text x="720" y="105" font-family="Arial" font-size="13">test loss</text>
  <text x="65" y="49" text-anchor="end" font-family="Arial" font-size="12">0.0859</text>
  <text x="65" y="454" text-anchor="end" font-family="Arial" font-size="12">0</text>
</svg>
