<svg xmlns="http://www.w3.org/2000/svg" width="900" height="500" viewBox="0 0 900 500">
  <rect width="100%" height="100%" fill="white"/>
  <text x="450.0" y="28" text-anchor="middle" font-family="Arial" font-size="18">Content KNN: CV MSE by k</text>
  <line x1="80" y1="430" x2="865" y2="430" stroke="#334155"/>
  <line x1="80" y1="45" x2="80" y2="430" stroke="#334155"/>
  <polyline points="80.00,45.00 192.14,319.11 304.29,377.92 416.43,414.20 528.57,421.74 640.71,428.68 752.86,430.00 865.00,426.07" fill="none" stroke="#2563eb" stroke-width="2"/>
  <circle cx="752.86" cy="430.00" r="5" fill="#dc2626"/>
  <text x="762.86" y="420.00" font-family="Arial" font-size="12">best k=20</text>
  <text x="80.00" y="462" text-anchor="middle" font-family="Arial" font-size="11">1</text>
<text x="192.14" y="462" text-anchor="middle" font-family="Arial" font-size="11">3</text>
<text x="304.29" y="462" text-anchor="middle" font-family="Arial" font-size="11">5</text>
<text x="416.43" y="462" text-anchor="middle" font-family="Arial" font-size="11">7</text>
<text x="528.57" y="462" text-anchor="middle" font-family="Arial" font-size="11">10</text>
<text x="640.71" y="462" text-anchor="middle" font-family="Arial" font-size="11">15</text>
<text x="752.86" y="462" text-anchor="middle" font-family="Arial" font-size="11">20</text>
<text x="865.00" y="462" text-anchor="middle" font-family="Arial" font-size="11">30</text>
  <text x="450.0" y="482" text-anchor="middle" font-family="Arial" font-size="13">k</text>
  <text x="24" y="250.0" text-anchor="middle" font-family="Arial" font-size="14" transform="rotate(-90 24 250.0)">Mean CV MSE</text>
  <text x="70" y="49" text-anchor="end" font-family="Arial" font-size="12">0.0090</text>
  <text x="70" y="434" text-anchor="end" font-family="Arial" font-size="12">0.0042</text>
</svg>
