<svg xmlns="http://www.w3.org/2000/svg" width="900" height="520" viewBox="0 0 900 520">
  <rect width="100%" height="100%" fill="white"/>
  <text x="450.0" y="28" text-anchor="middle" font-family="Arial" font-size="18">Content KNN Diagnostics: Number of Neighbors</text>
  <line x1="80" y1="445" x2="865" y2="445" stroke="#334155"/>
  <line x1="80" y1="45" x2="80" y2="445" stroke="#334155"/>
  <polyline points="80.00,45.00 97.84,155.93 115.68,185.85 151.36,220.76 187.05,229.95 240.57,237.68 329.77,241.61 418.98,244.29 597.39,246.40 865.00,245.26" fill="none" stroke="#2563eb" stroke-width="2"/>
  <polyline points="80.00,129.83 97.84,175.08 115.68,238.27 151.36,285.02 187.05,297.96 240.57,300.08 329.77,300.83 418.98,297.12 597.39,295.51 865.00,299.54" fill="none" stroke="#dc2626" stroke-width="2"/>
  <circle cx="329.77" cy="300.83" r="5" fill="#dc2626"/>
  <text x="339.77" y="290.83" font-family="Arial" font-size="12">best test k=15</text>
  <text x="450.0" y="496" text-anchor="middle" font-family="Arial" font-size="14">k</text>
  <text x="24" y="260.0" text-anchor="middle" font-family="Arial" font-size="14" transform="rotate(-90 24 260.0)">MSE</text>
  <rect x="690" y="55" width="170" height="58" fill="white" stroke="#e5e7eb"/>
  <line x1="705" y1="78" x2="745" y2="78" stroke="#2563eb" stroke-width="3"/>
  <text x="755" y="83" font-family="Arial" font-size="13">train MSE</text>
  <line x1="705" y1="101" x2="745" y2="101" stroke="#dc2626" stroke-width="3"/>
  <text x="755" y="106" font-family="Arial" font-size="13">test MSE</text>
  <text x="70" y="49" text-anchor="end" font-family="Arial" font-size="12">0.0089</text>
  <text x="70" y="449" text-anchor="end" font-family="Arial" font-size="12">0</text>
</svg>
