<svg xmlns="http://www.w3.org/2000/svg" width="900" height="520" viewBox="0 0 900 520">
  <rect width="100%" height="100%" fill="white"/>
  <text x="450.0" y="26" text-anchor="middle" font-family="Arial" font-size="18">Train/Test Loss after Warm-up (epoch 20+)</text>
  <line x1="75" y1="450" x2="870" y2="450" stroke="#334155"/>
  <line x1="75" y1="45" x2="75" y2="450" stroke="#334155"/>
  <polyline points="75.00,45.00 76.02,58.29 77.04,70.32 78.06,81.29 79.08,91.35 80.10,100.63 81.12,109.23 82.13,117.25 83.15,124.74 84.17,131.78 85.19,138.41 86.21,144.68 87.23,150.63 88.25,156.29 89.27,161.68 90.29,166.82 91.31,171.75 92.33,176.47 93.35,181.01 94.37,185.38 95.38,189.58 96.40,193.63 97.42,197.55 98.44,201.33 99.46,205.00 100.48,208.55 101.50,211.98 102.52,215.32 103.54,218.56 104.56,221.71 105.58,224.77 106.60,227.75 107.62,230.64 108.63,233.47 109.65,236.22 110.67,238.90 111.69,241.52 112.71,244.07 113.73,246.56 114.75,248.99 115.77,251.37 116.79,253.70 117.81,255.97 118.83,258.19 119.85,260.37 120.87,262.50 121.88,264.58 122.90,266.62 123.92,268.62 124.94,270.58 125.96,272.50 126.98,274.38 128.00,276.23 129.02,278.04 130.04,279.81 131.06,281.56 132.08,283.27 133.10,284.94 134.12,286.59 135.13,288.21 136.15,289.80 137.17,291.36 138.19,292.89 139.21,294.40 140.23,295.88 141.25,297.34 142.27,298.77 143.29,300.17 144.31,301.56 145.33,302.92 146.35,304.26 147.37,305.58 148.38,306.87 149.40,308.15 150.42,309.40 151.44,310.64 152.46,311.86 153.48,313.05 154.50,314.23 155.52,315.39 156.54,316.54 157.56,317.67 158.58,318.78 159.60,319.87 160.62,320.95 161.63,322.01 162.65,323.05 163.67,324.09 164.69,325.10 165.71,326.10 166.73,327.09 167.75,328.07 168.77,329.03 169.79,329.98 170.81,330.91 171.83,331.83 172.85,332.74 173.87,333.64 174.88,334.52 175.90,335.39 176.92,336.26 177.94,337.11 178.96,337.94 179.98,338.77 181.00,339.59 182.02,340.40 183.04,341.19 184.06,341.98 185.08,342.75 186.10,343.52 187.12,344.28 188.13,345.02 189.15,345.76 190.17,346.49 191.19,347.21 192.21,347.92 193.23,348.62 194.25,349.32 195.27,350.00 196.29,350.68 197.31,351.35 198.33,352.01 199.35,352.66 200.37,353.31 201.38,353.95 202.40,354.58 203.42,355.20 204.44,355.82 205.46,356.43 206.48,357.03 207.50,357.63 208.52,358.21 209.54,358.80 210.56,359.37 211.58,359.94 212.60,360.50 213.62,361.06 214.63,361.61 215.65,362.16 216.67,362.69 217.69,363.23 218.71,363.75 219.73,364.28 220.75,364.79 221.77,365.30 222.79,365.81 223.81,366.31 224.83,366.80 225.85,367.29 226.87,367.77 227.88,368.25 228.90,368.73 229.92,369.20 230.94,369.66 231.96,370.12 232.98,370.58 234.00,371.03 235.02,371.47 236.04,371.91 237.06,372.35 238.08,372.78 239.10,373.21 240.12,373.64 241.13,374.06 242.15,374.47 243.17,374.88 244.19,375.29 245.21,375.69 246.23,376.09 247.25,376.49 248.27,376.88 249.29,377.27 250.31,377.66 251.33,378.04 252.35,378.42 253.37,378.79 254.38,379.16 255.40,379.53 256.42,379.89 257.44,380.25 258.46,380.61 259.48,380.96 260.50,381.31 261.52,381.66 262.54,382.01 263.56,382.35 264.58,382.69 265.60,383.02 266.62,383.35 267.63,383.68 268.65,384.01 269.67,384.33 270.69,384.65 271.71,384.97 272.73,385.29 273.75,385.60 274.77,385.91 275.79,386.22 276.81,386.52 277.83,386.82 278.85,387.12 279.87,387.42 280.88,387.71 281.90,388.00 282.92,388.29 283.94,388.58 284.96,388.86 285.98,389.15 287.00,389.43 288.02,389.70 289.04,389.98 290.06,390.25 291.08,390.52 292.10,390.79 293.12,391.06 294.13,391.32 295.15,391.58 296.17,391.84 297.19,392.10 298.21,392.36 299.23,392.61 300.25,392.86 301.27,393.11 302.29,393.36 303.31,393.60 304.33,393.85 305.35,394.09 306.37,394.33 307.38,394.57 308.40,394.80 309.42,395.04 310.44,395.27 311.46,395.50 312.48,395.73 313.50,395.96 314.52,396.19 315.54,396.41 316.56,396.63 317.58,396.85 318.60,397.07 319.62,397.29 320.63,397.51 321.65,397.72 322.67,397.93 323.69,398.14 324.71,398.35 325.73,398.56 326.75,398.77 327.77,398.97 328.79,399.18 329.81,399.38 330.83,399.58 331.85,399.78 332.87,399.98 333.88,400.17 334.90,400.37 335.92,400.56 336.94,400.75 337.96,400.94 338.98,401.13 340.00,401.32 341.02,401.51 342.04,401.69 343.06,401.88 344.08,402.06 345.10,402.24 346.12,402.42 347.13,402.60 348.15,402.78 349.17,402.96 350.19,403.13 351.21,403.31 352.23,403.48 353.25,403.65 354.27,403.82 355.29,403.99 356.31,404.16 357.33,404.33 358.35,404.50 359.37,404.66 360.38,404.83 361.40,404.99 362.42,405.15 363.44,405.31 364.46,405.47 365.48,405.63 366.50,405.79 367.52,405.95 368.54,406.10 369.56,406.26 370.58,406.41 371.60,406.57 372.62,406.72 373.63,406.87 374.65,407.02 375.67,407.17 376.69,407.32 377.71,407.46 378.73,407.61 379.75,407.75 380.77,407.90 381.79,408.04 382.81,408.19 383.83,408.33 384.85,408.47 385.87,408.61 386.88,408.75 387.90,408.89 388.92,409.02 389.94,409.16 390.96,409.30 391.98,409.43 393.00,409.57 394.02,409.70 395.04,409.83 396.06,409.96 397.08,410.09 398.10,410.22 399.12,410.35 400.13,410.48 401.15,410.61 402.17,410.74 403.19,410.86 404.21,410.99 405.23,411.12 406.25,411.24 407.27,411.36 408.29,411.49 409.31,411.61 410.33,411.73 411.35,411.85 412.37,411.97 413.38,412.09 414.40,412.21 415.42,412.33 416.44,412.44 417.46,412.56 418.48,412.68 419.50,412.79 420.52,412.91 421.54,413.02 422.56,413.13 423.58,413.25 424.60,413.36 425.62,413.47 426.63,413.58 427.65,413.69 428.67,413.80 429.69,413.91 430.71,414.02 431.73,414.13 432.75,414.23 433.77,414.34 434.79,414.45 435.81,414.55 436.83,414.66 437.85,414.76 438.87,414.87 439.88,414.97 440.90,415.07 441.92,415.17 442.94,415.28 443.96,415.38 444.98,415.48 446.00,415.58 447.02,415.68 448.04,415.78 449.06,415.87 450.08,415.97 451.10,416.07 452.12,416.17 453.13,416.26 454.15,416.36 455.17,416.45 456.19,416.55 457.21,416.64 458.23,416.74 459.25,416.83 460.27,416.92 461.29,417.02 462.31,417.11 463.33,417.20 464.35,417.29 465.37,417.38 466.38,417.47 467.40,417.56 468.42,417.65 469.44,417.74 470.46,417.83 471.48,417.92 472.50,418.00 473.52,418.09 474.54,418.18 475.56,418.26 476.58,418.35 477.60,418.44 478.62,418.52 479.63,418.61 480.65,418.69 481.67,418.77 482.69,418.86 483.71,418.94 484.73,419.02 485.75,419.10 486.77,419.19 487.79,419.27 488.81,419.35 489.83,419.43 490.85,419.51 491.87,419.59 492.88,419.67 493.90,419.75 494.92,419.83 495.94,419.90 496.96,419.98 497.98,420.06 499.00,420.14 500.02,420.21 501.04,420.29 502.06,420.37 503.08,420.44 504.10,420.52 505.12,420.59 506.13,420.67 507.15,420.74 508.17,420.82 509.19,420.89 510.21,420.96 511.23,421.04 512.25,421.11 513.27,421.18 514.29,421.25 515.31,421.32 516.33,421.40 517.35,421.47 518.37,421.54 519.38,421.61 520.40,421.68 521.42,421.75 522.44,421.82 523.46,421.89 524.48,421.95 525.50,422.02 526.52,422.09 527.54,422.16 528.56,422.23 529.58,422.29 530.60,422.36 531.62,422.43 532.63,422.49 533.65,422.56 534.67,422.63 535.69,422.69 536.71,422.76 537.73,422.82 538.75,422.89 539.77,422.95 540.79,423.01 541.81,423.08 542.83,423.14 543.85,423.21 544.87,423.27 545.88,423.33 546.90,423.39 547.92,423.46 548.94,423.52 549.96,423.58 550.98,423.64 552.00,423.70 553.02,423.76 554.04,423.82 555.06,423.88 556.08,423.94 557.10,424.00 558.12,424.06 559.13,424.12 560.15,424.18 561.17,424.24 562.19,424.30 563.21,424.36 564.23,424.42 565.25,424.47 566.27,424.53 567.29,424.59 568.31,424.65 569.33,424.70 570.35,424.76 571.37,424.82 572.38,424.87 573.40,424.93 574.42,424.99 575.44,425.04 576.46,425.10 577.48,425.15 578.50,425.21 579.52,425.26 580.54,425.32 581.56,425.37 582.58,425.42 583.60,425.48 584.62,425.53 585.63,425.59 586.65,425.64 587.67,425.69 588.69,425.74 589.71,425.80 590.73,425.85 591.75,425.90 592.77,425.95 593.79,426.00 594.81,426.06 595.83,426.11 596.85,426.16 597.87,426.21 598.88,426.26 599.90,426.31 600.92,426.36 601.94,426.41 602.96,426.46 603.98,426.51 605.00,426.56 606.02,426.61 607.04,426.66 608.06,426.71 609.08,426.76 610.10,426.81 611.12,426.85 612.13,426.90 613.15,426.95 614.17,427.00 615.19,427.05 616.21,427.09 617.23,427.14 618.25,427.19 619.27,427.24 620.29,427.28 621.31,427.33 622.33,427.38 623.35,427.42 624.37,427.47 625.38,427.51 626.40,427.56 627.42,427.60 628.44,427.65 629.46,427.70 630.48,427.74 631.50,427.79 632.52,427.83 633.54,427.87 634.56,427.92 635.58,427.96 636.60,428.01 637.62,428.05 638.63,428.10 639.65,428.14 640.67,428.18 641.69,428.23 642.71,428.27 643.73,428.31 644.75,428.35 645.77,428.40 646.79,428.44 647.81,428.48 648.83,428.52 649.85,428.57 650.87,428.61 651.88,428.65 652.90,428.69 653.92,428.73 654.94,428.77 655.96,428.82 656.98,428.86 658.00,428.90 659.02,428.94 660.04,428.98 661.06,429.02 662.08,429.06 663.10,429.10 664.12,429.14 665.13,429.18 666.15,429.22 667.17,429.26 668.19,429.30 669.21,429.34 670.23,429.38 671.25,429.42 672.27,429.46 673.29,429.49 674.31,429.53 675.33,429.57 676.35,429.61 677.37,429.65 678.38,429.69 679.40,429.72 680.42,429.76 681.44,429.80 682.46,429.84 683.48,429.87 684.50,429.91 685.52,429.95 686.54,429.99 687.56,430.02 688.58,430.06 689.60,430.10 690.62,430.13 691.63,430.17 692.65,430.21 693.67,430.24 694.69,430.28 695.71,430.31 696.73,430.35 697.75,430.39 698.77,430.42 699.79,430.46 700.81,430.49 701.83,430.53 702.85,430.56 703.87,430.60 704.88,430.63 705.90,430.67 706.92,430.70 707.94,430.74 708.96,430.77 709.98,430.81 711.00,430.84 712.02,430.87 713.04,430.91 714.06,430.94 715.08,430.98 716.10,431.01 717.12,431.04 718.13,431.08 719.15,431.11 720.17,431.14 721.19,431.18 722.21,431.21 723.23,431.24 724.25,431.28 725.27,431.31 726.29,431.34 727.31,431.37 728.33,431.41 729.35,431.44 730.37,431.47 731.38,431.50 732.40,431.53 733.42,431.57 734.44,431.60 735.46,431.63 736.48,431.66 737.50,431.69 738.52,431.72 739.54,431.75 740.56,431.79 741.58,431.82 742.60,431.85 743.62,431.88 744.63,431.91 745.65,431.94 746.67,431.97 747.69,432.00 748.71,432.03 749.73,432.06 750.75,432.09 751.77,432.12 752.79,432.15 753.81,432.18 754.83,432.21 755.85,432.24 756.87,432.27 757.88,432.30 758.90,432.33 759.92,432.36 760.94,432.39 761.96,432.42 762.98,432.45 764.00,432.48 765.02,432.51 766.04,432.53 767.06,432.56 768.08,432.59 769.10,432.62 770.12,432.65 771.13,432.68 772.15,432.71 773.17,432.73 774.19,432.76 775.21,432.79 776.23,432.82 777.25,432.85 778.27,432.87 779.29,432.90 780.31,432.93 781.33,432.96 782.35,432.98 783.37,433.01 784.38,433.04 785.40,433.07 786.42,433.09 787.44,433.12 788.46,433.15 789.48,433.17 790.50,433.20 791.52,433.23 792.54,433.25 793.56,433.28 794.58,433.31 795.60,433.33 796.62,433.36 797.63,433.39 798.65,433.41 799.67,433.44 800.69,433.46 801.71,433.49 802.73,433.52 803.75,433.54 804.77,433.57 805.79,433.59 806.81,433.62 807.83,433.64 808.85,433.67 809.87,433.69 810.88,433.72 811.90,433.75 812.92,433.77 813.94,433.80 814.96,433.82 815.98,433.85 817.00,433.87 818.02,433.90 819.04,433.92 820.06,433.94 821.08,433.97 822.10,433.99 823.12,434.02 824.13,434.04 825.15,434.07 826.17,434.09 827.19,434.11 828.21,434.14 829.23,434.16 830.25,434.19 831.27,434.21 832.29,434.23 833.31,434.26 834.33,434.28 835.35,434.31 836.37,434.33 837.38,434.35 838.40,434.38 839.42,434.40 840.44,434.42 841.46,434.45 842.48,434.47 843.50,434.49 844.52,434.51 845.54,434.54 846.56,434.56 847.58,434.58 848.60,434.61 849.62,434.63 850.63,434.65 851.65,434.67 852.67,434.70 853.69,434.72 854.71,434.74 855.73,434.76 856.75,434.79 857.77,434.81 858.79,434.83 859.81,434.85 860.83,434.87 861.85,434.90 862.87,434.92 863.88,434.94 864.90,434.96 865.92,434.98 866.94,435.00 867.96,435.03 868.98,435.05 870.00,435.07" fill="none" stroke="#2563eb" stroke-width="2"/>
  <polyline points="75.00,238.95 76.02,245.13 77.04,250.44 78.06,255.04 79.08,259.42 80.10,263.48 81.12,267.12 82.13,270.38 83.15,273.29 84.17,275.89 85.19,278.24 86.21,280.41 87.23,282.38 88.25,284.18 89.27,285.85 90.29,287.38 91.31,288.79 92.33,290.11 93.35,291.44 94.37,292.68 95.38,293.84 96.40,294.94 97.42,295.99 98.44,297.15 99.46,298.25 100.48,299.30 101.50,300.29 102.52,301.24 103.54,302.15 104.56,303.02 105.58,303.89 106.60,304.86 107.62,305.78 108.63,306.68 109.65,307.54 110.67,308.38 111.69,309.19 112.71,309.98 113.73,310.74 114.75,311.49 115.77,312.21 116.79,312.91 117.81,313.60 118.83,314.26 119.85,314.92 120.87,315.56 121.88,316.20 122.90,316.82 123.92,317.42 124.94,318.01 125.96,318.59 126.98,319.16 128.00,319.72 129.02,320.26 130.04,320.80 131.06,321.33 132.08,321.85 133.10,322.36 134.12,322.86 135.13,323.36 136.15,323.84 137.17,324.32 138.19,324.79 139.21,325.25 140.23,325.71 141.25,326.16 142.27,326.60 143.29,327.04 144.31,327.48 145.33,327.92 146.35,328.36 147.37,328.79 148.38,329.21 149.40,329.63 150.42,330.04 151.44,330.45 152.46,330.96 153.48,331.46 154.50,331.95 155.52,332.43 156.54,332.91 157.56,333.41 158.58,333.90 159.60,334.38 160.62,334.85 161.63,335.32 162.65,335.80 163.67,336.28 164.69,336.74 165.71,337.21 166.73,337.66 167.75,338.11 168.77,338.56 169.79,339.00 170.81,339.43 171.83,339.86 172.85,340.28 173.87,340.70 174.88,341.12 175.90,341.52 176.92,341.93 177.94,342.33 178.96,342.72 179.98,343.11 181.00,343.49 182.02,343.87 183.04,344.25 184.06,344.62 185.08,344.99 186.10,345.35 187.12,345.71 188.13,346.07 189.15,346.42 190.17,346.76 191.19,347.11 192.21,347.45 193.23,347.78 194.25,348.11 195.27,348.44 196.29,348.77 197.31,349.09 198.33,349.41 199.35,349.72 200.37,350.03 201.38,350.34 202.40,350.65 203.42,350.95 204.44,351.25 205.46,351.55 206.48,351.84 207.50,352.13 208.52,352.42 209.54,352.70 210.56,352.98 211.58,353.26 212.60,353.54 213.62,353.81 214.63,354.08 215.65,354.35 216.67,354.61 217.69,354.87 218.71,355.13 219.73,355.39 220.75,355.65 221.77,355.90 222.79,356.15 223.81,356.40 224.83,356.64 225.85,356.89 226.87,357.13 227.88,357.38 228.90,357.62 229.92,357.86 230.94,358.10 231.96,358.33 232.98,358.57 234.00,358.80 235.02,359.03 236.04,359.26 237.06,359.49 238.08,359.71 239.10,359.93 240.12,360.15 241.13,360.38 242.15,360.59 243.17,360.81 244.19,361.02 245.21,361.24 246.23,361.45 247.25,361.66 248.27,361.87 249.29,362.07 250.31,362.27 251.33,362.48 252.35,362.68 253.37,362.88 254.38,363.07 255.40,363.27 256.42,363.46 257.44,363.66 258.46,363.85 259.48,364.04 260.50,364.22 261.52,364.41 262.54,364.59 263.56,364.78 264.58,364.96 265.60,365.14 266.62,365.32 267.63,365.50 268.65,365.67 269.67,365.85 270.69,366.02 271.71,366.21 272.73,366.39 273.75,366.57 274.77,366.75 275.79,366.92 276.81,367.10 277.83,367.28 278.85,367.45 279.87,367.62 280.88,367.79 281.90,367.96 282.92,368.13 283.94,368.30 284.96,368.47 285.98,368.63 287.00,368.80 288.02,368.96 289.04,369.12 290.06,369.29 291.08,369.45 292.10,369.61 293.12,369.76 294.13,369.92 295.15,370.08 296.17,370.24 297.19,370.40 298.21,370.55 299.23,370.71 300.25,370.86 301.27,371.02 302.29,371.17 303.31,371.32 304.33,371.47 305.35,371.62 306.37,371.77 307.38,371.91 308.40,372.06 309.42,372.20 310.44,372.35 311.46,372.49 312.48,372.64 313.50,372.78 314.52,372.92 315.54,373.06 316.56,373.20 317.58,373.34 318.60,373.47 319.62,373.61 320.63,373.75 321.65,373.88 322.67,374.02 323.69,374.16 324.71,374.30 325.73,374.45 326.75,374.59 327.77,374.73 328.79,374.87 329.81,375.01 330.83,375.15 331.85,375.28 332.87,375.42 333.88,375.55 334.90,375.69 335.92,375.82 336.94,375.96 337.96,376.10 338.98,376.24 340.00,376.39 341.02,376.53 342.04,376.68 343.06,376.82 344.08,376.96 345.10,377.10 346.12,377.24 347.13,377.38 348.15,377.52 349.17,377.66 350.19,377.80 351.21,377.93 352.23,378.07 353.25,378.20 354.27,378.34 355.29,378.48 356.31,378.61 357.33,378.75 358.35,378.88 359.37,379.02 360.38,379.15 361.40,379.28 362.42,379.41 363.44,379.54 364.46,379.67 365.48,379.80 366.50,379.93 367.52,380.06 368.54,380.18 369.56,380.31 370.58,380.44 371.60,380.56 372.62,380.69 373.63,380.81 374.65,380.93 375.67,381.06 376.69,381.18 377.71,381.31 378.73,381.43 379.75,381.56 380.77,381.68 381.79,381.80 382.81,381.93 383.83,382.05 384.85,382.17 385.87,382.29 386.88,382.41 387.90,382.53 388.92,382.65 389.94,382.77 390.96,382.88 391.98,383.00 393.00,383.12 394.02,383.24 395.04,383.35 396.06,383.47 397.08,383.58 398.10,383.70 399.12,383.81 400.13,383.93 401.15,384.04 402.17,384.15 403.19,384.27 404.21,384.38 405.23,384.49 406.25,384.60 407.27,384.71 408.29,384.82 409.31,384.94 410.33,385.07 411.35,385.19 412.37,385.31 413.38,385.43 414.40,385.55 415.42,385.67 416.44,385.79 417.46,385.91 418.48,386.03 419.50,386.15 420.52,386.26 421.54,386.38 422.56,386.50 423.58,386.61 424.60,386.73 425.62,386.84 426.63,386.96 427.65,387.07 428.67,387.18 429.69,387.30 430.71,387.41 431.73,387.52 432.75,387.63 433.77,387.74 434.79,387.85 435.81,387.96 436.83,388.07 437.85,388.18 438.87,388.29 439.88,388.40 440.90,388.51 441.92,388.61 442.94,388.72 443.96,388.83 444.98,388.93 446.00,389.04 447.02,389.14 448.04,389.25 449.06,389.35 450.08,389.46 451.10,389.56 452.12,389.67 453.13,389.77 454.15,389.87 455.17,389.97 456.19,390.08 457.21,390.18 458.23,390.28 459.25,390.38 460.27,390.48 461.29,390.58 462.31,390.68 463.33,390.78 464.35,390.88 465.37,390.98 466.38,391.07 467.40,391.17 468.42,391.27 469.44,391.37 470.46,391.46 471.48,391.56 472.50,391.66 473.52,391.75 474.54,391.85 475.56,391.94 476.58,392.03 477.60,392.13 478.62,392.22 479.63,392.32 480.65,392.41 481.67,392.50 482.69,392.59 483.71,392.68 484.73,392.78 485.75,392.87 486.77,392.96 487.79,393.05 488.81,393.14 489.83,393.23 490.85,393.32 491.87,393.41 492.88,393.50 493.90,393.58 494.92,393.67 495.94,393.76 496.96,393.85 497.98,393.93 499.00,394.02 500.02,394.11 501.04,394.19 502.06,394.28 503.08,394.37 504.10,394.45 505.12,394.54 506.13,394.62 507.15,394.71 508.17,394.79 509.19,394.88 510.21,394.96 511.23,395.04 512.25,395.13 513.27,395.21 514.29,395.29 515.31,395.37 516.33,395.46 517.35,395.54 518.37,395.62 519.38,395.70 520.40,395.79 521.42,395.87 522.44,395.95 523.46,396.03 524.48,396.11 525.50,396.19 526.52,396.27 527.54,396.35 528.56,396.44 529.58,396.52 530.60,396.59 531.62,396.67 532.63,396.75 533.65,396.83 534.67,396.91 535.69,396.99 536.71,397.07 537.73,397.15 538.75,397.22 539.77,397.30 540.79,397.38 541.81,397.45 542.83,397.53 543.85,397.61 544.87,397.68 545.88,397.76 546.90,397.83 547.92,397.91 548.94,397.98 549.96,398.06 550.98,398.13 552.00,398.21 553.02,398.28 554.04,398.36 555.06,398.43 556.08,398.50 557.10,398.58 558.12,398.65 559.13,398.72 560.15,398.79 561.17,398.87 562.19,398.94 563.21,399.01 564.23,399.08 565.25,399.15 566.27,399.22 567.29,399.29 568.31,399.36 569.33,399.44 570.35,399.51 571.37,399.58 572.38,399.64 573.40,399.71 574.42,399.78 575.44,399.85 576.46,399.92 577.48,399.99 578.50,400.06 579.52,400.13 580.54,400.19 581.56,400.26 582.58,400.33 583.60,400.40 584.62,400.46 585.63,400.53 586.65,400.60 587.67,400.66 588.69,400.73 589.71,400.80 590.73,400.86 591.75,400.93 592.77,401.00 593.79,401.06 594.81,401.13 595.83,401.19 596.85,401.26 597.87,401.32 598.88,401.39 599.90,401.45 600.92,401.52 601.94,401.58 602.96,401.64 603.98,401.71 605.00,401.77 606.02,401.83 607.04,401.90 608.06,401.96 609.08,402.02 610.10,402.09 611.12,402.15 612.13,402.21 613.15,402.27 614.17,402.33 615.19,402.40 616.21,402.46 617.23,402.52 618.25,402.58 619.27,402.64 620.29,402.70 621.31,402.76 622.33,402.82 623.35,402.88 624.37,402.94 625.38,403.00 626.40,403.06 627.42,403.12 628.44,403.18 629.46,403.24 630.48,403.30 631.50,403.36 632.52,403.42 633.54,403.48 634.56,403.53 635.58,403.59 636.60,403.65 637.62,403.71 638.63,403.77 639.65,403.82 640.67,403.88 641.69,403.94 642.71,403.99 643.73,404.05 644.75,404.11 645.77,404.17 646.79,404.22 647.81,404.28 648.83,404.33 649.85,404.39 650.87,404.45 651.88,404.50 652.90,404.56 653.92,404.61 654.94,404.67 655.96,404.72 656.98,404.78 658.00,404.83 659.02,404.89 660.04,404.94 661.06,405.00 662.08,405.05 663.10,405.10 664.12,405.16 665.13,405.21 666.15,405.27 667.17,405.32 668.19,405.37 669.21,405.42 670.23,405.48 671.25,405.53 672.27,405.58 673.29,405.64 674.31,405.69 675.33,405.74 676.35,405.79 677.37,405.85 678.38,405.90 679.40,405.95 680.42,406.00 681.44,406.05 682.46,406.10 683.48,406.15 684.50,406.21 685.52,406.26 686.54,406.31 687.56,406.36 688.58,406.41 689.60,406.46 690.62,406.51 691.63,406.56 692.65,406.61 693.67,406.66 694.69,406.71 695.71,406.76 696.73,406.81 697.75,406.86 698.77,406.91 699.79,406.96 700.81,407.00 701.83,407.05 702.85,407.10 703.87,407.15 704.88,407.20 705.90,407.25 706.92,407.30 707.94,407.34 708.96,407.39 709.98,407.44 711.00,407.49 712.02,407.54 713.04,407.58 714.06,407.63 715.08,407.68 716.10,407.73 717.12,407.77 718.13,407.82 719.15,407.87 720.17,407.91 721.19,407.96 722.21,408.01 723.23,408.05 724.25,408.10 725.27,408.14 726.29,408.19 727.31,408.24 728.33,408.28 729.35,408.33 730.37,408.37 731.38,408.42 732.40,408.46 733.42,408.51 734.44,408.55 735.46,408.60 736.48,408.64 737.50,408.69 738.52,408.73 739.54,408.78 740.56,408.82 741.58,408.87 742.60,408.91 743.62,408.96 744.63,409.00 745.65,409.04 746.67,409.09 747.69,409.13 748.71,409.18 749.73,409.22 750.75,409.27 751.77,409.31 752.79,409.36 753.81,409.40 754.83,409.45 755.85,409.49 756.87,409.54 757.88,409.58 758.90,409.63 759.92,409.67 760.94,409.72 761.96,409.76 762.98,409.81 764.00,409.85 765.02,409.89 766.04,409.94 767.06,409.98 768.08,410.02 769.10,410.07 770.12,410.11 771.13,410.15 772.15,410.20 773.17,410.24 774.19,410.28 775.21,410.33 776.23,410.37 777.25,410.41 778.27,410.46 779.29,410.50 780.31,410.54 781.33,410.58 782.35,410.62 783.37,410.67 784.38,410.71 785.40,410.75 786.42,410.79 787.44,410.83 788.46,410.88 789.48,410.92 790.50,410.96 791.52,411.00 792.54,411.04 793.56,411.08 794.58,411.12 795.60,411.16 796.62,411.21 797.63,411.25 798.65,411.29 799.67,411.33 800.69,411.37 801.71,411.41 802.73,411.45 803.75,411.49 804.77,411.53 805.79,411.57 806.81,411.61 807.83,411.65 808.85,411.69 809.87,411.73 810.88,411.77 811.90,411.81 812.92,411.85 813.94,411.89 814.96,411.93 815.98,411.96 817.00,412.00 818.02,412.04 819.04,412.08 820.06,412.12 821.08,412.16 822.10,412.20 823.12,412.24 824.13,412.28 825.15,412.31 826.17,412.35 827.19,412.39 828.21,412.43 829.23,412.47 830.25,412.50 831.27,412.54 832.29,412.58 833.31,412.62 834.33,412.65 835.35,412.69 836.37,412.73 837.38,412.77 838.40,412.80 839.42,412.84 840.44,412.88 841.46,412.92 842.48,412.95 843.50,412.99 844.52,413.03 845.54,413.06 846.56,413.10 847.58,413.14 848.60,413.17 849.62,413.21 850.63,413.25 851.65,413.28 852.67,413.32 853.69,413.35 854.71,413.39 855.73,413.43 856.75,413.46 857.77,413.50 858.79,413.53 859.81,413.57 860.83,413.60 861.85,413.64 862.87,413.68 863.88,413.71 864.90,413.75 865.92,413.78 866.94,413.82 867.96,413.85 868.98,413.89 870.00,413.92" fill="none" stroke="#dc2626" stroke-width="2"/>
  <circle cx="870.00" cy="413.92" r="5" fill="#dc2626"/>
  <text x="880.00" y="403.92" font-family="Arial" font-size="12">best test epoch 800</text>
  <text x="450.0" y="498" text-anchor="middle" font-family="Arial" font-size="14">Epoch</text>
  <text x="24" y="260.0" text-anchor="middle" font-family="Arial" font-size="14" transform="rotate(-90 24 260.0)">MSE Loss</text>
  <rect x="685" y="54" width="175" height="58" fill="white" stroke="#e5e7eb"/>
  <line x1="700" y1="77" x2="740" y2="77" stroke="#2563eb" stroke-width="3"/>
  <text x="750" y="82" font-family="Arial" font-size="13">train loss</text>
  <line x1="700" y1="100" x2="740" y2="100" stroke="#dc2626" stroke-width="3"/>
  <text x="750" y="105" font-family="Arial" font-size="13">test loss</text>
  <text x="75" y="474" text-anchor="middle" font-family="Arial" font-size="12">20</text>
  <text x="870" y="474" text-anchor="middle" font-family="Arial" font-size="12">800</text>
  <text x="65" y="49" text-anchor="end" font-family="Arial" font-size="12">0.2356</text>
  <text x="65" y="454" text-anchor="end" font-family="Arial" font-size="12">0</text>
</svg>
