<svg xmlns="http://www.w3.org/2000/svg" width="900" height="520" viewBox="0 0 900 520">
  <rect width="100%" height="100%" fill="white"/>
  <text x="450.0" y="26" text-anchor="middle" font-family="Arial" font-size="18">Raw Loss Points after Warm-up (sampled every 10 epochs)</text>
  <line x1="75" y1="450" x2="870" y2="450" stroke="#334155"/>
  <line x1="75" y1="45" x2="75" y2="450" stroke="#334155"/>
  <circle cx="75.00" cy="45.00" r="2.2" fill="#2563eb"/>
<circle cx="75.00" cy="238.95" r="2.2" fill="#dc2626"/>
<circle cx="85.19" cy="138.41" r="2.2" fill="#2563eb"/>
<circle cx="85.19" cy="278.24" r="2.2" fill="#dc2626"/>
<circle cx="87.23" cy="150.63" r="2.2" fill="#2563eb"/>
<circle cx="87.23" cy="282.38" r="2.2" fill="#dc2626"/>
<circle cx="95.38" cy="189.58" r="2.2" fill="#2563eb"/>
<circle cx="95.38" cy="293.84" r="2.2" fill="#dc2626"/>
<circle cx="105.58" cy="224.77" r="2.2" fill="#2563eb"/>
<circle cx="105.58" cy="303.89" r="2.2" fill="#dc2626"/>
<circle cx="115.77" cy="251.37" r="2.2" fill="#2563eb"/>
<circle cx="115.77" cy="312.21" r="2.2" fill="#dc2626"/>
<circle cx="125.96" cy="272.50" r="2.2" fill="#2563eb"/>
<circle cx="125.96" cy="318.59" r="2.2" fill="#dc2626"/>
<circle cx="136.15" cy="289.80" r="2.2" fill="#2563eb"/>
<circle cx="136.15" cy="323.84" r="2.2" fill="#dc2626"/>
<circle cx="146.35" cy="304.26" r="2.2" fill="#2563eb"/>
<circle cx="146.35" cy="328.36" r="2.2" fill="#dc2626"/>
<circle cx="156.54" cy="316.54" r="2.2" fill="#2563eb"/>
<circle cx="156.54" cy="332.91" r="2.2" fill="#dc2626"/>
<circle cx="166.73" cy="327.09" r="2.2" fill="#2563eb"/>
<circle cx="166.73" cy="337.66" r="2.2" fill="#dc2626"/>
<circle cx="176.92" cy="336.26" r="2.2" fill="#2563eb"/>
<circle cx="176.92" cy="341.93" r="2.2" fill="#dc2626"/>
<circle cx="187.12" cy="344.28" r="2.2" fill="#2563eb"/>
<circle cx="187.12" cy="345.71" r="2.2" fill="#dc2626"/>
<circle cx="197.31" cy="351.35" r="2.2" fill="#2563eb"/>
<circle cx="197.31" cy="349.09" r="2.2" fill="#dc2626"/>
<circle cx="207.50" cy="357.63" r="2.2" fill="#2563eb"/>
<circle cx="207.50" cy="352.13" r="2.2" fill="#dc2626"/>
<circle cx="217.69" cy="363.23" r="2.2" fill="#2563eb"/>
<circle cx="217.69" cy="354.87" r="2.2" fill="#dc2626"/>
<circle cx="227.88" cy="368.25" r="2.2" fill="#2563eb"/>
<circle cx="227.88" cy="357.38" r="2.2" fill="#dc2626"/>
<circle cx="238.08" cy="372.78" r="2.2" fill="#2563eb"/>
<circle cx="238.08" cy="359.71" r="2.2" fill="#dc2626"/>
<circle cx="248.27" cy="376.88" r="2.2" fill="#2563eb"/>
<circle cx="248.27" cy="361.87" r="2.2" fill="#dc2626"/>
<circle cx="258.46" cy="380.61" r="2.2" fill="#2563eb"/>
<circle cx="258.46" cy="363.85" r="2.2" fill="#dc2626"/>
<circle cx="268.65" cy="384.01" r="2.2" fill="#2563eb"/>
<circle cx="268.65" cy="365.67" r="2.2" fill="#dc2626"/>
<circle cx="278.85" cy="387.12" r="2.2" fill="#2563eb"/>
<circle cx="278.85" cy="367.45" r="2.2" fill="#dc2626"/>
<circle cx="289.04" cy="389.98" r="2.2" fill="#2563eb"/>
<circle cx="289.04" cy="369.12" r="2.2" fill="#dc2626"/>
<circle cx="299.23" cy="392.61" r="2.2" fill="#2563eb"/>
<circle cx="299.23" cy="370.71" r="2.2" fill="#dc2626"/>
<circle cx="309.42" cy="395.04" r="2.2" fill="#2563eb"/>
<circle cx="309.42" cy="372.20" r="2.2" fill="#dc2626"/>
<circle cx="319.62" cy="397.29" r="2.2" fill="#2563eb"/>
<circle cx="319.62" cy="373.61" r="2.2" fill="#dc2626"/>
<circle cx="329.81" cy="399.38" r="2.2" fill="#2563eb"/>
<circle cx="329.81" cy="375.01" r="2.2" fill="#dc2626"/>
<circle cx="340.00" cy="401.32" r="2.2" fill="#2563eb"/>
<circle cx="340.00" cy="376.39" r="2.2" fill="#dc2626"/>
<circle cx="350.19" cy="403.13" r="2.2" fill="#2563eb"/>
<circle cx="350.19" cy="377.80" r="2.2" fill="#dc2626"/>
<circle cx="360.38" cy="404.83" r="2.2" fill="#2563eb"/>
<circle cx="360.38" cy="379.15" r="2.2" fill="#dc2626"/>
<circle cx="370.58" cy="406.41" r="2.2" fill="#2563eb"/>
<circle cx="370.58" cy="380.44" r="2.2" fill="#dc2626"/>
<circle cx="380.77" cy="407.90" r="2.2" fill="#2563eb"/>
<circle cx="380.77" cy="381.68" r="2.2" fill="#dc2626"/>
<circle cx="390.96" cy="409.30" r="2.2" fill="#2563eb"/>
<circle cx="390.96" cy="382.88" r="2.2" fill="#dc2626"/>
<circle cx="401.15" cy="410.61" r="2.2" fill="#2563eb"/>
<circle cx="401.15" cy="384.04" r="2.2" fill="#dc2626"/>
<circle cx="411.35" cy="411.85" r="2.2" fill="#2563eb"/>
<circle cx="411.35" cy="385.19" r="2.2" fill="#dc2626"/>
<circle cx="421.54" cy="413.02" r="2.2" fill="#2563eb"/>
<circle cx="421.54" cy="386.38" r="2.2" fill="#dc2626"/>
<circle cx="431.73" cy="414.13" r="2.2" fill="#2563eb"/>
<circle cx="431.73" cy="387.52" r="2.2" fill="#dc2626"/>
<circle cx="441.92" cy="415.17" r="2.2" fill="#2563eb"/>
<circle cx="441.92" cy="388.61" r="2.2" fill="#dc2626"/>
<circle cx="452.12" cy="416.17" r="2.2" fill="#2563eb"/>
<circle cx="452.12" cy="389.67" r="2.2" fill="#dc2626"/>
<circle cx="462.31" cy="417.11" r="2.2" fill="#2563eb"/>
<circle cx="462.31" cy="390.68" r="2.2" fill="#dc2626"/>
<circle cx="472.50" cy="418.00" r="2.2" fill="#2563eb"/>
<circle cx="472.50" cy="391.66" r="2.2" fill="#dc2626"/>
<circle cx="482.69" cy="418.86" r="2.2" fill="#2563eb"/>
<circle cx="482.69" cy="392.59" r="2.2" fill="#dc2626"/>
<circle cx="492.88" cy="419.67" r="2.2" fill="#2563eb"/>
<circle cx="492.88" cy="393.50" r="2.2" fill="#dc2626"/>
<circle cx="503.08" cy="420.44" r="2.2" fill="#2563eb"/>
<circle cx="503.08" cy="394.37" r="2.2" fill="#dc2626"/>
<circle cx="513.27" cy="421.18" r="2.2" fill="#2563eb"/>
<circle cx="513.27" cy="395.21" r="2.2" fill="#dc2626"/>
<circle cx="523.46" cy="421.89" r="2.2" fill="#2563eb"/>
<circle cx="523.46" cy="396.03" r="2.2" fill="#dc2626"/>
<circle cx="533.65" cy="422.56" r="2.2" fill="#2563eb"/>
<circle cx="533.65" cy="396.83" r="2.2" fill="#dc2626"/>
<circle cx="543.85" cy="423.21" r="2.2" fill="#2563eb"/>
<circle cx="543.85" cy="397.61" r="2.2" fill="#dc2626"/>
<circle cx="554.04" cy="423.82" r="2.2" fill="#2563eb"/>
<circle cx="554.04" cy="398.36" r="2.2" fill="#dc2626"/>
<circle cx="564.23" cy="424.42" r="2.2" fill="#2563eb"/>
<circle cx="564.23" cy="399.08" r="2.2" fill="#dc2626"/>
<circle cx="574.42" cy="424.99" r="2.2" fill="#2563eb"/>
<circle cx="574.42" cy="399.78" r="2.2" fill="#dc2626"/>
<circle cx="584.62" cy="425.53" r="2.2" fill="#2563eb"/>
<circle cx="584.62" cy="400.46" r="2.2" fill="#dc2626"/>
<circle cx="594.81" cy="426.06" r="2.2" fill="#2563eb"/>
<circle cx="594.81" cy="401.13" r="2.2" fill="#dc2626"/>
<circle cx="605.00" cy="426.56" r="2.2" fill="#2563eb"/>
<circle cx="605.00" cy="401.77" r="2.2" fill="#dc2626"/>
<circle cx="615.19" cy="427.05" r="2.2" fill="#2563eb"/>
<circle cx="615.19" cy="402.40" r="2.2" fill="#dc2626"/>
<circle cx="625.38" cy="427.51" r="2.2" fill="#2563eb"/>
<circle cx="625.38" cy="403.00" r="2.2" fill="#dc2626"/>
<circle cx="635.58" cy="427.96" r="2.2" fill="#2563eb"/>
<circle cx="635.58" cy="403.59" r="2.2" fill="#dc2626"/>
<circle cx="645.77" cy="428.40" r="2.2" fill="#2563eb"/>
<circle cx="645.77" cy="404.17" r="2.2" fill="#dc2626"/>
<circle cx="655.96" cy="428.82" r="2.2" fill="#2563eb"/>
<circle cx="655.96" cy="404.72" r="2.2" fill="#dc2626"/>
<circle cx="666.15" cy="429.22" r="2.2" fill="#2563eb"/>
<circle cx="666.15" cy="405.27" r="2.2" fill="#dc2626"/>
<circle cx="676.35" cy="429.61" r="2.2" fill="#2563eb"/>
<circle cx="676.35" cy="405.79" r="2.2" fill="#dc2626"/>
<circle cx="686.54" cy="429.99" r="2.2" fill="#2563eb"/>
<circle cx="686.54" cy="406.31" r="2.2" fill="#dc2626"/>
<circle cx="696.73" cy="430.35" r="2.2" fill="#2563eb"/>
<circle cx="696.73" cy="406.81" r="2.2" fill="#dc2626"/>
<circle cx="706.92" cy="430.70" r="2.2" fill="#2563eb"/>
<circle cx="706.92" cy="407.30" r="2.2" fill="#dc2626"/>
<circle cx="717.12" cy="431.04" r="2.2" fill="#2563eb"/>
<circle cx="717.12" cy="407.77" r="2.2" fill="#dc2626"/>
<circle cx="727.31" cy="431.37" r="2.2" fill="#2563eb"/>
<circle cx="727.31" cy="408.24" r="2.2" fill="#dc2626"/>
<circle cx="737.50" cy="431.69" r="2.2" fill="#2563eb"/>
<circle cx="737.50" cy="408.69" r="2.2" fill="#dc2626"/>
<circle cx="747.69" cy="432.00" r="2.2" fill="#2563eb"/>
<circle cx="747.69" cy="409.13" r="2.2" fill="#dc2626"/>
<circle cx="757.88" cy="432.30" r="2.2" fill="#2563eb"/>
<circle cx="757.88" cy="409.58" r="2.2" fill="#dc2626"/>
<circle cx="768.08" cy="432.59" r="2.2" fill="#2563eb"/>
<circle cx="768.08" cy="410.02" r="2.2" fill="#dc2626"/>
<circle cx="778.27" cy="432.87" r="2.2" fill="#2563eb"/>
<circle cx="778.27" cy="410.46" r="2.2" fill="#dc2626"/>
<circle cx="788.46" cy="433.15" r="2.2" fill="#2563eb"/>
<circle cx="788.46" cy="410.88" r="2.2" fill="#dc2626"/>
<circle cx="798.65" cy="433.41" r="2.2" fill="#2563eb"/>
<circle cx="798.65" cy="411.29" r="2.2" fill="#dc2626"/>
<circle cx="808.85" cy="433.67" r="2.2" fill="#2563eb"/>
<circle cx="808.85" cy="411.69" r="2.2" fill="#dc2626"/>
<circle cx="819.04" cy="433.92" r="2.2" fill="#2563eb"/>
<circle cx="819.04" cy="412.08" r="2.2" fill="#dc2626"/>
<circle cx="829.23" cy="434.16" r="2.2" fill="#2563eb"/>
<circle cx="829.23" cy="412.47" r="2.2" fill="#dc2626"/>
<circle cx="839.42" cy="434.40" r="2.2" fill="#2563eb"/>
<circle cx="839.42" cy="412.84" r="2.2" fill="#dc2626"/>
<circle cx="849.62" cy="434.63" r="2.2" fill="#2563eb"/>
<circle cx="849.62" cy="413.21" r="2.2" fill="#dc2626"/>
<circle cx="859.81" cy="434.85" r="2.2" fill="#2563eb"/>
<circle cx="859.81" cy="413.57" r="2.2" fill="#dc2626"/>
<circle cx="870.00" cy="435.07" r="2.2" fill="#2563eb"/>
<circle cx="870.00" cy="413.92" r="2.2" fill="#dc2626"/>
  <text x="450.0" y="498" text-anchor="middle" font-family="Arial" font-size="14">Epoch</text>
  <text x="24" y="260.0" text-anchor="middle" font-family="Arial" font-size="14" transform="rotate(-90 24 260.0)">MSE Loss</text>
  <rect x="685" y="54" width="175" height="58" fill="white" stroke="#e5e7eb"/>
  <circle cx="705" cy="77" r="4" fill="#2563eb"/>
  <text x="720" y="82" font-family="Arial" font-size="13">train loss</text>
  <circle cx="705" cy="100" r="4" fill="#dc2626"/>
  <text x="720" y="105" font-family="Arial" font-size="13">test loss</text>
  <text x="65" y="49" text-anchor="end" font-family="Arial" font-size="12">0.2356</text>
  <text x="65" y="454" text-anchor="end" font-family="Arial" font-size="12">0</text>
</svg>
