<svg xmlns="http://www.w3.org/2000/svg" width="900" height="520" viewBox="0 0 900 520">
  <rect width="100%" height="100%" fill="white"/>
  <text x="450.0" y="26" text-anchor="middle" font-family="Arial" font-size="18">Train/Test Loss (log scale)</text>
  <line x1="75" y1="450" x2="870" y2="450" stroke="#334155"/>
  <line x1="75" y1="45" x2="75" y2="450" stroke="#334155"/>
  <polyline points="75.00,45.00 75.99,73.16 76.99,94.81 77.98,112.01 78.98,126.09 79.97,137.92 80.97,148.06 81.96,156.86 82.96,164.59 83.95,171.42 84.95,177.49 85.94,182.92 86.94,187.80 87.93,192.19 88.93,196.17 89.92,199.78 90.92,203.08 91.91,206.11 92.91,208.91 93.90,211.50 94.90,213.91 95.89,216.16 96.89,218.28 97.88,220.28 98.88,222.17 99.87,223.97 100.87,225.69 101.86,227.34 102.86,228.92 103.85,230.44 104.85,231.91 105.84,233.33 106.84,234.71 107.83,236.05 108.83,237.35 109.82,238.62 110.82,239.86 111.81,241.07 112.81,242.25 113.80,243.41 114.80,244.54 115.79,245.65 116.79,246.74 117.78,247.82 118.78,248.87 119.77,249.91 120.77,250.93 121.76,251.93 122.76,252.92 123.75,253.90 124.75,254.86 125.74,255.81 126.74,256.74 127.73,257.67 128.73,258.58 129.72,259.48 130.72,260.37 131.71,261.25 132.71,262.12 133.70,262.98 134.70,263.83 135.69,264.67 136.69,265.51 137.68,266.33 138.68,267.15 139.67,267.95 140.67,268.75 141.66,269.54 142.66,270.33 143.65,271.11 144.65,271.88 145.64,272.64 146.64,273.40 147.63,274.15 148.63,274.89 149.62,275.63 150.62,276.36 151.61,277.08 152.61,277.80 153.60,278.52 154.60,279.22 155.59,279.93 156.59,280.62 157.58,281.31 158.58,282.00 159.57,282.68 160.57,283.36 161.56,284.03 162.56,284.69 163.55,285.35 164.55,286.01 165.54,286.66 166.54,287.31 167.53,287.95 168.53,288.59 169.52,289.22 170.52,289.85 171.51,290.48 172.51,291.10 173.50,291.71 174.50,292.33 175.49,292.93 176.49,293.54 177.48,294.14 178.48,294.74 179.47,295.33 180.47,295.92 181.46,296.51 182.46,297.09 183.45,297.67 184.45,298.24 185.44,298.81 186.44,299.38 187.43,299.95 188.43,300.51 189.42,301.07 190.42,301.62 191.41,302.17 192.41,302.72 193.40,303.27 194.40,303.81 195.39,304.35 196.39,304.88 197.38,305.41 198.38,305.94 199.37,306.47 200.37,307.00 201.36,307.52 202.36,308.03 203.35,308.55 204.35,309.06 205.34,309.57 206.34,310.08 207.33,310.58 208.33,311.08 209.32,311.58 210.32,312.08 211.31,312.57 212.31,313.06 213.30,313.55 214.30,314.04 215.29,314.52 216.29,315.00 217.28,315.48 218.28,315.96 219.27,316.43 220.27,316.90 221.26,317.37 222.26,317.84 223.25,318.30 224.25,318.77 225.24,319.23 226.24,319.68 227.23,320.14 228.23,320.59 229.22,321.04 230.22,321.49 231.21,321.94 232.21,322.38 233.20,322.82 234.20,323.26 235.19,323.70 236.19,324.14 237.18,324.57 238.18,325.01 239.17,325.44 240.17,325.86 241.16,326.29 242.16,326.71 243.15,327.14 244.15,327.56 245.14,327.97 246.14,328.39 247.13,328.81 248.13,329.22 249.12,329.63 250.12,330.04 251.11,330.45 252.11,330.85 253.10,331.25 254.10,331.66 255.09,332.06 256.09,332.46 257.08,332.85 258.08,333.25 259.07,333.64 260.07,334.03 261.06,334.42 262.06,334.81 263.05,335.20 264.05,335.58 265.04,335.97 266.04,336.35 267.03,336.73 268.03,337.11 269.02,337.48 270.02,337.86 271.01,338.23 272.01,338.61 273.00,338.98 274.00,339.35 274.99,339.72 275.99,340.08 276.98,340.45 277.98,340.81 278.97,341.17 279.97,341.53 280.96,341.89 281.96,342.25 282.95,342.61 283.95,342.96 284.94,343.32 285.94,343.67 286.93,344.02 287.93,344.37 288.92,344.72 289.92,345.07 290.91,345.41 291.91,345.76 292.90,346.10 293.90,346.44 294.89,346.78 295.89,347.12 296.88,347.46 297.88,347.79 298.87,348.13 299.87,348.46 300.86,348.80 301.86,349.13 302.85,349.46 303.85,349.79 304.84,350.12 305.84,350.44 306.83,350.77 307.83,351.09 308.82,351.42 309.82,351.74 310.81,352.06 311.81,352.38 312.80,352.70 313.80,353.02 314.79,353.33 315.79,353.65 316.78,353.96 317.78,354.28 318.77,354.59 319.77,354.90 320.76,355.21 321.76,355.52 322.75,355.83 323.75,356.13 324.74,356.44 325.74,356.74 326.73,357.05 327.73,357.35 328.72,357.65 329.72,357.95 330.71,358.25 331.71,358.55 332.70,358.85 333.70,359.14 334.69,359.44 335.69,359.73 336.68,360.03 337.68,360.32 338.67,360.61 339.67,360.90 340.66,361.19 341.66,361.48 342.65,361.77 343.65,362.06 344.64,362.34 345.64,362.63 346.63,362.91 347.63,363.19 348.62,363.48 349.62,363.76 350.61,364.04 351.61,364.32 352.60,364.60 353.60,364.88 354.59,365.15 355.59,365.43 356.58,365.70 357.58,365.98 358.57,366.25 359.57,366.53 360.56,366.80 361.56,367.07 362.55,367.34 363.55,367.61 364.54,367.88 365.54,368.14 366.53,368.41 367.53,368.68 368.52,368.94 369.52,369.21 370.51,369.47 371.51,369.74 372.50,370.00 373.50,370.26 374.49,370.52 375.49,370.78 376.48,371.04 377.48,371.30 378.47,371.56 379.47,371.81 380.46,372.07 381.46,372.32 382.45,372.58 383.45,372.83 384.44,373.09 385.44,373.34 386.43,373.59 387.43,373.84 388.42,374.09 389.42,374.34 390.41,374.59 391.41,374.84 392.40,375.09 393.40,375.33 394.39,375.58 395.39,375.83 396.38,376.07 397.38,376.31 398.37,376.56 399.37,376.80 400.36,377.04 401.36,377.28 402.35,377.53 403.35,377.77 404.34,378.00 405.34,378.24 406.33,378.48 407.33,378.72 408.32,378.96 409.32,379.19 410.31,379.43 411.31,379.66 412.30,379.90 413.30,380.13 414.29,380.36 415.29,380.60 416.28,380.83 417.28,381.06 418.27,381.29 419.27,381.52 420.26,381.75 421.26,381.98 422.25,382.21 423.25,382.44 424.24,382.66 425.24,382.89 426.23,383.12 427.23,383.34 428.22,383.57 429.22,383.79 430.21,384.01 431.21,384.24 432.20,384.46 433.20,384.68 434.19,384.90 435.19,385.12 436.18,385.34 437.18,385.56 438.17,385.78 439.17,386.00 440.16,386.22 441.16,386.44 442.15,386.65 443.15,386.87 444.14,387.09 445.14,387.30 446.13,387.52 447.13,387.73 448.12,387.94 449.12,388.16 450.11,388.37 451.11,388.58 452.10,388.79 453.10,389.01 454.09,389.22 455.09,389.43 456.08,389.64 457.08,389.85 458.07,390.05 459.07,390.26 460.06,390.47 461.06,390.68 462.05,390.88 463.05,391.09 464.04,391.30 465.04,391.50 466.03,391.71 467.03,391.91 468.02,392.12 469.02,392.32 470.01,392.52 471.01,392.72 472.00,392.93 473.00,393.13 473.99,393.33 474.99,393.53 475.98,393.73 476.98,393.93 477.97,394.13 478.97,394.33 479.96,394.53 480.96,394.72 481.95,394.92 482.95,395.12 483.94,395.31 484.94,395.51 485.93,395.71 486.93,395.90 487.92,396.10 488.92,396.29 489.91,396.48 490.91,396.68 491.90,396.87 492.90,397.06 493.89,397.26 494.89,397.45 495.88,397.64 496.88,397.83 497.87,398.02 498.87,398.21 499.86,398.40 500.86,398.59 501.85,398.78 502.85,398.97 503.84,399.16 504.84,399.34 505.83,399.53 506.83,399.72 507.82,399.90 508.82,400.09 509.81,400.28 510.81,400.46 511.80,400.65 512.80,400.83 513.79,401.02 514.79,401.20 515.78,401.38 516.78,401.57 517.77,401.75 518.77,401.93 519.76,402.11 520.76,402.29 521.75,402.47 522.75,402.66 523.74,402.84 524.74,403.02 525.73,403.20 526.73,403.37 527.72,403.55 528.72,403.73 529.71,403.91 530.71,404.09 531.70,404.27 532.70,404.44 533.69,404.62 534.69,404.80 535.68,404.97 536.68,405.15 537.67,405.32 538.67,405.50 539.66,405.67 540.66,405.85 541.65,406.02 542.65,406.19 543.64,406.37 544.64,406.54 545.63,406.71 546.63,406.89 547.62,407.06 548.62,407.23 549.61,407.40 550.61,407.57 551.60,407.74 552.60,407.91 553.59,408.08 554.59,408.25 555.58,408.42 556.58,408.59 557.57,408.76 558.57,408.93 559.56,409.09 560.56,409.26 561.55,409.43 562.55,409.60 563.54,409.76 564.54,409.93 565.53,410.09 566.53,410.26 567.52,410.43 568.52,410.59 569.51,410.76 570.51,410.92 571.50,411.08 572.50,411.25 573.49,411.41 574.49,411.57 575.48,411.74 576.48,411.90 577.47,412.06 578.47,412.22 579.46,412.39 580.46,412.55 581.45,412.71 582.45,412.87 583.44,413.03 584.44,413.19 585.43,413.35 586.43,413.51 587.42,413.67 588.42,413.83 589.41,413.99 590.41,414.15 591.40,414.30 592.40,414.46 593.39,414.62 594.39,414.78 595.38,414.93 596.38,415.09 597.37,415.25 598.37,415.40 599.36,415.56 600.36,415.71 601.35,415.87 602.35,416.02 603.34,416.18 604.34,416.33 605.33,416.49 606.33,416.64 607.32,416.80 608.32,416.95 609.31,417.10 610.31,417.26 611.30,417.41 612.30,417.56 613.29,417.71 614.29,417.86 615.28,418.02 616.28,418.17 617.27,418.32 618.27,418.47 619.26,418.62 620.26,418.77 621.25,418.92 622.25,419.07 623.24,419.22 624.24,419.37 625.23,419.52 626.23,419.67 627.22,419.82 628.22,419.96 629.21,420.11 630.21,420.26 631.20,420.41 632.20,420.55 633.19,420.70 634.19,420.85 635.18,420.99 636.18,421.14 637.17,421.29 638.17,421.43 639.16,421.58 640.16,421.72 641.15,421.87 642.15,422.01 643.14,422.16 644.14,422.30 645.13,422.45 646.13,422.59 647.12,422.73 648.12,422.88 649.11,423.02 650.11,423.16 651.10,423.31 652.10,423.45 653.09,423.59 654.09,423.73 655.08,423.87 656.08,424.01 657.07,424.16 658.07,424.30 659.06,424.44 660.06,424.58 661.05,424.72 662.05,424.86 663.04,425.00 664.04,425.14 665.03,425.28 666.03,425.42 667.02,425.56 668.02,425.69 669.01,425.83 670.01,425.97 671.00,426.11 672.00,426.25 672.99,426.39 673.99,426.52 674.98,426.66 675.98,426.80 676.97,426.93 677.97,427.07 678.96,427.21 679.96,427.34 680.95,427.48 681.95,427.61 682.94,427.75 683.94,427.89 684.93,428.02 685.93,428.16 686.92,428.29 687.92,428.42 688.91,428.56 689.91,428.69 690.90,428.83 691.90,428.96 692.89,429.09 693.89,429.23 694.88,429.36 695.88,429.49 696.87,429.62 697.87,429.76 698.86,429.89 699.86,430.02 700.85,430.15 701.85,430.28 702.84,430.42 703.84,430.55 704.83,430.68 705.83,430.81 706.82,430.94 707.82,431.07 708.81,431.20 709.81,431.33 710.80,431.46 711.80,431.59 712.79,431.72 713.79,431.85 714.78,431.98 715.78,432.11 716.77,432.23 717.77,432.36 718.76,432.49 719.76,432.62 720.75,432.75 721.75,432.87 722.74,433.00 723.74,433.13 724.73,433.26 725.73,433.38 726.72,433.51 727.72,433.64 728.71,433.76 729.71,433.89 730.70,434.01 731.70,434.14 732.69,434.27 733.69,434.39 734.68,434.52 735.68,434.64 736.67,434.77 737.67,434.89 738.66,435.01 739.66,435.14 740.65,435.26 741.65,435.39 742.64,435.51 743.64,435.63 744.63,435.76 745.63,435.88 746.62,436.00 747.62,436.13 748.61,436.25 749.61,436.37 750.60,436.49 751.60,436.62 752.59,436.74 753.59,436.86 754.58,436.98 755.58,437.10 756.57,437.22 757.57,437.35 758.56,437.47 759.56,437.59 760.55,437.71 761.55,437.83 762.54,437.95 763.54,438.07 764.53,438.19 765.53,438.31 766.52,438.43 767.52,438.55 768.51,438.67 769.51,438.78 770.50,438.90 771.50,439.02 772.49,439.14 773.49,439.26 774.48,439.38 775.48,439.50 776.47,439.61 777.47,439.73 778.46,439.85 779.46,439.97 780.45,440.08 781.45,440.20 782.44,440.32 783.44,440.43 784.43,440.55 785.43,440.67 786.42,440.78 787.42,440.90 788.41,441.01 789.41,441.13 790.40,441.25 791.40,441.36 792.39,441.48 793.39,441.59 794.38,441.71 795.38,441.82 796.37,441.94 797.37,442.05 798.36,442.16 799.36,442.28 800.35,442.39 801.35,442.51 802.34,442.62 803.34,442.73 804.33,442.85 805.33,442.96 806.32,443.07 807.32,443.19 808.31,443.30 809.31,443.41 810.30,443.52 811.30,443.64 812.29,443.75 813.29,443.86 814.28,443.97 815.28,444.08 816.27,444.19 817.27,444.31 818.26,444.42 819.26,444.53 820.25,444.64 821.25,444.75 822.24,444.86 823.24,444.97 824.23,445.08 825.23,445.19 826.22,445.30 827.22,445.41 828.21,445.52 829.21,445.63 830.20,445.74 831.20,445.85 832.19,445.96 833.19,446.07 834.18,446.18 835.18,446.28 836.17,446.39 837.17,446.50 838.16,446.61 839.16,446.72 840.15,446.83 841.15,446.93 842.14,447.04 843.14,447.15 844.13,447.26 845.13,447.36 846.12,447.47 847.12,447.58 848.11,447.68 849.11,447.79 850.10,447.90 851.10,448.00 852.09,448.11 853.09,448.22 854.08,448.32 855.08,448.43 856.07,448.53 857.07,448.64 858.06,448.75 859.06,448.85 860.05,448.96 861.05,449.06 862.04,449.17 863.04,449.27 864.03,449.38 865.03,449.48 866.02,449.58 867.02,449.69 868.01,449.79 869.01,449.90 870.00,450.00" fill="none" stroke="#2563eb" stroke-width="2"/>
  <polyline points="75.00,175.40 75.99,180.46 76.99,185.95 77.98,190.68 78.98,195.63 79.97,200.60 80.97,206.14 81.96,211.92 82.96,217.68 83.95,223.16 84.95,228.54 85.94,233.46 86.94,237.79 87.93,241.51 88.93,244.90 89.92,248.08 90.92,250.86 91.91,253.63 92.91,256.16 93.90,258.60 94.90,260.74 95.89,262.64 96.89,264.33 97.88,265.97 98.88,267.53 99.87,268.95 100.87,270.25 101.86,271.43 102.86,272.50 103.85,273.48 104.85,274.40 105.84,275.24 106.84,276.03 107.83,276.76 108.83,277.43 109.82,278.06 110.82,278.66 111.81,279.26 112.81,279.83 113.80,280.36 114.80,280.87 115.79,281.36 116.79,281.91 117.78,282.43 118.78,282.93 119.77,283.41 120.77,283.87 121.76,284.31 122.76,284.74 123.75,285.17 124.75,285.65 125.74,286.11 126.74,286.56 127.73,287.00 128.73,287.43 129.72,287.84 130.72,288.25 131.71,288.64 132.71,289.03 133.70,289.41 134.70,289.78 135.69,290.14 136.69,290.49 137.68,290.84 138.68,291.19 139.67,291.53 140.67,291.86 141.66,292.19 142.66,292.52 143.65,292.83 144.65,293.15 145.64,293.46 146.64,293.76 147.63,294.06 148.63,294.36 149.62,294.65 150.62,294.94 151.61,295.22 152.61,295.50 153.60,295.78 154.60,296.05 155.59,296.32 156.59,296.59 157.58,296.86 158.58,297.12 159.57,297.38 160.57,297.63 161.56,297.90 162.56,298.16 163.55,298.41 164.55,298.67 165.54,298.92 166.54,299.17 167.53,299.42 168.53,299.67 169.52,299.98 170.52,300.28 171.51,300.58 172.51,300.88 173.50,301.17 174.50,301.48 175.49,301.78 176.49,302.08 177.48,302.38 178.48,302.67 179.47,302.98 180.47,303.28 181.46,303.58 182.46,303.87 183.45,304.16 184.45,304.45 185.44,304.74 186.44,305.03 187.43,305.31 188.43,305.59 189.42,305.87 190.42,306.15 191.41,306.42 192.41,306.69 193.40,306.96 194.40,307.23 195.39,307.49 196.39,307.76 197.38,308.02 198.38,308.27 199.37,308.53 200.37,308.78 201.36,309.04 202.36,309.29 203.35,309.54 204.35,309.78 205.34,310.03 206.34,310.27 207.33,310.51 208.33,310.75 209.32,310.99 210.32,311.22 211.31,311.45 212.31,311.69 213.30,311.92 214.30,312.14 215.29,312.37 216.29,312.60 217.28,312.82 218.28,313.04 219.27,313.26 220.27,313.48 221.26,313.70 222.26,313.91 223.25,314.13 224.25,314.34 225.24,314.55 226.24,314.76 227.23,314.97 228.23,315.17 229.22,315.38 230.22,315.58 231.21,315.78 232.21,315.98 233.20,316.18 234.20,316.38 235.19,316.58 236.19,316.77 237.18,316.96 238.18,317.16 239.17,317.35 240.17,317.54 241.16,317.73 242.16,317.92 243.15,318.11 244.15,318.30 245.14,318.49 246.14,318.67 247.13,318.86 248.13,319.05 249.12,319.23 250.12,319.41 251.11,319.59 252.11,319.77 253.10,319.95 254.10,320.13 255.09,320.31 256.09,320.49 257.08,320.66 258.08,320.84 259.07,321.01 260.07,321.19 261.06,321.36 262.06,321.53 263.05,321.70 264.05,321.87 265.04,322.03 266.04,322.20 267.03,322.37 268.03,322.53 269.02,322.70 270.02,322.86 271.01,323.02 272.01,323.18 273.00,323.34 274.00,323.50 274.99,323.66 275.99,323.82 276.98,323.97 277.98,324.13 278.97,324.28 279.97,324.44 280.96,324.59 281.96,324.74 282.95,324.89 283.95,325.04 284.94,325.19 285.94,325.35 286.93,325.50 287.93,325.66 288.92,325.82 289.92,325.97 290.91,326.12 291.91,326.28 292.90,326.43 293.90,326.58 294.89,326.73 295.89,326.88 296.88,327.03 297.88,327.18 298.87,327.33 299.87,327.47 300.86,327.62 301.86,327.77 302.85,327.91 303.85,328.05 304.84,328.20 305.84,328.34 306.83,328.48 307.83,328.63 308.82,328.77 309.82,328.91 310.81,329.06 311.81,329.20 312.80,329.34 313.80,329.48 314.79,329.62 315.79,329.76 316.78,329.90 317.78,330.04 318.77,330.17 319.77,330.31 320.76,330.45 321.76,330.58 322.75,330.72 323.75,330.85 324.74,330.98 325.74,331.12 326.73,331.25 327.73,331.38 328.72,331.51 329.72,331.64 330.71,331.77 331.71,331.90 332.70,332.03 333.70,332.16 334.69,332.29 335.69,332.42 336.68,332.56 337.68,332.69 338.67,332.83 339.67,332.96 340.66,333.10 341.66,333.23 342.65,333.37 343.65,333.50 344.64,333.63 345.64,333.76 346.63,333.90 347.63,334.03 348.62,334.16 349.62,334.29 350.61,334.43 351.61,334.57 352.60,334.71 353.60,334.85 354.59,334.99 355.59,335.14 356.58,335.28 357.58,335.42 358.57,335.55 359.57,335.69 360.56,335.83 361.56,335.97 362.55,336.11 363.55,336.24 364.54,336.38 365.54,336.52 366.53,336.65 367.53,336.79 368.52,336.93 369.52,337.06 370.51,337.20 371.51,337.34 372.50,337.47 373.50,337.61 374.49,337.74 375.49,337.87 376.48,338.01 377.48,338.14 378.47,338.27 379.47,338.40 380.46,338.54 381.46,338.67 382.45,338.80 383.45,338.93 384.44,339.06 385.44,339.19 386.43,339.32 387.43,339.45 388.42,339.58 389.42,339.71 390.41,339.84 391.41,339.97 392.40,340.10 393.40,340.23 394.39,340.36 395.39,340.49 396.38,340.62 397.38,340.75 398.37,340.88 399.37,341.00 400.36,341.13 401.36,341.26 402.35,341.39 403.35,341.51 404.34,341.64 405.34,341.77 406.33,341.89 407.33,342.02 408.32,342.14 409.32,342.27 410.31,342.40 411.31,342.52 412.30,342.64 413.30,342.77 414.29,342.89 415.29,343.01 416.28,343.14 417.28,343.26 418.27,343.38 419.27,343.50 420.26,343.64 421.26,343.77 422.25,343.91 423.25,344.05 424.24,344.18 425.24,344.32 426.23,344.45 427.23,344.59 428.22,344.72 429.22,344.85 430.21,344.99 431.21,345.12 432.20,345.25 433.20,345.38 434.19,345.52 435.19,345.65 436.18,345.78 437.18,345.91 438.17,346.04 439.17,346.17 440.16,346.30 441.16,346.43 442.15,346.56 443.15,346.69 444.14,346.82 445.14,346.95 446.13,347.07 447.13,347.20 448.12,347.33 449.12,347.46 450.11,347.58 451.11,347.71 452.10,347.83 453.10,347.96 454.09,348.09 455.09,348.21 456.08,348.34 457.08,348.46 458.07,348.58 459.07,348.71 460.06,348.83 461.06,348.96 462.05,349.08 463.05,349.21 464.04,349.33 465.04,349.45 466.03,349.58 467.03,349.70 468.02,349.82 469.02,349.94 470.01,350.07 471.01,350.19 472.00,350.31 473.00,350.43 473.99,350.55 474.99,350.67 475.98,350.79 476.98,350.91 477.97,351.03 478.97,351.15 479.96,351.27 480.96,351.39 481.95,351.51 482.95,351.63 483.94,351.74 484.94,351.86 485.93,351.98 486.93,352.10 487.92,352.21 488.92,352.33 489.91,352.45 490.91,352.56 491.90,352.68 492.90,352.79 493.89,352.91 494.89,353.02 495.88,353.14 496.88,353.25 497.87,353.37 498.87,353.48 499.86,353.60 500.86,353.71 501.85,353.82 502.85,353.94 503.84,354.05 504.84,354.16 505.83,354.27 506.83,354.39 507.82,354.50 508.82,354.61 509.81,354.72 510.81,354.83 511.80,354.94 512.80,355.06 513.79,355.17 514.79,355.28 515.78,355.39 516.78,355.50 517.77,355.61 518.77,355.72 519.76,355.83 520.76,355.94 521.75,356.05 522.75,356.16 523.74,356.27 524.74,356.38 525.73,356.49 526.73,356.59 527.72,356.70 528.72,356.81 529.71,356.92 530.71,357.03 531.70,357.14 532.70,357.25 533.69,357.36 534.69,357.47 535.68,357.58 536.68,357.68 537.67,357.79 538.67,357.90 539.66,358.01 540.66,358.11 541.65,358.22 542.65,358.33 543.64,358.44 544.64,358.54 545.63,358.65 546.63,358.75 547.62,358.86 548.62,358.97 549.61,359.07 550.61,359.18 551.60,359.28 552.60,359.39 553.59,359.49 554.59,359.60 555.58,359.70 556.58,359.80 557.57,359.91 558.57,360.01 559.56,360.12 560.56,360.22 561.55,360.32 562.55,360.43 563.54,360.53 564.54,360.63 565.53,360.73 566.53,360.84 567.52,360.94 568.52,361.04 569.51,361.14 570.51,361.24 571.50,361.34 572.50,361.45 573.49,361.55 574.49,361.65 575.48,361.75 576.48,361.85 577.47,361.95 578.47,362.05 579.46,362.15 580.46,362.25 581.45,362.35 582.45,362.45 583.44,362.55 584.44,362.65 585.43,362.75 586.43,362.84 587.42,362.94 588.42,363.04 589.41,363.14 590.41,363.24 591.40,363.33 592.40,363.43 593.39,363.53 594.39,363.63 595.38,363.73 596.38,363.82 597.37,363.92 598.37,364.02 599.36,364.11 600.36,364.21 601.35,364.31 602.35,364.40 603.34,364.50 604.34,364.60 605.33,364.69 606.33,364.79 607.32,364.88 608.32,364.98 609.31,365.08 610.31,365.17 611.30,365.27 612.30,365.36 613.29,365.46 614.29,365.55 615.28,365.64 616.28,365.74 617.27,365.83 618.27,365.93 619.26,366.02 620.26,366.11 621.25,366.21 622.25,366.30 623.24,366.40 624.24,366.49 625.23,366.58 626.23,366.67 627.22,366.77 628.22,366.86 629.21,366.95 630.21,367.04 631.20,367.14 632.20,367.23 633.19,367.32 634.19,367.41 635.18,367.50 636.18,367.59 637.17,367.68 638.17,367.78 639.16,367.87 640.16,367.96 641.15,368.05 642.15,368.14 643.14,368.23 644.14,368.32 645.13,368.41 646.13,368.50 647.12,368.59 648.12,368.68 649.11,368.77 650.11,368.86 651.10,368.95 652.10,369.04 653.09,369.12 654.09,369.21 655.08,369.30 656.08,369.39 657.07,369.48 658.07,369.57 659.06,369.65 660.06,369.74 661.05,369.83 662.05,369.92 663.04,370.01 664.04,370.09 665.03,370.18 666.03,370.27 667.02,370.35 668.02,370.44 669.01,370.53 670.01,370.61 671.00,370.70 672.00,370.79 672.99,370.87 673.99,370.96 674.98,371.05 675.98,371.13 676.97,371.22 677.97,371.30 678.96,371.39 679.96,371.47 680.95,371.56 681.95,371.64 682.94,371.73 683.94,371.81 684.93,371.90 685.93,371.98 686.92,372.07 687.92,372.15 688.91,372.24 689.91,372.32 690.90,372.40 691.90,372.49 692.89,372.57 693.89,372.66 694.88,372.74 695.88,372.82 696.87,372.91 697.87,372.99 698.86,373.07 699.86,373.16 700.85,373.24 701.85,373.32 702.84,373.40 703.84,373.49 704.83,373.57 705.83,373.65 706.82,373.73 707.82,373.81 708.81,373.90 709.81,373.98 710.80,374.06 711.80,374.14 712.79,374.22 713.79,374.30 714.78,374.38 715.78,374.47 716.77,374.55 717.77,374.63 718.76,374.71 719.76,374.79 720.75,374.87 721.75,374.95 722.74,375.03 723.74,375.11 724.73,375.19 725.73,375.27 726.72,375.35 727.72,375.43 728.71,375.51 729.71,375.59 730.70,375.67 731.70,375.75 732.69,375.83 733.69,375.91 734.68,375.98 735.68,376.06 736.67,376.14 737.67,376.22 738.66,376.30 739.66,376.38 740.65,376.46 741.65,376.53 742.64,376.61 743.64,376.69 744.63,376.77 745.63,376.85 746.62,376.92 747.62,377.00 748.61,377.08 749.61,377.16 750.60,377.23 751.60,377.31 752.59,377.39 753.59,377.48 754.58,377.56 755.58,377.64 756.57,377.72 757.57,377.80 758.56,377.88 759.56,377.96 760.55,378.04 761.55,378.12 762.54,378.20 763.54,378.28 764.53,378.36 765.53,378.43 766.52,378.51 767.52,378.59 768.51,378.67 769.51,378.75 770.50,378.83 771.50,378.91 772.49,378.99 773.49,379.07 774.48,379.14 775.48,379.22 776.47,379.30 777.47,379.38 778.46,379.46 779.46,379.53 780.45,379.61 781.45,379.69 782.44,379.77 783.44,379.85 784.43,379.92 785.43,380.00 786.42,380.08 787.42,380.16 788.41,380.23 789.41,380.31 790.40,380.39 791.40,380.46 792.39,380.54 793.39,380.62 794.38,380.69 795.38,380.77 796.37,380.85 797.37,380.92 798.36,381.00 799.36,381.07 800.35,381.15 801.35,381.23 802.34,381.30 803.34,381.38 804.33,381.45 805.33,381.53 806.32,381.60 807.32,381.68 808.31,381.75 809.31,381.83 810.30,381.90 811.30,381.98 812.29,382.05 813.29,382.13 814.28,382.20 815.28,382.28 816.27,382.35 817.27,382.43 818.26,382.50 819.26,382.57 820.25,382.65 821.25,382.72 822.24,382.80 823.24,382.87 824.23,382.94 825.23,383.02 826.22,383.09 827.22,383.16 828.21,383.24 829.21,383.31 830.20,383.38 831.20,383.46 832.19,383.53 833.19,383.60 834.18,383.68 835.18,383.75 836.17,383.82 837.17,383.89 838.16,383.97 839.16,384.04 840.15,384.11 841.15,384.18 842.14,384.26 843.14,384.33 844.13,384.40 845.13,384.47 846.12,384.54 847.12,384.62 848.11,384.69 849.11,384.76 850.10,384.83 851.10,384.90 852.09,384.97 853.09,385.04 854.08,385.11 855.08,385.19 856.07,385.26 857.07,385.33 858.06,385.40 859.06,385.47 860.05,385.54 861.05,385.61 862.04,385.68 863.04,385.75 864.03,385.82 865.03,385.89 866.02,385.96 867.02,386.03 868.01,386.10 869.01,386.17 870.00,386.24" fill="none" stroke="#dc2626" stroke-width="2"/>
  <circle cx="870.00" cy="386.24" r="5" fill="#dc2626"/>
  <text x="880.00" y="376.24" font-family="Arial" font-size="12">best test epoch 800</text>
  <text x="450.0" y="498" text-anchor="middle" font-family="Arial" font-size="14">Epoch</text>
  <text x="24" y="260.0" text-anchor="middle" font-family="Arial" font-size="14" transform="rotate(-90 24 260.0)">MSE Loss (log scale)</text>
  <rect x="685" y="54" width="175" height="58" fill="white" stroke="#e5e7eb"/>
  <line x1="700" y1="77" x2="740" y2="77" stroke="#2563eb" stroke-width="3"/>
  <text x="750" y="82" font-family="Arial" font-size="13">train loss</text>
  <line x1="700" y1="100" x2="740" y2="100" stroke="#dc2626" stroke-width="3"/>
  <text x="750" y="105" font-family="Arial" font-size="13">test loss</text>
  <text x="75" y="474" text-anchor="middle" font-family="Arial" font-size="12">1</text>
  <text x="870" y="474" text-anchor="middle" font-family="Arial" font-size="12">800</text>
  <text x="65" y="49" text-anchor="end" font-family="Arial" font-size="12">2.36</text>
  <text x="65" y="454" text-anchor="end" font-family="Arial" font-size="12">0.008687</text>
</svg>
