<svg xmlns="http://www.w3.org/2000/svg" width="900" height="520" viewBox="0 0 900 520">
  <rect width="100%" height="100%" fill="white"/>
  <text x="450.0" y="24" text-anchor="middle" font-family="Arial" font-size="18">Overfitting Check: Train Loss vs Test Loss</text>
  <line x1="70" y1="455" x2="870" y2="455" stroke="#333"/>
  <line x1="70" y1="40" x2="70" y2="455" stroke="#333"/>
  <text x="450.0" y="500" text-anchor="middle" font-family="Arial" font-size="14">Epoch</text>
  <text x="22" y="260.0" text-anchor="middle" font-family="Arial" font-size="14" transform="rotate(-90 22 260.0)">MSE Loss</text>
  <polyline points="70.00,40.00 71.00,173.93 72.00,246.70 73.00,290.81 74.01,319.88 75.01,340.29 76.01,355.30 77.01,366.74 78.01,375.69 79.01,382.84 80.01,388.66 81.01,393.46 82.02,397.47 83.02,400.87 84.02,403.77 85.02,406.27 86.02,408.44 87.02,410.35 88.02,412.05 89.02,413.56 90.03,414.92 91.03,416.15 92.03,417.27 93.03,418.30 94.03,419.25 95.03,420.13 96.03,420.95 97.03,421.72 98.04,422.44 99.04,423.12 100.04,423.76 101.04,424.37 102.04,424.95 103.04,425.50 104.04,426.02 105.04,426.53 106.05,427.01 107.05,427.48 108.05,427.92 109.05,428.35 110.05,428.77 111.05,429.17 112.05,429.56 113.05,429.93 114.06,430.29 115.06,430.65 116.06,430.99 117.06,431.32 118.06,431.64 119.06,431.95 120.06,432.26 121.06,432.55 122.07,432.84 123.07,433.12 124.07,433.40 125.07,433.67 126.07,433.93 127.07,434.18 128.07,434.43 129.07,434.68 130.08,434.91 131.08,435.15 132.08,435.37 133.08,435.60 134.08,435.81 135.08,436.03 136.08,436.24 137.08,436.44 138.09,436.64 139.09,436.84 140.09,437.03 141.09,437.22 142.09,437.40 143.09,437.59 144.09,437.76 145.09,437.94 146.10,438.11 147.10,438.28 148.10,438.44 149.10,438.61 150.10,438.77 151.10,438.92 152.10,439.08 153.10,439.23 154.11,439.38 155.11,439.53 156.11,439.67 157.11,439.81 158.11,439.95 159.11,440.09 160.11,440.22 161.11,440.35 162.12,440.49 163.12,440.61 164.12,440.74 165.12,440.86 166.12,440.99 167.12,441.11 168.12,441.23 169.12,441.34 170.13,441.46 171.13,441.57 172.13,441.68 173.13,441.79 174.13,441.90 175.13,442.01 176.13,442.12 177.13,442.22 178.14,442.32 179.14,442.42 180.14,442.52 181.14,442.62 182.14,442.72 183.14,442.81 184.14,442.91 185.14,443.00 186.15,443.09 187.15,443.18 188.15,443.27 189.15,443.36 190.15,443.45 191.15,443.53 192.15,443.62 193.15,443.70 194.16,443.78 195.16,443.87 196.16,443.95 197.16,444.03 198.16,444.10 199.16,444.18 200.16,444.26 201.16,444.33 202.17,444.41 203.17,444.48 204.17,444.55 205.17,444.63 206.17,444.70 207.17,444.77 208.17,444.84 209.17,444.91 210.18,444.97 211.18,445.04 212.18,445.11 213.18,445.17 214.18,445.24 215.18,445.30 216.18,445.36 217.18,445.43 218.19,445.49 219.19,445.55 220.19,445.61 221.19,445.67 222.19,445.73 223.19,445.78 224.19,445.84 225.19,445.90 226.20,445.96 227.20,446.01 228.20,446.07 229.20,446.12 230.20,446.17 231.20,446.23 232.20,446.28 233.20,446.33 234.21,446.38 235.21,446.44 236.21,446.49 237.21,446.54 238.21,446.59 239.21,446.64 240.21,446.68 241.21,446.73 242.22,446.78 243.22,446.83 244.22,446.87 245.22,446.92 246.22,446.96 247.22,447.01 248.22,447.05 249.22,447.10 250.23,447.14 251.23,447.19 252.23,447.23 253.23,447.27 254.23,447.31 255.23,447.36 256.23,447.40 257.23,447.44 258.24,447.48 259.24,447.52 260.24,447.56 261.24,447.60 262.24,447.64 263.24,447.68 264.24,447.71 265.24,447.75 266.25,447.79 267.25,447.83 268.25,447.86 269.25,447.90 270.25,447.94 271.25,447.97 272.25,448.01 273.25,448.04 274.26,448.08 275.26,448.11 276.26,448.15 277.26,448.18 278.26,448.21 279.26,448.25 280.26,448.28 281.26,448.31 282.27,448.35 283.27,448.38 284.27,448.41 285.27,448.44 286.27,448.47 287.27,448.50 288.27,448.54 289.27,448.57 290.28,448.60 291.28,448.63 292.28,448.66 293.28,448.69 294.28,448.72 295.28,448.74 296.28,448.77 297.28,448.80 298.29,448.83 299.29,448.86 300.29,448.89 301.29,448.91 302.29,448.94 303.29,448.97 304.29,449.00 305.29,449.02 306.30,449.05 307.30,449.08 308.30,449.10 309.30,449.13 310.30,449.15 311.30,449.18 312.30,449.20 313.30,449.23 314.31,449.25 315.31,449.28 316.31,449.30 317.31,449.33 318.31,449.35 319.31,449.38 320.31,449.40 321.31,449.42 322.32,449.45 323.32,449.47 324.32,449.49 325.32,449.52 326.32,449.54 327.32,449.56 328.32,449.58 329.32,449.61 330.33,449.63 331.33,449.65 332.33,449.67 333.33,449.69 334.33,449.72 335.33,449.74 336.33,449.76 337.33,449.78 338.34,449.80 339.34,449.82 340.34,449.84 341.34,449.86 342.34,449.88 343.34,449.90 344.34,449.92 345.34,449.94 346.35,449.96 347.35,449.98 348.35,450.00 349.35,450.02 350.35,450.04 351.35,450.06 352.35,450.08 353.35,450.09 354.36,450.11 355.36,450.13 356.36,450.15 357.36,450.17 358.36,450.19 359.36,450.20 360.36,450.22 361.36,450.24 362.37,450.26 363.37,450.28 364.37,450.29 365.37,450.31 366.37,450.33 367.37,450.34 368.37,450.36 369.37,450.38 370.38,450.39 371.38,450.41 372.38,450.43 373.38,450.44 374.38,450.46 375.38,450.48 376.38,450.49 377.38,450.51 378.39,450.52 379.39,450.54 380.39,450.56 381.39,450.57 382.39,450.59 383.39,450.60 384.39,450.62 385.39,450.63 386.40,450.65 387.40,450.66 388.40,450.68 389.40,450.69 390.40,450.71 391.40,450.72 392.40,450.74 393.40,450.75 394.41,450.76 395.41,450.78 396.41,450.79 397.41,450.81 398.41,450.82 399.41,450.83 400.41,450.85 401.41,450.86 402.42,450.88 403.42,450.89 404.42,450.90 405.42,450.92 406.42,450.93 407.42,450.94 408.42,450.96 409.42,450.97 410.43,450.98 411.43,451.00 412.43,451.01 413.43,451.02 414.43,451.03 415.43,451.05 416.43,451.06 417.43,451.07 418.44,451.08 419.44,451.10 420.44,451.11 421.44,451.12 422.44,451.13 423.44,451.15 424.44,451.16 425.44,451.17 426.45,451.18 427.45,451.19 428.45,451.20 429.45,451.22 430.45,451.23 431.45,451.24 432.45,451.25 433.45,451.26 434.46,451.27 435.46,451.28 436.46,451.30 437.46,451.31 438.46,451.32 439.46,451.33 440.46,451.34 441.46,451.35 442.47,451.36 443.47,451.37 444.47,451.38 445.47,451.39 446.47,451.40 447.47,451.42 448.47,451.43 449.47,451.44 450.48,451.45 451.48,451.46 452.48,451.47 453.48,451.48 454.48,451.49 455.48,451.50 456.48,451.51 457.48,451.52 458.49,451.53 459.49,451.54 460.49,451.55 461.49,451.56 462.49,451.57 463.49,451.58 464.49,451.59 465.49,451.60 466.50,451.61 467.50,451.62 468.50,451.62 469.50,451.63 470.50,451.64 471.50,451.65 472.50,451.66 473.50,451.67 474.51,451.68 475.51,451.69 476.51,451.70 477.51,451.71 478.51,451.72 479.51,451.73 480.51,451.73 481.51,451.74 482.52,451.75 483.52,451.76 484.52,451.77 485.52,451.78 486.52,451.79 487.52,451.80 488.52,451.80 489.52,451.81 490.53,451.82 491.53,451.83 492.53,451.84 493.53,451.85 494.53,451.86 495.53,451.86 496.53,451.87 497.53,451.88 498.54,451.89 499.54,451.90 500.54,451.90 501.54,451.91 502.54,451.92 503.54,451.93 504.54,451.94 505.54,451.94 506.55,451.95 507.55,451.96 508.55,451.97 509.55,451.98 510.55,451.98 511.55,451.99 512.55,452.00 513.55,452.01 514.56,452.01 515.56,452.02 516.56,452.03 517.56,452.04 518.56,452.04 519.56,452.05 520.56,452.06 521.56,452.07 522.57,452.07 523.57,452.08 524.57,452.09 525.57,452.09 526.57,452.10 527.57,452.11 528.57,452.12 529.57,452.12 530.58,452.13 531.58,452.14 532.58,452.14 533.58,452.15 534.58,452.16 535.58,452.16 536.58,452.17 537.58,452.18 538.59,452.19 539.59,452.19 540.59,452.20 541.59,452.21 542.59,452.21 543.59,452.22 544.59,452.23 545.59,452.23 546.60,452.24 547.60,452.25 548.60,452.25 549.60,452.26 550.60,452.26 551.60,452.27 552.60,452.28 553.60,452.28 554.61,452.29 555.61,452.30 556.61,452.30 557.61,452.31 558.61,452.32 559.61,452.32 560.61,452.33 561.61,452.33 562.62,452.34 563.62,452.35 564.62,452.35 565.62,452.36 566.62,452.36 567.62,452.37 568.62,452.38 569.62,452.38 570.63,452.39 571.63,452.39 572.63,452.40 573.63,452.41 574.63,452.41 575.63,452.42 576.63,452.42 577.63,452.43 578.64,452.43 579.64,452.44 580.64,452.45 581.64,452.45 582.64,452.46 583.64,452.46 584.64,452.47 585.64,452.47 586.65,452.48 587.65,452.49 588.65,452.49 589.65,452.50 590.65,452.50 591.65,452.51 592.65,452.51 593.65,452.52 594.66,452.52 595.66,452.53 596.66,452.53 597.66,452.54 598.66,452.54 599.66,452.55 600.66,452.56 601.66,452.56 602.67,452.57 603.67,452.57 604.67,452.58 605.67,452.58 606.67,452.59 607.67,452.59 608.67,452.60 609.67,452.60 610.68,452.61 611.68,452.61 612.68,452.62 613.68,452.62 614.68,452.63 615.68,452.63 616.68,452.64 617.68,452.64 618.69,452.65 619.69,452.65 620.69,452.66 621.69,452.66 622.69,452.67 623.69,452.67 624.69,452.68 625.69,452.68 626.70,452.68 627.70,452.69 628.70,452.69 629.70,452.70 630.70,452.70 631.70,452.71 632.70,452.71 633.70,452.72 634.71,452.72 635.71,452.73 636.71,452.73 637.71,452.74 638.71,452.74 639.71,452.75 640.71,452.75 641.71,452.75 642.72,452.76 643.72,452.76 644.72,452.77 645.72,452.77 646.72,452.78 647.72,452.78 648.72,452.79 649.72,452.79 650.73,452.79 651.73,452.80 652.73,452.80 653.73,452.81 654.73,452.81 655.73,452.82 656.73,452.82 657.73,452.82 658.74,452.83 659.74,452.83 660.74,452.84 661.74,452.84 662.74,452.84 663.74,452.85 664.74,452.85 665.74,452.86 666.75,452.86 667.75,452.87 668.75,452.87 669.75,452.87 670.75,452.88 671.75,452.88 672.75,452.89 673.75,452.89 674.76,452.89 675.76,452.90 676.76,452.90 677.76,452.91 678.76,452.91 679.76,452.91 680.76,452.92 681.76,452.92 682.77,452.93 683.77,452.93 684.77,452.93 685.77,452.94 686.77,452.94 687.77,452.94 688.77,452.95 689.77,452.95 690.78,452.96 691.78,452.96 692.78,452.96 693.78,452.97 694.78,452.97 695.78,452.97 696.78,452.98 697.78,452.98 698.79,452.99 699.79,452.99 700.79,452.99 701.79,453.00 702.79,453.00 703.79,453.00 704.79,453.01 705.79,453.01 706.80,453.01 707.80,453.02 708.80,453.02 709.80,453.03 710.80,453.03 711.80,453.03 712.80,453.04 713.80,453.04 714.81,453.04 715.81,453.05 716.81,453.05 717.81,453.05 718.81,453.06 719.81,453.06 720.81,453.06 721.81,453.07 722.82,453.07 723.82,453.07 724.82,453.08 725.82,453.08 726.82,453.08 727.82,453.09 728.82,453.09 729.82,453.09 730.83,453.10 731.83,453.10 732.83,453.10 733.83,453.11 734.83,453.11 735.83,453.11 736.83,453.12 737.83,453.12 738.84,453.12 739.84,453.13 740.84,453.13 741.84,453.13 742.84,453.14 743.84,453.14 744.84,453.14 745.84,453.15 746.85,453.15 747.85,453.15 748.85,453.16 749.85,453.16 750.85,453.16 751.85,453.16 752.85,453.17 753.85,453.17 754.86,453.17 755.86,453.18 756.86,453.18 757.86,453.18 758.86,453.19 759.86,453.19 760.86,453.19 761.86,453.19 762.87,453.20 763.87,453.20 764.87,453.20 765.87,453.21 766.87,453.21 767.87,453.21 768.87,453.22 769.87,453.22 770.88,453.22 771.88,453.22 772.88,453.23 773.88,453.23 774.88,453.23 775.88,453.24 776.88,453.24 777.88,453.24 778.89,453.24 779.89,453.25 780.89,453.25 781.89,453.25 782.89,453.26 783.89,453.26 784.89,453.26 785.89,453.26 786.90,453.27 787.90,453.27 788.90,453.27 789.90,453.28 790.90,453.28 791.90,453.28 792.90,453.28 793.90,453.29 794.91,453.29 795.91,453.29 796.91,453.29 797.91,453.30 798.91,453.30 799.91,453.30 800.91,453.31 801.91,453.31 802.92,453.31 803.92,453.31 804.92,453.32 805.92,453.32 806.92,453.32 807.92,453.32 808.92,453.33 809.92,453.33 810.93,453.33 811.93,453.33 812.93,453.34 813.93,453.34 814.93,453.34 815.93,453.34 816.93,453.35 817.93,453.35 818.94,453.35 819.94,453.35 820.94,453.36 821.94,453.36 822.94,453.36 823.94,453.36 824.94,453.37 825.94,453.37 826.95,453.37 827.95,453.37 828.95,453.38 829.95,453.38 830.95,453.38 831.95,453.38 832.95,453.39 833.95,453.39 834.96,453.39 835.96,453.39 836.96,453.40 837.96,453.40 838.96,453.40 839.96,453.40 840.96,453.41 841.96,453.41 842.97,453.41 843.97,453.41 844.97,453.42 845.97,453.42 846.97,453.42 847.97,453.42 848.97,453.42 849.97,453.43 850.98,453.43 851.98,453.43 852.98,453.43 853.98,453.44 854.98,453.44 855.98,453.44 856.98,453.44 857.98,453.45 858.99,453.45 859.99,453.45 860.99,453.45 861.99,453.45 862.99,453.46 863.99,453.46 864.99,453.46 865.99,453.46 867.00,453.47 868.00,453.47 869.00,453.47 870.00,453.47" fill="none" stroke="#2563eb" stroke-width="2"/>
  <polyline points="70.00,386.71 71.00,391.33 72.00,395.98 73.00,399.72 74.01,403.39 75.01,406.81 76.01,410.37 77.01,413.80 78.01,416.96 79.01,419.74 80.01,422.27 81.01,424.42 82.02,426.20 83.02,427.65 84.02,428.90 85.02,430.02 86.02,430.96 87.02,431.87 88.02,432.66 89.02,433.40 90.03,434.04 91.03,434.58 92.03,435.05 93.03,435.50 94.03,435.91 95.03,436.29 96.03,436.62 97.03,436.92 98.04,437.18 99.04,437.42 100.04,437.65 101.04,437.85 102.04,438.03 103.04,438.20 104.04,438.36 105.04,438.50 106.05,438.64 107.05,438.78 108.05,438.90 109.05,439.02 110.05,439.13 111.05,439.24 112.05,439.36 113.05,439.47 114.06,439.58 115.06,439.68 116.06,439.78 117.06,439.87 118.06,439.96 119.06,440.05 120.06,440.15 121.06,440.24 122.07,440.33 123.07,440.42 124.07,440.51 125.07,440.59 126.07,440.67 127.07,440.75 128.07,440.83 129.07,440.90 130.08,440.97 131.08,441.04 132.08,441.11 133.08,441.18 134.08,441.24 135.08,441.31 136.08,441.37 137.08,441.43 138.09,441.49 139.09,441.55 140.09,441.61 141.09,441.67 142.09,441.72 143.09,441.78 144.09,441.83 145.09,441.89 146.10,441.94 147.10,441.99 148.10,442.04 149.10,442.09 150.10,442.14 151.10,442.19 152.10,442.24 153.10,442.28 154.11,442.33 155.11,442.37 156.11,442.42 157.11,442.46 158.11,442.51 159.11,442.55 160.11,442.60 161.11,442.64 162.12,442.68 163.12,442.73 164.12,442.77 165.12,442.82 166.12,442.87 167.12,442.92 168.12,442.97 169.12,443.02 170.13,443.07 171.13,443.12 172.13,443.17 173.13,443.22 174.13,443.27 175.13,443.31 176.13,443.36 177.13,443.41 178.14,443.46 179.14,443.51 180.14,443.55 181.14,443.60 182.14,443.64 183.14,443.69 184.14,443.73 185.14,443.77 186.15,443.82 187.15,443.86 188.15,443.90 189.15,443.94 190.15,443.98 191.15,444.02 192.15,444.06 193.15,444.10 194.16,444.14 195.16,444.18 196.16,444.22 197.16,444.25 198.16,444.29 199.16,444.33 200.16,444.36 201.16,444.40 202.17,444.44 203.17,444.47 204.17,444.51 205.17,444.54 206.17,444.57 207.17,444.61 208.17,444.64 209.17,444.67 210.18,444.71 211.18,444.74 212.18,444.77 213.18,444.80 214.18,444.83 215.18,444.86 216.18,444.90 217.18,444.93 218.19,444.96 219.19,444.99 220.19,445.01 221.19,445.04 222.19,445.07 223.19,445.10 224.19,445.13 225.19,445.16 226.20,445.18 227.20,445.21 228.20,445.24 229.20,445.27 230.20,445.29 231.20,445.32 232.20,445.35 233.20,445.37 234.21,445.40 235.21,445.42 236.21,445.45 237.21,445.47 238.21,445.50 239.21,445.52 240.21,445.55 241.21,445.57 242.22,445.60 243.22,445.62 244.22,445.64 245.22,445.67 246.22,445.69 247.22,445.71 248.22,445.74 249.22,445.76 250.23,445.78 251.23,445.81 252.23,445.83 253.23,445.85 254.23,445.87 255.23,445.90 256.23,445.92 257.23,445.94 258.24,445.96 259.24,445.98 260.24,446.00 261.24,446.02 262.24,446.04 263.24,446.06 264.24,446.09 265.24,446.11 266.25,446.13 267.25,446.15 268.25,446.16 269.25,446.18 270.25,446.20 271.25,446.22 272.25,446.24 273.25,446.26 274.26,446.28 275.26,446.30 276.26,446.32 277.26,446.34 278.26,446.35 279.26,446.37 280.26,446.39 281.26,446.41 282.27,446.43 283.27,446.44 284.27,446.46 285.27,446.48 286.27,446.50 287.27,446.52 288.27,446.54 289.27,446.55 290.28,446.57 291.28,446.59 292.28,446.61 293.28,446.62 294.28,446.64 295.28,446.66 296.28,446.67 297.28,446.69 298.29,446.71 299.29,446.72 300.29,446.74 301.29,446.76 302.29,446.77 303.29,446.79 304.29,446.81 305.29,446.82 306.30,446.84 307.30,446.85 308.30,446.87 309.30,446.89 310.30,446.90 311.30,446.92 312.30,446.93 313.30,446.95 314.31,446.96 315.31,446.98 316.31,446.99 317.31,447.01 318.31,447.02 319.31,447.04 320.31,447.05 321.31,447.07 322.32,447.08 323.32,447.10 324.32,447.11 325.32,447.13 326.32,447.14 327.32,447.16 328.32,447.17 329.32,447.18 330.33,447.20 331.33,447.21 332.33,447.23 333.33,447.24 334.33,447.25 335.33,447.27 336.33,447.28 337.33,447.30 338.34,447.31 339.34,447.33 340.34,447.34 341.34,447.35 342.34,447.37 343.34,447.38 344.34,447.40 345.34,447.41 346.35,447.42 347.35,447.44 348.35,447.45 349.35,447.47 350.35,447.48 351.35,447.50 352.35,447.51 353.35,447.53 354.36,447.54 355.36,447.56 356.36,447.57 357.36,447.58 358.36,447.60 359.36,447.61 360.36,447.63 361.36,447.64 362.37,447.65 363.37,447.67 364.37,447.68 365.37,447.70 366.37,447.71 367.37,447.72 368.37,447.74 369.37,447.75 370.38,447.76 371.38,447.78 372.38,447.79 373.38,447.80 374.38,447.82 375.38,447.83 376.38,447.84 377.38,447.86 378.39,447.87 379.39,447.88 380.39,447.89 381.39,447.91 382.39,447.92 383.39,447.93 384.39,447.95 385.39,447.96 386.40,447.97 387.40,447.98 388.40,448.00 389.40,448.01 390.40,448.02 391.40,448.03 392.40,448.05 393.40,448.06 394.41,448.07 395.41,448.08 396.41,448.10 397.41,448.11 398.41,448.12 399.41,448.13 400.41,448.14 401.41,448.16 402.42,448.17 403.42,448.18 404.42,448.19 405.42,448.20 406.42,448.22 407.42,448.23 408.42,448.24 409.42,448.25 410.43,448.26 411.43,448.27 412.43,448.29 413.43,448.30 414.43,448.31 415.43,448.32 416.43,448.33 417.43,448.34 418.44,448.36 419.44,448.37 420.44,448.38 421.44,448.39 422.44,448.41 423.44,448.42 424.44,448.43 425.44,448.44 426.45,448.45 427.45,448.47 428.45,448.48 429.45,448.49 430.45,448.50 431.45,448.51 432.45,448.53 433.45,448.54 434.46,448.55 435.46,448.56 436.46,448.57 437.46,448.58 438.46,448.60 439.46,448.61 440.46,448.62 441.46,448.63 442.47,448.64 443.47,448.65 444.47,448.66 445.47,448.67 446.47,448.69 447.47,448.70 448.47,448.71 449.47,448.72 450.48,448.73 451.48,448.74 452.48,448.75 453.48,448.76 454.48,448.77 455.48,448.78 456.48,448.79 457.48,448.80 458.49,448.82 459.49,448.83 460.49,448.84 461.49,448.85 462.49,448.86 463.49,448.87 464.49,448.88 465.49,448.89 466.50,448.90 467.50,448.91 468.50,448.92 469.50,448.93 470.50,448.94 471.50,448.95 472.50,448.96 473.50,448.97 474.51,448.98 475.51,448.99 476.51,449.00 477.51,449.01 478.51,449.02 479.51,449.03 480.51,449.04 481.51,449.05 482.52,449.06 483.52,449.07 484.52,449.08 485.52,449.09 486.52,449.10 487.52,449.11 488.52,449.12 489.52,449.13 490.53,449.14 491.53,449.14 492.53,449.15 493.53,449.16 494.53,449.17 495.53,449.18 496.53,449.19 497.53,449.20 498.54,449.21 499.54,449.22 500.54,449.23 501.54,449.24 502.54,449.25 503.54,449.25 504.54,449.26 505.54,449.27 506.55,449.28 507.55,449.29 508.55,449.30 509.55,449.31 510.55,449.32 511.55,449.32 512.55,449.33 513.55,449.34 514.56,449.35 515.56,449.36 516.56,449.37 517.56,449.38 518.56,449.39 519.56,449.39 520.56,449.40 521.56,449.41 522.57,449.42 523.57,449.43 524.57,449.44 525.57,449.44 526.57,449.45 527.57,449.46 528.57,449.47 529.57,449.48 530.58,449.49 531.58,449.49 532.58,449.50 533.58,449.51 534.58,449.52 535.58,449.53 536.58,449.54 537.58,449.54 538.59,449.55 539.59,449.56 540.59,449.57 541.59,449.58 542.59,449.58 543.59,449.59 544.59,449.60 545.59,449.61 546.60,449.62 547.60,449.62 548.60,449.63 549.60,449.64 550.60,449.65 551.60,449.65 552.60,449.66 553.60,449.67 554.61,449.68 555.61,449.69 556.61,449.69 557.61,449.70 558.61,449.71 559.61,449.72 560.61,449.72 561.61,449.73 562.62,449.74 563.62,449.75 564.62,449.75 565.62,449.76 566.62,449.77 567.62,449.78 568.62,449.78 569.62,449.79 570.63,449.80 571.63,449.80 572.63,449.81 573.63,449.82 574.63,449.83 575.63,449.83 576.63,449.84 577.63,449.85 578.64,449.85 579.64,449.86 580.64,449.87 581.64,449.88 582.64,449.88 583.64,449.89 584.64,449.90 585.64,449.90 586.65,449.91 587.65,449.92 588.65,449.92 589.65,449.93 590.65,449.94 591.65,449.94 592.65,449.95 593.65,449.96 594.66,449.97 595.66,449.97 596.66,449.98 597.66,449.99 598.66,449.99 599.66,450.00 600.66,450.01 601.66,450.01 602.67,450.02 603.67,450.03 604.67,450.03 605.67,450.04 606.67,450.05 607.67,450.05 608.67,450.06 609.67,450.06 610.68,450.07 611.68,450.08 612.68,450.08 613.68,450.09 614.68,450.10 615.68,450.10 616.68,450.11 617.68,450.12 618.69,450.12 619.69,450.13 620.69,450.14 621.69,450.14 622.69,450.15 623.69,450.15 624.69,450.16 625.69,450.17 626.70,450.17 627.70,450.18 628.70,450.18 629.70,450.19 630.70,450.20 631.70,450.20 632.70,450.21 633.70,450.22 634.71,450.22 635.71,450.23 636.71,450.23 637.71,450.24 638.71,450.25 639.71,450.25 640.71,450.26 641.71,450.26 642.72,450.27 643.72,450.27 644.72,450.28 645.72,450.29 646.72,450.29 647.72,450.30 648.72,450.30 649.72,450.31 650.73,450.32 651.73,450.32 652.73,450.33 653.73,450.33 654.73,450.34 655.73,450.34 656.73,450.35 657.73,450.36 658.74,450.36 659.74,450.37 660.74,450.37 661.74,450.38 662.74,450.38 663.74,450.39 664.74,450.39 665.74,450.40 666.75,450.41 667.75,450.41 668.75,450.42 669.75,450.42 670.75,450.43 671.75,450.43 672.75,450.44 673.75,450.44 674.76,450.45 675.76,450.46 676.76,450.46 677.76,450.47 678.76,450.47 679.76,450.48 680.76,450.48 681.76,450.49 682.77,450.49 683.77,450.50 684.77,450.50 685.77,450.51 686.77,450.51 687.77,450.52 688.77,450.52 689.77,450.53 690.78,450.53 691.78,450.54 692.78,450.54 693.78,450.55 694.78,450.55 695.78,450.56 696.78,450.57 697.78,450.57 698.79,450.58 699.79,450.58 700.79,450.59 701.79,450.59 702.79,450.60 703.79,450.60 704.79,450.61 705.79,450.61 706.80,450.62 707.80,450.62 708.80,450.63 709.80,450.63 710.80,450.64 711.80,450.64 712.80,450.65 713.80,450.65 714.81,450.65 715.81,450.66 716.81,450.66 717.81,450.67 718.81,450.67 719.81,450.68 720.81,450.68 721.81,450.69 722.82,450.69 723.82,450.70 724.82,450.70 725.82,450.71 726.82,450.71 727.82,450.72 728.82,450.72 729.82,450.73 730.83,450.73 731.83,450.74 732.83,450.74 733.83,450.75 734.83,450.75 735.83,450.75 736.83,450.76 737.83,450.76 738.84,450.77 739.84,450.77 740.84,450.78 741.84,450.78 742.84,450.79 743.84,450.79 744.84,450.80 745.84,450.80 746.85,450.80 747.85,450.81 748.85,450.81 749.85,450.82 750.85,450.82 751.85,450.83 752.85,450.83 753.85,450.84 754.86,450.84 755.86,450.85 756.86,450.85 757.86,450.86 758.86,450.86 759.86,450.86 760.86,450.87 761.86,450.87 762.87,450.88 763.87,450.88 764.87,450.89 765.87,450.89 766.87,450.90 767.87,450.90 768.87,450.91 769.87,450.91 770.88,450.91 771.88,450.92 772.88,450.92 773.88,450.93 774.88,450.93 775.88,450.94 776.88,450.94 777.88,450.94 778.89,450.95 779.89,450.95 780.89,450.96 781.89,450.96 782.89,450.97 783.89,450.97 784.89,450.98 785.89,450.98 786.90,450.98 787.90,450.99 788.90,450.99 789.90,451.00 790.90,451.00 791.90,451.01 792.90,451.01 793.90,451.01 794.91,451.02 795.91,451.02 796.91,451.03 797.91,451.03 798.91,451.03 799.91,451.04 800.91,451.04 801.91,451.05 802.92,451.05 803.92,451.06 804.92,451.06 805.92,451.06 806.92,451.07 807.92,451.07 808.92,451.08 809.92,451.08 810.93,451.08 811.93,451.09 812.93,451.09 813.93,451.10 814.93,451.10 815.93,451.10 816.93,451.11 817.93,451.11 818.94,451.12 819.94,451.12 820.94,451.12 821.94,451.13 822.94,451.13 823.94,451.14 824.94,451.14 825.94,451.14 826.95,451.15 827.95,451.15 828.95,451.16 829.95,451.16 830.95,451.16 831.95,451.17 832.95,451.17 833.95,451.17 834.96,451.18 835.96,451.18 836.96,451.19 837.96,451.19 838.96,451.19 839.96,451.20 840.96,451.20 841.96,451.21 842.97,451.21 843.97,451.21 844.97,451.22 845.97,451.22 846.97,451.22 847.97,451.23 848.97,451.23 849.97,451.24 850.98,451.24 851.98,451.24 852.98,451.25 853.98,451.25 854.98,451.25 855.98,451.26 856.98,451.26 857.98,451.26 858.99,451.27 859.99,451.27 860.99,451.28 861.99,451.28 862.99,451.28 863.99,451.29 864.99,451.29 865.99,451.29 867.00,451.30 868.00,451.30 869.00,451.30 870.00,451.31" fill="none" stroke="#dc2626" stroke-width="2"/>
  <rect x="680" y="52" width="180" height="58" fill="white" stroke="#ddd"/>
  <line x1="695" y1="75" x2="735" y2="75" stroke="#2563eb" stroke-width="3"/>
  <text x="745" y="80" font-family="Arial" font-size="13">train loss</text>
  <line x1="695" y1="98" x2="735" y2="98" stroke="#dc2626" stroke-width="3"/>
  <text x="745" y="103" font-family="Arial" font-size="13">test loss</text>
  <text x="70" y="479" text-anchor="middle" font-family="Arial" font-size="12">1</text>
  <text x="870" y="479" text-anchor="middle" font-family="Arial" font-size="12">800</text>
  <text x="60" y="44" text-anchor="end" font-family="Arial" font-size="12">2.3596</text>
  <text x="60" y="459" text-anchor="end" font-family="Arial" font-size="12">0</text>
</svg>
