<svg xmlns="http://www.w3.org/2000/svg" width="1080" height="660" viewBox="0 0 1080 660">
<rect width="100%" height="100%" fill="#ffffff"/>
<text x="32" y="40" font-family="Arial, sans-serif" font-size="24" font-weight="700" fill="#111827">KoBERT PCA32 + structured 10</text>
<text x="32" y="68" font-family="Arial, sans-serif" font-size="14" fill="#4b5563">5-fold cross-validation, lower RMSE is better</text>
<text x="286" y="117" text-anchor="end" font-family="Arial, sans-serif" font-size="15" fill="#111827">Ridge</text>
<rect x="300" y="98" width="670" height="27" rx="4" fill="#eef2f7"/>
<rect x="300" y="98" width="484.71" height="27" rx="4" fill="#2563eb"/>
<text x="794.71" y="117" font-family="Arial, sans-serif" font-size="14" font-weight="700" fill="#111827">0.08284</text>
<text x="286" y="171" text-anchor="end" font-family="Arial, sans-serif" font-size="15" fill="#111827">XGBoost</text>
<rect x="300" y="152" width="670" height="27" rx="4" fill="#eef2f7"/>
<rect x="300" y="152" width="497.19" height="27" rx="4" fill="#059669"/>
<text x="807.19" y="171" font-family="Arial, sans-serif" font-size="14" font-weight="700" fill="#111827">0.08497</text>
<text x="286" y="225" text-anchor="end" font-family="Arial, sans-serif" font-size="15" fill="#111827">Extra Trees</text>
<rect x="300" y="206" width="670" height="27" rx="4" fill="#eef2f7"/>
<rect x="300" y="206" width="500.67" height="27" rx="4" fill="#d97706"/>
<text x="810.67" y="225" font-family="Arial, sans-serif" font-size="14" font-weight="700" fill="#111827">0.08556</text>
<text x="286" y="279" text-anchor="end" font-family="Arial, sans-serif" font-size="15" fill="#111827">Gradient Boosting</text>
<rect x="300" y="260" width="670" height="27" rx="4" fill="#eef2f7"/>
<rect x="300" y="260" width="502.14" height="27" rx="4" fill="#16a34a"/>
<text x="812.14" y="279" font-family="Arial, sans-serif" font-size="14" font-weight="700" fill="#111827">0.08582</text>
<text x="286" y="333" text-anchor="end" font-family="Arial, sans-serif" font-size="15" fill="#111827">Histogram Gradient Boosting</text>
<rect x="300" y="314" width="670" height="27" rx="4" fill="#eef2f7"/>
<rect x="300" y="314" width="502.28" height="27" rx="4" fill="#0d9488"/>
<text x="812.28" y="333" font-family="Arial, sans-serif" font-size="14" font-weight="700" fill="#111827">0.08584</text>
<text x="286" y="387" text-anchor="end" font-family="Arial, sans-serif" font-size="15" fill="#111827">LightGBM</text>
<rect x="300" y="368" width="670" height="27" rx="4" fill="#eef2f7"/>
<rect x="300" y="368" width="505.08" height="27" rx="4" fill="#65a30d"/>
<text x="815.08" y="387" font-family="Arial, sans-serif" font-size="14" font-weight="700" fill="#111827">0.08632</text>
<text x="286" y="441" text-anchor="end" font-family="Arial, sans-serif" font-size="15" fill="#111827">Random Forest</text>
<rect x="300" y="422" width="670" height="27" rx="4" fill="#eef2f7"/>
<rect x="300" y="422" width="506.83" height="27" rx="4" fill="#ea580c"/>
<text x="816.83" y="441" font-family="Arial, sans-serif" font-size="14" font-weight="700" fill="#111827">0.08662</text>
<text x="286" y="495" text-anchor="end" font-family="Arial, sans-serif" font-size="15" fill="#111827">Kernel Ridge-RBF</text>
<rect x="300" y="476" width="670" height="27" rx="4" fill="#eef2f7"/>
<rect x="300" y="476" width="509.09" height="27" rx="4" fill="#7c3aed"/>
<text x="819.09" y="495" font-family="Arial, sans-serif" font-size="14" font-weight="700" fill="#111827">0.08700</text>
<text x="286" y="549" text-anchor="end" font-family="Arial, sans-serif" font-size="15" fill="#111827">SVR-RBF</text>
<rect x="300" y="530" width="670" height="27" rx="4" fill="#eef2f7"/>
<rect x="300" y="530" width="517.19" height="27" rx="4" fill="#db2777"/>
<text x="827.19" y="549" font-family="Arial, sans-serif" font-size="14" font-weight="700" fill="#111827">0.08839</text>
<text x="286" y="603" text-anchor="end" font-family="Arial, sans-serif" font-size="15" fill="#111827">Content KNN</text>
<rect x="300" y="584" width="670" height="27" rx="4" fill="#eef2f7"/>
<rect x="300" y="584" width="620.37" height="27" rx="4" fill="#64748b"/>
<text x="930.37" y="603" font-family="Arial, sans-serif" font-size="14" font-weight="700" fill="#111827">0.10602</text>
</svg>
